<svg width="32" height="36" viewBox="0 0 32 36" fill="none" xmlns="http://www.w3.org/2000/svg">
    <path d="M13.033 29.3689L27.133 19.8856C29.5414 18.2656 30.7447 17.4556 30.9647 15.9806C31.1814 14.5056 30.3914 13.5139 28.8097 11.5306C25.1797 6.98057 20.2464 3.58891 14.603 1.96891C12.4564 1.35224 11.383 1.04557 10.233 1.69891C9.08303 2.35224 8.70637 3.62724 7.9547 6.17724L3.34303 21.8389C1.18637 29.1672 0.108035 32.8306 1.91303 34.2322C3.71803 35.6339 6.82303 33.5456 13.033 29.3689Z" stroke="white" stroke-width="1.5" stroke-linecap="round" stroke-linejoin="round"/>
    <path d="M8.49906 6.33398C8.49906 6.33398 9.39573 6.53065 10.8324 6.96898C15.3857 8.36065 19.4491 11.0557 22.6657 14.669M17.6791 16.334H17.6641M6.4724 11.2573C8.26406 11.749 9.40573 13.3873 9.40573 15.379C9.40573 18.1573 6.70573 20.2806 4.03906 19.524M9.70406 29.249C8.78406 27.6323 9.03573 25.5157 10.4441 24.1057C12.1257 22.424 14.8191 22.3923 16.4607 24.034C16.7363 24.3118 16.9641 24.614 17.1441 24.9406" stroke="white" stroke-width="1.5" stroke-linecap="round" stroke-linejoin="round"/>
    <path d="M17.5376 26.3223C17.0443 24.414 15.4293 23.0156 13.5143 23.0156C11.2059 23.0156 9.33594 25.0473 9.33594 27.5523C9.33594 28.8806 9.86094 30.074 10.6976 30.904" stroke="white" stroke-width="1.5" stroke-linecap="round" stroke-linejoin="round"/>
</svg>
