<svg width="36" height="36" viewBox="0 0 36 36" fill="none" xmlns="http://www.w3.org/2000/svg">
    <path d="M1.33203 26.1673C1.33203 23.984 1.33203 22.894 1.8237 22.0923C2.09848 21.644 2.47541 21.2671 2.9237 20.9923C3.7237 20.5007 4.81703 20.5007 6.9987 20.5007H8.83203C11.9754 20.5007 13.5454 20.5007 14.522 21.4773C15.4987 22.454 15.4987 24.024 15.4987 27.1673V29.0007C15.4987 31.184 15.4987 32.274 15.007 33.0757C14.7323 33.5239 14.3553 33.9009 13.907 34.1757C13.107 34.6673 12.0137 34.6673 9.83203 34.6673C6.5587 34.6673 4.92203 34.6673 3.72036 33.9307C3.04793 33.5185 2.48253 32.9531 2.07036 32.2807C1.33203 31.0757 1.33203 29.4406 1.33203 26.1673ZM20.4987 7.00065C20.4987 4.81732 20.4987 3.72732 20.9904 2.92565C21.2651 2.47736 21.6421 2.10043 22.0904 1.82565C22.8904 1.33398 23.9837 1.33398 26.1654 1.33398C29.4387 1.33398 31.0754 1.33398 32.2787 2.07065C32.9511 2.48282 33.5165 3.04821 33.9287 3.72065C34.6654 4.92565 34.6654 6.56232 34.6654 9.83398C34.6654 12.0173 34.6654 13.1073 34.1737 13.909C33.8989 14.3573 33.522 14.7342 33.0737 15.009C32.2737 15.5007 31.1804 15.5007 28.9987 15.5007H27.1654C24.022 15.5007 22.452 15.5007 21.4754 14.524C20.4987 13.5473 20.4987 11.9773 20.4987 8.83398V7.00065Z" stroke="white" stroke-width="1.5"/>
    <path d="M25.5 8.41732C25.5 7.55898 25.5 7.12898 25.7167 6.82565C25.7922 6.71865 25.8851 6.62512 25.9917 6.54898C26.295 6.33398 26.725 6.33398 27.5833 6.33398C28.4417 6.33398 28.8717 6.33398 29.175 6.55065C29.282 6.62614 29.3755 6.71911 29.4517 6.82565C29.6667 7.12898 29.6667 7.55898 29.6667 8.41732C29.6667 9.27565 29.6667 9.70565 29.45 10.009C29.3745 10.116 29.2815 10.2095 29.175 10.2857C28.8717 10.5007 28.4417 10.5007 27.5833 10.5007C26.725 10.5007 26.295 10.5007 25.9917 10.284C25.8847 10.2085 25.7911 10.1155 25.715 10.009C25.5 9.70565 25.5 9.27565 25.5 8.41732ZM19.25 34.6673C19.25 34.9988 19.3817 35.3168 19.6161 35.5512C19.8505 35.7856 20.1685 35.9173 20.5 35.9173C20.8315 35.9173 21.1495 35.7856 21.3839 35.5512C21.6183 35.3168 21.75 34.9988 21.75 34.6673H19.25ZM29.6667 19.2507H26.3333V21.7507H29.6667V19.2507ZM19.25 29.6673V34.6673H21.75V29.6673H19.25ZM26.3333 19.2507C25.1883 19.2507 24.2367 19.2507 23.4683 19.3273C22.6783 19.4073 21.9467 19.5823 21.2867 20.024L22.6767 22.1023C22.8567 21.9807 23.13 21.874 23.7217 21.814C24.3333 21.7523 25.1383 21.7507 26.3333 21.7507V19.2507ZM21.75 26.334C21.75 25.1373 21.75 24.334 21.8133 23.7223C21.8733 23.1307 21.98 22.8573 22.1017 22.6773L20.0233 21.2873C19.5833 21.9473 19.4067 22.679 19.3267 23.469C19.2483 24.2373 19.25 25.189 19.25 26.334H21.75ZM21.2867 20.024C20.7867 20.3573 20.3567 20.7873 20.0233 21.2873L22.1017 22.6773C22.2553 22.4511 22.4504 22.256 22.6767 22.1023L21.2867 20.024ZM35.9167 20.5007C35.9167 20.1691 35.785 19.8512 35.5506 19.6168C35.3161 19.3823 34.9982 19.2507 34.6667 19.2507C34.3351 19.2507 34.0172 19.3823 33.7828 19.6168C33.5484 19.8512 33.4167 20.1691 33.4167 20.5007H35.9167ZM26.3333 35.9173H29.6667V33.4173H26.3333V35.9173ZM35.9167 26.334V20.5007H33.4167V26.334H35.9167ZM29.6667 35.9173C30.4267 35.9173 31.0583 35.9173 31.575 35.884C32.1033 35.8473 32.6033 35.7707 33.0867 35.569L32.13 33.259C32.0017 33.3123 31.8067 33.3607 31.405 33.389C30.9933 33.4173 30.46 33.4173 29.6667 33.4173V35.9173ZM33.4167 29.6673C33.4167 30.4607 33.4167 30.994 33.3883 31.4057C33.36 31.8073 33.3117 32.0023 33.2583 32.1307L35.5683 33.0873C35.7683 32.604 35.8467 32.104 35.8817 31.5757C35.9167 31.059 35.9167 30.4257 35.9167 29.6673H33.4167ZM33.0867 35.569C33.6429 35.3388 34.1484 34.9997 34.5742 34.5742C35 34.1486 35.3378 33.6434 35.5683 33.0873L33.2583 32.1307C33.1536 32.3836 33.0001 32.6135 32.8065 32.8071C32.6129 33.0007 32.383 33.1543 32.13 33.259L33.0867 35.569Z" fill="white"/>
    <path d="M1.33203 9.83398C1.33203 6.56065 1.33203 4.92398 2.0687 3.72232C2.48086 3.04988 3.04626 2.48448 3.7187 2.07232C4.9237 1.33398 6.56036 1.33398 9.83203 1.33398C12.0154 1.33398 13.1054 1.33398 13.907 1.82565C14.3553 2.10043 14.7323 2.47736 15.007 2.92565C15.4987 3.72565 15.4987 4.81898 15.4987 7.00065V8.83398C15.4987 11.9773 15.4987 13.5473 14.522 14.524C13.5454 15.5007 11.9754 15.5007 8.83203 15.5007H6.9987C4.81537 15.5007 3.72536 15.5007 2.9237 15.009C2.47541 14.7342 2.09848 14.3573 1.8237 13.909C1.33203 13.109 1.33203 12.0157 1.33203 9.83398Z" stroke="white" stroke-width="1.5"/>
    <path d="M6.33203 8.41732C6.33203 7.55898 6.33203 7.12898 6.5487 6.82565C6.62419 6.71865 6.71715 6.62512 6.8237 6.54898C7.12703 6.33398 7.55703 6.33398 8.41536 6.33398C9.2737 6.33398 9.7037 6.33398 10.007 6.55065C10.114 6.62614 10.2076 6.71911 10.2837 6.82565C10.4987 7.12898 10.4987 7.55898 10.4987 8.41732C10.4987 9.27565 10.4987 9.70565 10.282 10.009C10.2065 10.116 10.1136 10.2095 10.007 10.2857C9.7037 10.5007 9.2737 10.5007 8.41536 10.5007C7.55703 10.5007 7.12703 10.5007 6.8237 10.284C6.7167 10.2085 6.62317 10.1155 6.54703 10.009C6.33203 9.70565 6.33203 9.27565 6.33203 8.41732ZM6.33203 27.584C6.33203 26.7257 6.33203 26.2957 6.5487 25.9923C6.62419 25.8853 6.71715 25.7918 6.8237 25.7157C7.12703 25.5007 7.55703 25.5007 8.41536 25.5007C9.2737 25.5007 9.7037 25.5006 10.007 25.7173C10.114 25.7928 10.2076 25.8858 10.2837 25.9923C10.4987 26.2957 10.4987 26.7257 10.4987 27.584C10.4987 28.4423 10.4987 28.8723 10.282 29.1756C10.2065 29.2827 10.1136 29.3762 10.007 29.4523C9.7037 29.6673 9.2737 29.6673 8.41536 29.6673C7.55703 29.6673 7.12703 29.6673 6.8237 29.4507C6.7167 29.3752 6.62317 29.2822 6.54703 29.1756C6.33203 28.8723 6.33203 28.4423 6.33203 27.584ZM24.6654 27.584C24.6654 26.414 24.6654 25.829 24.947 25.4073C25.0683 25.226 25.2241 25.0703 25.4054 24.949C25.827 24.6673 26.412 24.6673 27.582 24.6673C28.752 24.6673 29.337 24.6673 29.7587 24.949C29.94 25.0703 30.0957 25.226 30.217 25.4073C30.4987 25.829 30.4987 26.414 30.4987 27.584C30.4987 28.754 30.4987 29.339 30.217 29.7607C30.0957 29.942 29.94 30.0977 29.7587 30.219C29.337 30.5006 28.752 30.5007 27.582 30.5007C26.412 30.5007 25.827 30.5006 25.4054 30.219C25.2241 30.0977 25.0683 29.942 24.947 29.7607C24.6654 29.339 24.6654 28.754 24.6654 27.584Z" fill="white"/>
</svg>
