<svg width="40" height="36" viewBox="0 0 40 36" fill="none" xmlns="http://www.w3.org/2000/svg">
    <path d="M6.21805 26.7584L5.87756 27.4266L6.21805 26.7584ZM2.57625 23.1166L1.90799 23.4571L2.57625 23.1166ZM37.4264 23.1166L38.0946 23.4571L37.4264 23.1166ZM33.7846 26.7584L34.125 27.4266L33.7846 26.7584ZM33.7846 1.90828L34.125 1.24002L33.7846 1.90828ZM37.4264 5.55008L38.0946 5.20959L37.4264 5.55008ZM6.21805 1.90828L5.87756 1.24002L6.21805 1.90828ZM2.57625 5.55008L1.90799 5.20959L2.57625 5.55008ZM13.1527 33.6057C12.7509 33.7062 12.5066 34.1134 12.607 34.5152C12.7075 34.9171 13.1147 35.1614 13.5165 35.0609L13.1527 33.6057ZM15.959 33.6772L16.1409 34.4048L15.959 33.6772ZM24.0436 33.6772L23.8617 34.4048L24.0436 33.6772ZM26.4861 35.0609C26.8879 35.1614 27.2951 34.9171 27.3956 34.5152C27.496 34.1134 27.2517 33.7062 26.8499 33.6057L26.4861 35.0609ZM20.7513 27.6667C20.7513 27.2525 20.4155 26.9167 20.0013 26.9167C19.5871 26.9167 19.2513 27.2525 19.2513 27.6667H20.7513ZM20.0013 21.9167C19.5871 21.9167 19.2513 22.2525 19.2513 22.6667C19.2513 23.0809 19.5871 23.4167 20.0013 23.4167V21.9167ZM30.0013 23.4167C30.4155 23.4167 30.7513 23.0809 30.7513 22.6667C30.7513 22.2525 30.4155 21.9167 30.0013 21.9167V23.4167ZM20.0013 33.1796V33.9296V33.1796ZM15.0013 1V1.75H25.0013V1V0.25H15.0013V1ZM25.0013 27.6667V26.9167H15.0013V27.6667V28.4167H25.0013V27.6667ZM15.0013 27.6667V26.9167C12.6554 26.9167 10.941 26.9161 9.58906 26.8056C8.24584 26.6959 7.32649 26.4814 6.55854 26.0901L6.21805 26.7584L5.87756 27.4266C6.89221 27.9436 8.03093 28.1833 9.46691 28.3006C10.8941 28.4172 12.6801 28.4167 15.0013 28.4167V27.6667ZM1.66797 14.3333H0.917969C0.917969 16.6545 0.917385 18.4405 1.03399 19.8677C1.15132 21.3037 1.391 22.4424 1.90799 23.4571L2.57625 23.1166L3.2445 22.7761C2.85321 22.0081 2.63876 21.0888 2.52901 19.7456C2.41855 18.3936 2.41797 16.6793 2.41797 14.3333H1.66797ZM6.21805 26.7584L6.55854 26.0901C5.13165 25.3631 3.97154 24.203 3.2445 22.7761L2.57625 23.1166L1.90799 23.4571C2.77884 25.1662 4.16842 26.5558 5.87756 27.4266L6.21805 26.7584ZM38.3346 14.3333H37.5846C37.5846 16.6793 37.5841 18.3936 37.4736 19.7456C37.3638 21.0888 37.1494 22.0081 36.7581 22.7761L37.4264 23.1166L38.0946 23.4571C38.6116 22.4424 38.8513 21.3037 38.9686 19.8677C39.0852 18.4405 39.0846 16.6545 39.0846 14.3333H38.3346ZM25.0013 27.6667V28.4167C27.3225 28.4167 29.1085 28.4172 30.5357 28.3006C31.9717 28.1833 33.1104 27.9436 34.125 27.4266L33.7846 26.7584L33.4441 26.0901C32.6761 26.4814 31.7568 26.6959 30.4135 26.8056C29.0616 26.9161 27.3472 26.9167 25.0013 26.9167V27.6667ZM37.4264 23.1166L36.7581 22.7761C36.0311 24.203 34.871 25.3631 33.4441 26.0901L33.7846 26.7584L34.125 27.4266C35.8342 26.5558 37.2238 25.1662 38.0946 23.4571L37.4264 23.1166ZM25.0013 1V1.75C27.3472 1.75 29.0616 1.75058 30.4135 1.86104C31.7568 1.97079 32.6761 2.18524 33.4441 2.57653L33.7846 1.90828L34.125 1.24002C33.1104 0.723034 31.9717 0.48335 30.5357 0.366026C29.1085 0.249417 27.3225 0.25 25.0013 0.25V1ZM38.3346 14.3333H39.0846C39.0846 12.0122 39.0852 10.2262 38.9686 8.79894C38.8513 7.36296 38.6116 6.22424 38.0946 5.20959L37.4264 5.55008L36.7581 5.89057C37.1494 6.65852 37.3638 7.57787 37.4736 8.92109C37.5841 10.2731 37.5846 11.9874 37.5846 14.3333H38.3346ZM33.7846 1.90828L33.4441 2.57653C34.871 3.30357 36.0311 4.46368 36.7581 5.89057L37.4264 5.55008L38.0946 5.20959C37.2238 3.50045 35.8342 2.11087 34.125 1.24002L33.7846 1.90828ZM15.0013 1V0.25C12.6801 0.25 10.8941 0.249417 9.46691 0.366026C8.03093 0.48335 6.89221 0.723034 5.87756 1.24002L6.21805 1.90828L6.55854 2.57653C7.32649 2.18524 8.24584 1.97079 9.58906 1.86104C10.941 1.75058 12.6554 1.75 15.0013 1.75V1ZM1.66797 14.3333H2.41797C2.41797 11.9874 2.41855 10.2731 2.52901 8.92109C2.63876 7.57787 2.85321 6.65852 3.2445 5.89057L2.57625 5.55008L1.90799 5.20959C1.391 6.22424 1.15132 7.36296 1.03399 8.79894C0.917385 10.2262 0.917969 12.0122 0.917969 14.3333H1.66797ZM6.21805 1.90828L5.87756 1.24002C4.16842 2.11087 2.77884 3.50045 1.90799 5.20959L2.57625 5.55008L3.2445 5.89057C3.97154 4.46368 5.13165 3.30357 6.55854 2.57653L6.21805 1.90828ZM13.3346 34.3333L13.5165 35.0609L16.1409 34.4048L15.959 33.6772L15.7771 32.9496L13.1527 33.6057L13.3346 34.3333ZM24.0436 33.6772L23.8617 34.4048L26.4861 35.0609L26.668 34.3333L26.8499 33.6057L24.2255 32.9496L24.0436 33.6772ZM20.0013 32.6667H20.7513V27.6667H20.0013H19.2513V32.6667H20.0013ZM20.0013 22.6667V23.4167L30.0013 23.4167V22.6667V21.9167L20.0013 21.9167V22.6667ZM15.959 33.6772L16.1409 34.4048C17.4082 34.088 18.7048 33.9296 20.0013 33.9296V33.1796V32.4296C18.5826 32.4296 17.1639 32.6029 15.7771 32.9496L15.959 33.6772ZM20.0013 33.1796V33.9296C21.2978 33.9296 22.5944 34.088 23.8617 34.4048L24.0436 33.6772L24.2255 32.9496C22.8388 32.6029 21.42 32.4296 20.0013 32.4296V33.1796ZM20.0013 32.6667H19.2513V33.1796H20.0013H20.7513V32.6667H20.0013Z" fill="white"/>
    <path d="M8 12C8 12.5523 7.55228 13 7 13C6.44772 13 6 12.5523 6 12C6 11.4477 6.44772 11 7 11C7.55228 11 8 11.4477 8 12Z" fill="white"/>
</svg>
