<svg width="40" height="40" viewBox="0 0 40 40" fill="none" xmlns="http://www.w3.org/2000/svg">
    <path d="M35.2183 27.0782V30.3866C35.2184 30.9893 35.0998 31.5862 34.8692 32.143C34.6387 32.6999 34.3006 33.2059 33.8745 33.6321C33.4483 34.0584 32.9424 34.3965 32.3856 34.6272C31.8287 34.8578 31.2319 34.9766 30.6292 34.9766H8.33917C7.73639 34.977 7.13943 34.8586 6.58245 34.6281C6.02547 34.3977 5.51939 34.0597 5.09316 33.6334C4.66693 33.2072 4.32891 32.7011 4.09844 32.1441C3.86797 31.5871 3.74956 30.9902 3.75 30.3874V16.7491C3.75 15.532 4.2335 14.3647 5.09414 13.504C5.95477 12.6434 7.12205 12.1599 8.33917 12.1599H30.6292C31.8461 12.1606 33.013 12.6443 33.8735 13.5048C34.734 14.3653 35.2177 15.5322 35.2183 16.7491V20.0574" stroke="white" stroke-width="1.5" stroke-linecap="round" stroke-linejoin="round"/>
    <path d="M31.1921 12.1968L29.9813 8.02344L13.8038 12.1618M26.7521 8.84927L24.9905 5.02344L10.7305 12.1618M25.4821 19.7709H34.1738C34.7246 19.7714 35.2527 19.9904 35.642 20.38C36.0314 20.7695 36.2502 21.2977 36.2505 21.8484V25.2901C36.2502 25.841 36.0313 26.3693 35.6417 26.7589C35.2522 27.1484 34.7239 27.3674 34.173 27.3676H25.4813C24.7383 27.3669 24.026 27.0714 23.5007 26.546C22.9754 26.0205 22.6801 25.3081 22.6796 24.5651V22.5734C22.6801 21.8303 22.9755 21.1177 23.501 20.5923C24.0264 20.0668 24.739 19.7714 25.4821 19.7709Z" stroke="white" stroke-width="1.5" stroke-linecap="round" stroke-linejoin="round"/>
    <path d="M27.2684 25.3883C28.2731 25.3883 29.0876 24.5739 29.0876 23.5692C29.0876 22.5645 28.2731 21.75 27.2684 21.75C26.2637 21.75 25.4492 22.5645 25.4492 23.5692C25.4492 24.5739 26.2637 25.3883 27.2684 25.3883Z" stroke="white" stroke-width="1.5" stroke-linecap="round" stroke-linejoin="round"/>
</svg>
