<svg width="40" height="40" viewBox="0 0 40 40" fill="none" xmlns="http://www.w3.org/2000/svg">
    <path d="M33.7695 21.5513C35.018 19.7567 35.7716 17.6649 35.9547 15.4864C36.1377 13.308 35.7437 11.1198 34.8122 9.14203C33.8807 7.16429 32.4447 5.46682 30.6486 4.22049C28.8526 2.97416 26.7599 2.22295 24.5812 2.04248C22.4026 1.86201 20.2148 2.25864 18.2382 3.19245C16.2615 4.12627 14.5657 5.56431 13.3215 7.36182C12.0773 9.15934 11.3286 11.2529 11.1507 13.4318C10.9727 15.6106 11.372 17.7979 12.3081 19.7735" stroke="white" stroke-width="1.5" stroke-linecap="round" stroke-linejoin="round"/>
    <path d="M27.1112 9.77035C26.8339 8.29834 25.1308 6.91344 22.8321 7.44678C20.4232 8.005 19.3316 10.837 20.4232 12.6059C21.5556 14.4406 22.0979 16.2184 20.6205 18.7339C20.3343 19.2228 20.1903 19.4682 20.2685 19.6228C20.3485 19.7739 20.6027 19.7739 21.1094 19.7739H27.1112M18.2223 14.4406H25.3334M4 23.3295H8.2578C8.78047 23.3295 9.29602 23.4469 9.76358 23.6744L13.3938 25.4309C13.8614 25.6566 14.3769 25.774 14.9014 25.774H16.7538C18.5458 25.774 20.0001 27.1802 20.0001 28.9153C20.0001 28.9864 19.9521 29.0469 19.8827 29.0664L15.3654 30.3162C14.5548 30.5401 13.6905 30.4618 12.9334 30.0958L9.05247 28.2184M20.0001 27.774L28.1654 25.2655C28.8763 25.0474 29.6379 25.0594 30.3415 25.2998C31.0452 25.5402 31.6549 25.9967 32.0837 26.6042C32.7397 27.5109 32.473 28.8122 31.5166 29.3633L18.1565 37.0736C17.7388 37.3153 17.2762 37.4694 16.7969 37.5266C16.3177 37.5837 15.8318 37.5427 15.3689 37.406L4 34.0318" stroke="white" stroke-width="1.5" stroke-linecap="round" stroke-linejoin="round"/>
</svg>
