<svg width="40" height="40" viewBox="0 0 40 40" fill="none" xmlns="http://www.w3.org/2000/svg">
    <g clip-path="url(#clip0_258_3395)">
        <path d="M2.87891 15.9517C2.87891 17.0328 3.30841 18.0698 4.07292 18.8343C4.83746 19.5988 5.87437 20.0283 6.95557 20.0283C8.03677 20.0283 9.07369 19.5988 9.83821 18.8343C10.6027 18.0698 11.0322 17.0328 11.0322 15.9517C11.0322 14.8705 10.6027 13.8336 9.83821 13.069C9.07369 12.3045 8.03677 11.875 6.95557 11.875C5.87437 11.875 4.83746 12.3045 4.07292 13.069C3.30841 13.8336 2.87891 14.8705 2.87891 15.9517Z" stroke="white" stroke-width="1.5" stroke-linecap="round" stroke-linejoin="round"/>
        <path d="M28.9648 15.9517C28.9648 16.487 29.0703 17.0172 29.2752 17.5117C29.48 18.0063 29.7803 18.4558 30.1588 18.8343C30.5375 19.2128 30.9868 19.5132 31.4815 19.718C31.976 19.9228 32.5062 20.0283 33.0415 20.0283C33.5768 20.0283 34.107 19.9228 34.6015 19.718C35.0962 19.5132 35.5457 19.2128 35.9242 18.8343C36.3027 18.4558 36.603 18.0063 36.8078 17.5117C37.0127 17.0172 37.1182 16.487 37.1182 15.9517C37.1182 15.4163 37.0127 14.8862 36.8078 14.3916C36.603 13.897 36.3027 13.4476 35.9242 13.069C35.5457 12.6905 35.0962 12.3902 34.6015 12.1853C34.107 11.9805 33.5768 11.875 33.0415 11.875C32.5062 11.875 31.976 11.9805 31.4815 12.1853C30.9868 12.3902 30.5375 12.6905 30.1588 13.069C29.7803 13.4476 29.48 13.897 29.2752 14.3916C29.0703 14.8862 28.9648 15.4163 28.9648 15.9517Z" stroke="white" stroke-width="1.5" stroke-linecap="round" stroke-linejoin="round"/>
        <path d="M27.3317 38.5417V27.3183C25.2839 27.1297 23.3355 26.348 21.725 25.0693C20.1144 23.7905 18.9115 22.0702 18.2634 20.1183L16.86 15.9101C16.7475 15.5725 16.7099 15.2144 16.7499 14.8608C16.7899 14.5072 16.9065 14.1666 17.0919 13.8628C17.277 13.5589 17.5262 13.2991 17.822 13.1014C18.118 12.9038 18.4535 12.7731 18.805 12.7184C19.3964 12.6453 19.9947 12.7826 20.495 13.1062C20.9954 13.4298 21.3659 13.9191 21.5417 14.4884L22.905 18.5767C23.2837 19.7122 24.0102 20.6997 24.9815 21.399C25.9529 22.0985 27.1199 22.4743 28.3167 22.4733H35.4834C35.9119 22.473 36.336 22.557 36.732 22.7207C37.1279 22.8842 37.4877 23.1243 37.7907 23.427C38.0939 23.7298 38.3342 24.0893 38.4982 24.485C38.6624 24.8808 38.7467 25.305 38.7467 25.7333V38.5483" stroke="white" stroke-width="1.5" stroke-linecap="round" stroke-linejoin="round"/>
        <path d="M17.4217 17.5801L17.0883 18.5701C16.7093 19.7077 15.9816 20.6972 15.0084 21.3979C14.0351 22.0986 12.8659 22.4749 11.6667 22.4734H4.50833C3.64517 22.4737 2.81742 22.8166 2.2066 23.4264C1.59578 24.0362 1.25177 24.8636 1.25 25.7267V38.5417" stroke="white" stroke-width="1.5" stroke-linecap="round" stroke-linejoin="round"/>
        <path d="M12.668 38.5404V27.317C14.0967 27.1849 15.4836 26.7634 16.7442 26.0784C18.005 25.3932 19.1132 24.4589 20.0013 23.332" stroke="white" stroke-width="1.5" stroke-linecap="round" stroke-linejoin="round"/>
        <path d="M19.168 1.45703V4.79036" stroke="white" stroke-width="1.5" stroke-linecap="round" stroke-linejoin="round"/>
        <path d="M25.6887 4.93359L23.332 7.29026" stroke="white" stroke-width="1.5" stroke-linecap="round" stroke-linejoin="round"/>
        <path d="M12.6445 4.93359L15.0012 7.29026" stroke="white" stroke-width="1.5" stroke-linecap="round" stroke-linejoin="round"/>
    </g>
    <defs>
        <clipPath id="clip0_258_3395">
            <rect width="40" height="40" fill="white"/>
        </clipPath>
    </defs>
</svg>
