<svg width="40" height="40" viewBox="0 0 40 40" fill="none" xmlns="http://www.w3.org/2000/svg">
    <g clip-path="url(#clip0_258_3358)">
        <path d="M36.25 18.75H28.75C27.3693 18.75 26.25 19.8693 26.25 21.25V36.25C26.25 37.6307 27.3693 38.75 28.75 38.75H36.25C37.6307 38.75 38.75 37.6307 38.75 36.25V21.25C38.75 19.8693 37.6307 18.75 36.25 18.75Z" stroke="white" stroke-width="1.5" stroke-linecap="round" stroke-linejoin="round"/>
        <path d="M26.25 33.75H38.75" stroke="white" stroke-width="1.5" stroke-linecap="round" stroke-linejoin="round"/>
        <path d="M6.25 26.25C6.25 28.9022 7.30357 31.4457 9.17893 33.321C11.0543 35.1965 13.5978 36.25 16.25 36.25H20" stroke="white" stroke-width="1.5" stroke-linecap="round" stroke-linejoin="round"/>
        <path d="M38.75 13.75C38.75 11.0978 37.6965 8.5543 35.821 6.67893C33.9457 4.80357 31.4022 3.75 28.75 3.75H26.25" stroke="white" stroke-width="1.5" stroke-linecap="round" stroke-linejoin="round"/>
        <path d="M28.75 1.25L26.25 3.75L28.75 6.25" stroke="white" stroke-width="2" stroke-linecap="round" stroke-linejoin="round"/>
        <path d="M17.5 38.75L20 36.25L17.5 33.75" stroke="white" stroke-width="2" stroke-linecap="round" stroke-linejoin="round"/>
        <path d="M17.5 1.25L13.75 13.75H3.75L1.25 6.25H16" stroke="white" stroke-width="1.5" stroke-linecap="round" stroke-linejoin="round"/>
        <path d="M4.375 18.75C4.02982 18.75 3.75 18.4702 3.75 18.125C3.75 17.7798 4.02982 17.5 4.375 17.5" stroke="white" stroke-width="1.5"/>
        <path d="M4.375 18.75C4.72018 18.75 5 18.4702 5 18.125C5 17.7798 4.72018 17.5 4.375 17.5" stroke="white" stroke-width="1.5"/>
        <path d="M13.125 18.75C12.7798 18.75 12.5 18.4702 12.5 18.125C12.5 17.7798 12.7798 17.5 13.125 17.5" stroke="white" stroke-width="1.5"/>
        <path d="M13.125 18.75C13.4702 18.75 13.75 18.4702 13.75 18.125C13.75 17.7798 13.4702 17.5 13.125 17.5" stroke="white" stroke-width="1.5"/>
    </g>
    <defs>
        <clipPath id="clip0_258_3358">
            <rect width="40" height="40" fill="white"/>
        </clipPath>
    </defs>
</svg>
