<svg width="24" height="24" viewBox="0 0 24 24" fill="none" xmlns="http://www.w3.org/2000/svg">
    <rect width="24" height="24" rx="4" fill="#37AEE2"/>
    <path d="M10.5138 16.4458C10.1495 16.4458 10.1826 16.3134 10.0833 15.9822L9.02344 12.5046L17.1378 7.73535"
          fill="#C8DAEA"/>
    <path d="M10.5139 16.446C10.7458 16.446 10.8782 16.3136 11.0438 16.1811L12.5342 14.7569L10.6795 13.6309"
          fill="#A9C9DD"/>
    <path d="M10.6795 13.6308L15.1506 16.9097C15.6143 17.2078 16.0117 17.0422 16.1442 16.446L17.9658 7.90111C18.1314 7.17247 17.6677 6.84127 17.1709 7.07311L6.53951 11.18C5.84399 11.4449 5.84399 11.8755 6.40703 12.0411L9.15596 12.9022L15.4487 8.8947C15.7468 8.7291 16.0117 8.79534 15.813 9.02718"
          fill="#F6FBFE"/>
</svg>
