<svg width="24" height="24" viewBox="0 0 24 24" fill="none" xmlns="http://www.w3.org/2000/svg">
    <rect width="24" height="24" rx="4" fill="#00D95F"/>
    <path d="M14.8794 12.8954C14.856 12.8841 13.9812 12.4534 13.8257 12.3974C13.7623 12.3746 13.6943 12.3524 13.622 12.3524C13.5038 12.3524 13.4046 12.4112 13.3273 12.5269C13.2399 12.6568 12.9754 12.966 12.8936 13.0584C12.8829 13.0706 12.8684 13.0851 12.8596 13.0851C12.8518 13.0851 12.7164 13.0294 12.6754 13.0116C11.737 12.6039 11.0247 11.6236 10.927 11.4583C10.913 11.4346 10.9124 11.4238 10.9123 11.4238C10.9158 11.4112 10.9473 11.3795 10.9636 11.3632C11.0113 11.3161 11.0629 11.2539 11.1128 11.1938C11.1365 11.1653 11.1602 11.1368 11.1834 11.1099C11.2559 11.0256 11.2881 10.9602 11.3255 10.8844L11.3451 10.845C11.4365 10.6635 11.3585 10.5104 11.3333 10.461C11.3126 10.4196 10.9432 9.52808 10.9039 9.43442C10.8095 9.2084 10.6847 9.10317 10.5113 9.10317C10.4952 9.10317 10.5113 9.10317 10.4438 9.10601C10.3616 9.10948 9.91415 9.16839 9.7163 9.2931C9.5065 9.42538 9.15156 9.84701 9.15156 10.5885C9.15156 11.2559 9.57507 11.886 9.7569 12.1256C9.76142 12.1317 9.76972 12.144 9.78176 12.1616C10.4781 13.1785 11.3462 13.9322 12.2262 14.2837C13.0734 14.6222 13.4746 14.6613 13.7027 14.6613H13.7027C13.7986 14.6613 13.8753 14.6538 13.943 14.6471L13.9859 14.643C14.2786 14.6171 14.9217 14.2838 15.068 13.8772C15.1833 13.557 15.2137 13.2071 15.137 13.0802C15.0845 12.9938 14.994 12.9504 14.8794 12.8954Z"
          fill="white"/>
    <path d="M12.1065 6C8.85654 6 6.21248 8.62418 6.21248 11.8497C6.21248 12.893 6.49168 13.9142 7.02058 14.808L6.00825 17.7941C5.98939 17.8498 6.00342 17.9114 6.0446 17.9533C6.07433 17.9836 6.11465 18 6.15584 18C6.17161 18 6.18751 17.9976 6.20302 17.9927L9.31679 17.0032C10.1689 17.4585 11.1319 17.6988 12.1066 17.6988C15.3562 17.6988 18 15.0749 18 11.8497C18 8.62418 15.3562 6 12.1065 6ZM12.1065 16.4803C11.1894 16.4803 10.3011 16.2155 9.53758 15.7144C9.5119 15.6976 9.4821 15.6889 9.4521 15.6889C9.43624 15.6889 9.42034 15.6913 9.40488 15.6962L7.84507 16.1921L8.3486 14.7065C8.36489 14.6584 8.35675 14.6054 8.32675 14.5644C7.74529 13.7699 7.43793 12.8312 7.43793 11.8497C7.43793 9.2961 9.53224 7.21855 12.1065 7.21855C14.6804 7.21855 16.7745 9.2961 16.7745 11.8497C16.7745 14.403 14.6805 16.4803 12.1065 16.4803Z"
          fill="white"/>
</svg>
