<svg width="42" height="42" viewBox="0 0 42 42" fill="none" xmlns="http://www.w3.org/2000/svg">
    <path d="M27.7794 5.78013C28.0308 6.03179 28.3448 6.21184 28.6889 6.30173C29.0331 6.39161 29.395 6.38808 29.7373 6.29148C30.0796 6.19489 30.39 6.00874 30.6364 5.75222C30.8828 5.4957 31.0564 5.17809 31.1391 4.83214C31.3467 3.96795 31.7809 3.17471 32.397 2.53412C33.013 1.89353 33.7887 1.42874 34.6441 1.18762C35.4995 0.946502 36.4037 0.937767 37.2635 1.16232C38.1234 1.38686 38.9079 1.83658 39.5362 2.46515C40.1646 3.09372 40.614 3.87842 40.8382 4.73845C41.0625 5.59847 41.0534 6.50273 40.8121 7.3581C40.5707 8.21348 40.1057 8.98904 39.4649 9.60493C38.8242 10.2208 38.0308 10.6548 37.1666 10.8621C36.8207 10.9449 36.5031 11.1184 36.2466 11.3649C35.9901 11.6113 35.804 11.9217 35.7074 12.2641C35.6108 12.6064 35.6073 12.9683 35.6972 13.3125C35.787 13.6567 35.9671 13.9707 36.2187 14.2221L39.5844 17.586C40.0327 18.0344 40.3884 18.5666 40.631 19.1524C40.8736 19.7381 40.9985 20.366 40.9985 21C40.9985 21.634 40.8736 22.2619 40.631 22.8476C40.3884 23.4334 40.0327 23.9657 39.5844 24.414L36.2187 27.7799C35.9673 28.0316 35.6534 28.2117 35.3092 28.3015C34.9651 28.3914 34.6032 28.3879 34.2609 28.2913C33.9185 28.1947 33.6082 28.0085 33.3618 27.752C33.1153 27.4955 32.9418 27.1779 32.859 26.832C32.6514 25.9678 32.2172 25.1745 31.6012 24.5339C30.9851 23.8933 30.2095 23.4285 29.3541 23.1874C28.4987 22.9463 27.5945 22.9376 26.7346 23.1621C25.8747 23.3867 25.0902 23.8364 24.4619 24.465C23.8336 25.0935 23.3842 25.8782 23.1599 26.7383C22.9357 27.5983 22.9447 28.5025 23.1861 29.3579C23.4275 30.2133 23.8925 30.9888 24.5332 31.6047C25.174 32.2206 25.9673 32.6546 26.8315 32.8619C27.1774 32.9447 27.495 33.1182 27.7515 33.3647C28.008 33.6111 28.1942 33.9215 28.2907 34.2639C28.3873 34.6062 28.3909 34.9681 28.301 35.3123C28.2111 35.6565 28.0311 35.9705 27.7794 36.2219L24.4137 39.5858C23.9654 40.0342 23.4332 40.3898 22.8475 40.6325C22.2618 40.8751 21.634 41 21 41C20.366 41 19.7382 40.8751 19.1525 40.6325C18.5668 40.3898 18.0346 40.0342 17.5863 39.5858L14.2206 36.2199C13.9692 35.9682 13.6552 35.7882 13.3111 35.6983C12.9669 35.6084 12.605 35.6119 12.2627 35.7085C11.9204 35.8051 11.61 35.9913 11.3636 36.2478C11.1172 36.5043 10.9436 36.8219 10.8609 37.1679C10.6533 38.0321 10.2191 38.8253 9.60302 39.4659C8.98697 40.1065 8.21131 40.5713 7.35592 40.8124C6.50053 41.0535 5.59634 41.0622 4.73645 40.8377C3.87656 40.6131 3.09207 40.1634 2.46376 39.5349C1.83544 38.9063 1.38602 38.1216 1.16178 37.2616C0.937528 36.4015 0.946563 35.4973 1.18795 34.6419C1.42933 33.7865 1.89434 33.011 2.53509 32.3951C3.17583 31.7792 3.96916 31.3452 4.83336 31.1379C5.17928 31.0551 5.49686 30.8816 5.75336 30.6351C6.00987 30.3887 6.196 30.0783 6.29259 29.7359C6.38917 29.3936 6.39271 29.0317 6.30283 28.6875C6.21295 28.3433 6.03292 28.0293 5.78128 27.7779L2.41556 24.414C1.96725 23.9657 1.61163 23.4334 1.36901 22.8476C1.12638 22.2619 1.0015 21.634 1.0015 21C1.0015 20.366 1.12638 19.7381 1.36901 19.1524C1.61163 18.5666 1.96725 18.0344 2.41556 17.586L5.78128 14.2201C6.03266 13.9684 6.34661 13.7884 6.69076 13.6985C7.03491 13.6086 7.3968 13.6121 7.73912 13.7087C8.08145 13.8053 8.39182 13.9915 8.63824 14.248C8.88466 14.5045 9.05821 14.8221 9.141 15.1681C9.34859 16.0322 9.78277 16.8255 10.3988 17.4661C11.0149 18.1067 11.7905 18.5715 12.6459 18.8126C13.5013 19.0537 14.4055 19.0624 15.2654 18.8379C16.1253 18.6133 16.9098 18.1636 17.5381 17.535C18.1664 16.9065 18.6158 16.1218 18.8401 15.2618C19.0643 14.4017 19.0553 13.4975 18.8139 12.6421C18.5725 11.7867 18.1075 11.0112 17.4668 10.3953C16.826 9.77938 16.0327 9.34543 15.1685 9.1381C14.8226 9.05531 14.505 8.88175 14.2485 8.63531C13.992 8.38887 13.8058 8.07848 13.7093 7.73613C13.6127 7.39378 13.6091 7.03186 13.699 6.68768C13.7889 6.34351 13.9689 6.02954 14.2206 5.77813L17.5863 2.41416C18.0346 1.96582 18.5668 1.61017 19.1525 1.36753C19.7382 1.12489 20.366 1 21 1C21.634 1 22.2618 1.12489 22.8475 1.36753C23.4332 1.61017 23.9654 1.96582 24.4137 2.41416L27.7794 5.78013Z" stroke="#C8C8C8" stroke-width="1.5" stroke-linecap="round" stroke-linejoin="round"/>
</svg>
