<svg width="40" height="44" viewBox="0 0 40 44" fill="none" xmlns="http://www.w3.org/2000/svg">
    <path d="M7.5 13.666C9.1576 13.666 10.7473 13.0075 11.9194 11.8354C13.0915 10.6633 13.75 9.07362 13.75 7.41602C13.75 5.75841 13.0915 4.1687 11.9194 2.9966C10.7473 1.8245 9.1576 1.16602 7.5 1.16602C5.8424 1.16602 4.25269 1.8245 3.08058 2.9966C1.90848 4.1687 1.25 5.75841 1.25 7.41602C1.25 9.07362 1.90848 10.6633 3.08058 11.8354C4.25269 13.0075 5.8424 13.666 7.5 13.666ZM7.5 13.666V30.3327M7.5 30.3327C5.8424 30.3327 4.25269 30.9912 3.08058 32.1633C1.90848 33.3354 1.25 34.9251 1.25 36.5827C1.25 38.2403 1.90848 39.83 3.08058 41.0021C4.25269 42.1742 5.8424 42.8327 7.5 42.8327C9.1576 42.8327 10.7473 42.1742 11.9194 41.0021C13.0915 39.83 13.75 38.2403 13.75 36.5827C13.75 34.9251 13.0915 33.3354 11.9194 32.1633C10.7473 30.9912 9.1576 30.3327 7.5 30.3327ZM38.75 7.41602C38.75 9.07362 38.0915 10.6633 36.9194 11.8354C35.7473 13.0075 34.1576 13.666 32.5 13.666C30.8424 13.666 29.2527 13.0075 28.0806 11.8354C26.9085 10.6633 26.25 9.07362 26.25 7.41602C26.25 5.75841 26.9085 4.1687 28.0806 2.9966C29.2527 1.8245 30.8424 1.16602 32.5 1.16602C34.1576 1.16602 35.7473 1.8245 36.9194 2.9966C38.0915 4.1687 38.75 5.75841 38.75 7.41602Z" stroke="#C8C8C8" stroke-width="1.5" stroke-linecap="round" stroke-linejoin="round"/>
    <path d="M7.5 21.9993H24.1667C27.0833 21.9993 28.5417 21.9993 29.6562 21.4306C30.6357 20.9314 31.432 20.135 31.9312 19.1556C32.5 18.041 32.5 16.5827 32.5 13.666" stroke="#C8C8C8" stroke-width="1.5" stroke-linecap="round" stroke-linejoin="round"/>
</svg>
