<svg width="44" height="44" viewBox="0 0 44 44" fill="none" xmlns="http://www.w3.org/2000/svg">
    <path d="M28.206 11.6165C28.206 11.6165 29.2476 12.6582 30.2893 14.7415C30.2893 14.7415 33.5997 9.53315 36.5393 8.49148M17.8205 1.21023C12.6143 0.991485 8.59346 1.5894 8.59346 1.5894C6.05388 1.77274 1.18721 3.19357 1.18721 11.5102C1.18721 19.7519 1.13513 29.9144 1.18721 33.9665C1.18721 36.4415 2.72054 42.2165 8.02471 42.5248C14.4726 42.8998 26.0872 42.9811 31.4164 42.5248C32.8414 42.4436 37.5914 41.3248 38.1914 36.1581C38.8143 30.804 38.6914 27.0852 38.6914 26.1998" stroke="#C8C8C8" stroke-width="1.5" stroke-linecap="round" stroke-linejoin="round"/>
    <path d="M11.5391 24.1159H19.8724M11.5391 32.4492H28.2057M42.8307 11.6159C42.8307 17.368 38.1641 22.0326 32.4036 22.0326C31.0348 22.0339 29.6792 21.7655 28.4142 21.2426C27.1492 20.7198 25.9996 19.9527 25.0312 18.9853C24.0628 18.0179 23.2946 16.8691 22.7705 15.6046C22.2463 14.3401 21.9766 12.9847 21.9766 11.6159C21.9766 5.86172 26.6453 1.19922 32.4036 1.19922C33.7725 1.19786 35.1281 1.46628 36.3931 1.98915C37.6581 2.51203 38.8077 3.2791 39.7761 4.24651C40.7445 5.21392 41.5127 6.36271 42.0368 7.6272C42.5609 8.89168 42.8307 10.2471 42.8307 11.6159Z" stroke="#C8C8C8" stroke-width="1.5" stroke-linecap="round" stroke-linejoin="round"/>
</svg>
