<svg width="44" height="40" viewBox="0 0 44 40" fill="none" xmlns="http://www.w3.org/2000/svg">
    <path d="M24.0846 26.25C19.3096 38.75 5.94297 26.25 1.16797 38.75M29.293 26.25H32.42C37.3305 26.25 39.7867 26.25 41.3117 24.725C42.8367 23.2 42.8367 20.7437 42.8367 15.8333V11.6667C42.8367 6.75625 42.8367 4.3 41.3117 2.775C39.7867 1.25 37.3346 1.25 32.42 1.25H24.0867C19.1763 1.25 16.7221 1.25 15.1971 2.775C13.9055 4.06667 13.7055 6.02708 13.6763 9.58333" stroke="#C8C8C8" stroke-width="1.5" stroke-linecap="round" stroke-linejoin="round"/>
    <path d="M12.6263 26.2507C15.5028 26.2507 17.8346 23.9188 17.8346 21.0423C17.8346 18.1658 15.5028 15.834 12.6263 15.834C9.74982 15.834 7.41797 18.1658 7.41797 21.0423C7.41797 23.9188 9.74982 26.2507 12.6263 26.2507Z" stroke="#C8C8C8" stroke-width="1.5" stroke-linecap="round" stroke-linejoin="round"/>
    <path d="M22 9.58398H34.5M34.5 17.9173H28.25" stroke="#C8C8C8" stroke-width="1.5" stroke-linecap="round" stroke-linejoin="round"/>
</svg>
