<svg width="20" height="20" viewBox="0 0 20 20" fill="none" xmlns="http://www.w3.org/2000/svg">
    <path d="M15.8005 24.075C15.9297 21.4583 16.2922 19.775 17.3214 18.4854C17.6622 18.0579 18.0501 17.67 18.4776 17.3292C19.7693 16.3 21.4505 15.9375 24.0672 15.8083M32.4047 15.75C36.263 15.8 38.4734 16.05 40.0797 17.3292C40.5075 17.6722 40.8922 18.0576 41.2339 18.4854C42.8255 20.4812 42.8255 23.4146 42.8255 29.2854C42.8255 35.1563 42.8255 38.0917 41.2339 40.0875C40.8922 40.5153 40.5075 40.9 40.0797 41.2417C38.0839 42.8333 35.1484 42.8333 29.2776 42.8333C23.4068 42.8333 20.4734 42.8333 18.4776 41.2417C18.0502 40.9015 17.6623 40.5143 17.3214 40.0875C16.0422 38.4833 15.7922 36.2687 15.7422 32.4125" stroke="#C8C8C8" stroke-width="1.5" stroke-linecap="round" stroke-linejoin="round"/>
    <path d="M28.1891 19.9243C28.0599 22.541 27.6974 24.2244 26.6682 25.5139C26.3252 25.9417 25.9398 26.3271 25.512 26.6702C24.2203 27.6994 22.5391 28.0619 19.9224 28.191M11.5849 28.2494C7.72865 28.1994 5.51615 27.9494 3.9099 26.6702C3.48308 26.3292 3.09592 25.9414 2.75573 25.5139C1.16406 23.5202 1.16406 20.5848 1.16406 14.7139C1.16406 8.8431 1.16406 5.90768 2.75573 3.91185C3.0974 3.48407 3.48212 3.09935 3.9099 2.75768C5.90573 1.16602 8.84115 1.16602 14.712 1.16602C20.5828 1.16602 23.5161 1.16602 25.512 2.75768C25.9398 3.09935 26.3252 3.48407 26.6682 3.91185C27.9474 5.51602 28.1974 7.7306 28.2474 11.5868" stroke="#C8C8C8" stroke-width="1.5" stroke-linecap="round" stroke-linejoin="round"/>
</svg>
