<svg width="20" height="20" viewBox="0 0 20 20" fill="none" xmlns="http://www.w3.org/2000/svg">
    <path d="M10.75 30.1562H29.5C31.1576 30.1562 32.7473 29.4978 33.9194 28.3257C35.0915 27.1536 35.75 25.5639 35.75 23.9062C35.75 22.2486 35.0915 20.6589 33.9194 19.4868C32.7473 18.3147 31.1576 17.6563 29.5 17.6562H7.625C5.9674 17.6562 4.37768 16.9978 3.20558 15.8257C2.03348 14.6536 1.375 13.0639 1.375 11.4062C1.375 9.74865 2.03348 8.15893 3.20558 6.98683C4.37768 5.81473 5.9674 5.15625 7.625 5.15625H17.7562M6.0625 26.25C7.3057 26.25 8.49799 26.7439 9.37706 27.6229C10.2561 28.502 10.75 29.6943 10.75 30.9375C10.75 32.1807 10.2561 33.373 9.37706 34.2521C8.49799 35.1311 7.3057 35.625 6.0625 35.625C4.8193 35.625 3.62701 35.1311 2.74794 34.2521C1.86886 33.373 1.375 32.1807 1.375 30.9375C1.375 29.6943 1.86886 28.502 2.74794 27.6229C3.62701 26.7439 4.8193 26.25 6.0625 26.25ZM23.25 1.25C23.8656 1.25 24.4751 1.37125 25.0438 1.60682C25.6125 1.84238 26.1293 2.18766 26.5646 2.62294C26.9998 3.05821 27.3451 3.57496 27.5807 4.14367C27.8163 4.71239 27.9375 5.32193 27.9375 5.9375C27.9375 6.55307 27.8163 7.16261 27.5807 7.73133C27.3451 8.30004 26.9998 8.81679 26.5646 9.25206C26.1293 9.68734 25.6125 10.0326 25.0438 10.2682C24.4751 10.5038 23.8656 10.625 23.25 10.625C22.0068 10.625 20.8145 10.1311 19.9354 9.25206C19.0564 8.37299 18.5625 7.1807 18.5625 5.9375C18.5625 4.6943 19.0564 3.50201 19.9354 2.62294C20.8145 1.74386 22.0068 1.25 23.25 1.25Z" stroke="#C8C8C8" stroke-width="1.5"/>
</svg>
