<svg width="20" height="20" viewBox="0 0 20 " fill="none" xmlns="http://www.w3.org/2000/svg">
    <path d="M32.5859 17.041C32.5859 22.416 29.9401 26.5514 25.9151 29.2744C24.9776 29.9077 24.5089 30.2244 24.2776 30.5869C24.0484 30.9452 23.9672 31.4202 23.8109 32.366L23.6859 33.1014C23.4109 34.7639 23.2714 35.5952 22.688 36.0889C22.1047 36.5827 21.263 36.5827 19.5776 36.5827H14.1359C12.4505 36.5827 11.6089 36.5827 11.0255 36.0889C10.4422 35.5952 10.3047 34.7639 10.0255 33.1014L9.90469 32.366C9.74635 31.4223 9.66927 30.9494 9.4401 30.591C9.21094 30.2327 8.74011 29.9119 7.80052 29.2702C3.81927 26.5473 1.33594 22.4139 1.33594 17.041C1.33594 8.27644 8.33177 1.16602 16.9609 1.16602C18.0107 1.16491 19.0578 1.27102 20.0859 1.48269" stroke="#C8C8C8" stroke-width="1.5" stroke-linecap="round" stroke-linejoin="round"/>
    <path d="M21.1302 36.5827V38.666C21.1302 40.6306 21.1302 41.6118 20.5198 42.2223C19.9094 42.8327 18.9281 42.8327 16.9635 42.8327C14.999 42.8327 14.0177 42.8327 13.4073 42.2223C12.7969 41.6118 12.7969 40.6306 12.7969 38.666V36.5827M27.3802 1.16602L27.9177 2.6181C28.6219 4.52227 28.974 5.47435 29.6677 6.1681C30.3635 6.86393 31.3156 7.21602 33.2198 7.92018L34.6719 8.45768L33.2198 8.99518C31.3156 9.69935 30.3635 10.0514 29.6698 10.7452C28.974 11.441 28.6219 12.3931 27.9177 14.2973L27.3802 15.7493L26.8427 14.2973C26.1385 12.3931 25.7865 11.441 25.0927 10.7473C24.3969 10.0514 23.4448 9.69935 21.5406 8.99518L20.0885 8.45768L21.5406 7.92018C23.4448 7.21602 24.3969 6.86393 25.0906 6.17018C25.7865 5.47435 26.1385 4.52227 26.8427 2.6181L27.3802 1.16602Z" stroke="#C8C8C8" stroke-width="1.5" stroke-linecap="round" stroke-linejoin="round"/>
</svg>
