<svg width="40" height="40" viewBox="0 0 40 40" fill="none" xmlns="http://www.w3.org/2000/svg">
    <path d="M5.85801 5.85719C13.6681 -1.9524 26.3319 -1.9524 34.142 5.85719C41.9527 13.6674 41.9527 26.3315 34.142 34.1423C26.3319 41.9525 13.6681 41.9525 5.85801 34.1423C-1.95267 26.3315 -1.95267 13.6674 5.85801 5.85719ZM6.74177 6.74096C3.97425 9.50854 2.25486 12.9255 1.57861 16.5006C7.54678 16.045 13.6687 18.0875 18.2325 22.6508C19.0344 23.4527 19.7556 24.3046 20.4019 25.1921C21.9563 24.0283 23.4475 22.7383 24.8619 21.3245C25.2169 20.9695 25.5532 20.602 25.8919 20.237C24.7763 18.7707 23.5494 17.3606 22.2094 16.0218C17.7862 11.598 12.6037 8.40664 7.08553 6.41346C6.97052 6.52283 6.85427 6.62784 6.74177 6.74096ZM8.14178 5.47406C13.5912 7.54161 18.705 10.7492 23.0931 15.1381C24.4163 16.4612 25.6338 17.8506 26.7463 19.2944C28.1363 17.7056 29.3882 16.0381 30.492 14.3037C27.7838 10.7511 26.3463 6.54346 26.1769 2.29209C20.1613 0.198286 13.2924 1.25894 8.14178 5.47406ZM33.2582 6.74096C31.5363 5.01842 29.5613 3.70713 27.4551 2.79586C27.7019 6.45096 28.9469 10.0492 31.1913 13.1499C32.2713 11.3236 33.1964 9.43416 33.9714 7.49536C33.7414 7.23973 33.5045 6.98785 33.2582 6.74096ZM34.8795 8.59602C34.0726 10.5236 33.1182 12.4005 32.0157 14.2143C32.4063 14.6831 32.8189 15.1399 33.2582 15.58C34.8995 17.2213 36.7576 18.5094 38.737 19.4601C38.6276 15.615 37.3414 11.8005 34.8795 8.59602ZM38.7308 20.837C36.4258 19.8082 34.2651 18.3544 32.3745 16.4644C32.007 16.0962 31.6607 15.715 31.3257 15.3274C30.1951 17.0637 28.9207 18.7319 27.5107 20.3232C30.3001 24.1827 32.3557 28.4066 33.6914 32.8029C36.8564 29.4222 38.5376 25.1577 38.7308 20.837ZM32.6801 33.808C31.417 29.3897 29.4107 25.139 26.6463 21.2614C26.3469 21.5782 26.0557 21.8995 25.7457 22.2095C24.2763 23.6796 22.7256 25.014 21.1088 26.2234C23.44 29.8597 24.545 34.0523 24.4394 38.2193C27.4288 37.4937 30.2732 36.0218 32.6801 33.808ZM6.74177 33.2579C11.2143 37.7312 17.3844 39.4669 23.1788 38.475C23.3369 34.4823 22.315 30.4529 20.0956 26.9603C15.955 29.8691 11.4106 31.9473 6.6924 33.2067C6.70927 33.2229 6.7249 33.2417 6.74177 33.2579ZM19.3881 25.9259C18.7794 25.0902 18.1025 24.2889 17.3487 23.5345C12.9799 19.1663 7.09428 17.2538 1.38736 17.7725C0.786728 22.8202 2.23486 28.0622 5.73301 32.1579C10.5437 30.9566 15.18 28.8828 19.3881 25.9259Z"
          fill="white"/>
</svg>
