<svg width="20" height="24" viewBox="0 0 20 24" fill="none" xmlns="http://www.w3.org/2000/svg">
    <path d="M10.2041 0.945679C11.0579 0.945871 11.8861 1.26829 12.5029 1.85486L18.2324 7.30212C18.8508 7.88995 19.2078 8.69717 19.208 9.54919V21.0258C19.208 21.5787 18.976 22.0996 18.5801 22.476C18.1857 22.8507 17.6601 23.054 17.1211 23.0541H2.87891C2.33992 23.054 1.81428 22.8507 1.41992 22.476C1.02398 22.0996 0.792048 21.5787 0.791992 21.0258V2.974C0.792093 2.42109 1.02401 1.90016 1.41992 1.5238C1.81426 1.14908 2.33998 0.945751 2.87891 0.945679H10.2041ZM2.87891 2.74646C2.78884 2.74653 2.71081 2.78049 2.66016 2.82849C2.61114 2.87509 2.59287 2.92868 2.59277 2.974V21.0258C2.59283 21.0711 2.61108 21.1246 2.66016 21.1713C2.7108 21.2193 2.78876 21.2532 2.87891 21.2533H17.1211C17.2112 21.2532 17.2892 21.2193 17.3398 21.1713C17.3889 21.1246 17.4081 21.0711 17.4082 21.0258V10.6439H11.1865C10.6476 10.6438 10.1219 10.4406 9.72754 10.0658C9.33164 9.68943 9.09969 9.16851 9.09961 8.6156V2.74646H2.87891ZM15 17.1508C15.4694 17.1508 15.8496 17.5309 15.8496 18.0004C15.8494 18.4696 15.4693 18.85 15 18.85H5C4.53068 18.85 4.15059 18.4696 4.15039 18.0004C4.15039 17.5309 4.53056 17.1508 5 17.1508H15ZM12 13.1508C12.4694 13.1508 12.8496 13.5309 12.8496 14.0004C12.8494 14.4696 12.4693 14.85 12 14.85H5C4.53068 14.85 4.15059 14.4696 4.15039 14.0004C4.15039 13.5309 4.53056 13.1508 5 13.1508H12ZM10.9004 8.6156C10.9005 8.66092 10.9188 8.7145 10.9678 8.76111C11.0184 8.80914 11.0964 8.84307 11.1865 8.84314H17.1895C17.1336 8.75934 17.0686 8.6794 16.9922 8.60681L11.2627 3.15955H11.2617C11.1558 3.05885 11.0336 2.97461 10.9004 2.90857V8.6156Z" fill="#0061D9"/>
</svg>
