<svg width="20" height="18" viewBox="0 0 20 18" fill="none" xmlns="http://www.w3.org/2000/svg">
    <path fill-rule="evenodd" clip-rule="evenodd" d="M14.4344 3.82755C14.796 3.38821 15.3823 3.38821 15.7439 3.82755L19.9998 8.99805L15.7439 14.1685C15.3823 14.6079 14.796 14.6079 14.4344 14.1685C14.0728 13.7292 14.0728 13.0169 14.4344 12.5776L16.4547 10.123H6.80667C6.29526 10.123 5.88068 9.61937 5.88068 8.99805C5.88068 8.37673 6.29526 7.87305 6.80667 7.87305H16.4547L14.4344 5.41854C14.0728 4.9792 14.0728 4.26689 14.4344 3.82755Z" fill="white"/>
    <path fill-rule="evenodd" clip-rule="evenodd" d="M0 3.375C0 1.51104 1.24374 0 2.77798 0H10.1859C11.7202 0 12.9639 1.51104 12.9639 3.375V5.625C12.9639 6.24632 12.5493 6.75 12.0379 6.75C11.5265 6.75 11.1119 6.24632 11.1119 5.625V3.375C11.1119 2.75368 10.6973 2.25 10.1859 2.25H2.77798C2.26657 2.25 1.85199 2.75368 1.85199 3.375V14.625C1.85199 15.2463 2.26657 15.75 2.77798 15.75H10.1859C10.6973 15.75 11.1119 15.2463 11.1119 14.625V12.375C11.1119 11.7537 11.5265 11.25 12.0379 11.25C12.5493 11.25 12.9639 11.7537 12.9639 12.375V14.625C12.9639 16.489 11.7202 18 10.1859 18H2.77798C1.24374 18 0 16.489 0 14.625V3.375Z" fill="white"/>
</svg>
