<svg width="169" height="23" viewBox="0 0 169 23" fill="none" xmlns="http://www.w3.org/2000/svg">
    <path d="M13.5331 22.5635L4.22706 7.58832V22.5635H0V0.268614H4.81688L13.4676 14.6058V0.268614H17.7274V22.5635H13.5331Z"
          fill="#0061D9"/>
    <path d="M27.3881 19.3401C29.9877 19.3401 31.2875 17.6613 31.2875 14.3037C31.2875 10.9684 29.9877 9.30073 27.3881 9.30073C24.7885 9.30073 23.4887 10.9684 23.4887 14.3037C23.4887 17.6613 24.7885 19.3401 27.3881 19.3401ZM27.3881 23C26.0774 23 24.9086 22.7873 23.8819 22.362C22.8552 21.9367 21.9814 21.3436 21.2605 20.5825C20.5614 19.8214 20.0262 18.9037 19.6549 17.8292C19.2835 16.7547 19.0978 15.5796 19.0978 14.3037C19.0978 13.0054 19.2835 11.819 19.6549 10.7445C20.0481 9.67007 20.6051 8.75231 21.326 7.99124C22.0469 7.23017 22.9098 6.64818 23.9147 6.24526C24.9414 5.81995 26.0992 5.6073 27.3881 5.6073C28.6551 5.6073 29.7911 5.81995 30.7959 6.24526C31.8008 6.64818 32.6528 7.23017 33.3518 7.99124C34.0727 8.72993 34.6189 9.6365 34.9902 10.7109C35.3835 11.7854 35.5801 12.983 35.5801 14.3037C35.5801 15.6243 35.3835 16.8219 34.9902 17.8964C34.6189 18.9484 34.0727 19.855 33.3518 20.6161C32.6528 21.3771 31.7899 21.9703 30.7632 22.3956C29.7583 22.7985 28.6333 23 27.3881 23Z"
          fill="#0061D9"/>
    <path d="M37.1222 22.5635V6.0438H41.1199V8.02482C41.4694 7.46521 41.8299 7.02871 42.2012 6.71533C42.5944 6.40195 42.9877 6.16691 43.3809 6.01022C43.7959 5.83114 44.211 5.71922 44.6261 5.67445C45.0411 5.62969 45.4671 5.6073 45.904 5.6073H46.4611V10.073C46.0678 10.0058 45.6746 9.97226 45.2814 9.97226C42.6818 9.97226 41.382 11.3041 41.382 13.9679V22.5635H37.1222Z"
          fill="#0061D9"/>
    <path d="M66.5573 22.5635V12.5577C66.5573 11.5504 66.3279 10.7333 65.8691 10.1066C65.4104 9.47981 64.7987 9.16642 64.0341 9.16642C63.2477 9.16642 62.5923 9.50219 62.0681 10.1737C61.5656 10.8453 61.3144 11.6847 61.3144 12.692V22.5635H57.0546V12.6248C57.0546 11.9533 57.0109 11.4049 56.9235 10.9796C56.8361 10.5543 56.6832 10.2185 56.4647 9.97226C56.2681 9.72604 56.006 9.55815 55.6783 9.46861C55.3506 9.35669 54.9574 9.30073 54.4987 9.30073C52.7729 9.30073 51.91 10.3752 51.91 12.5241V22.5635H47.6502V6.0438H51.6479V8.46132C52.194 7.36448 52.8494 6.6146 53.6139 6.21168C54.3785 5.80876 55.296 5.6073 56.3664 5.6073C56.9126 5.6073 57.3932 5.65207 57.8082 5.74161C58.2451 5.83114 58.6274 5.98784 58.9551 6.21168C59.3046 6.41314 59.6323 6.68175 59.9381 7.01752C60.244 7.35329 60.5498 7.75621 60.8556 8.22628C61.2926 7.30852 61.8715 6.64818 62.5923 6.24526C63.3132 5.81995 64.1871 5.6073 65.2138 5.6073C66.0221 5.6073 66.7648 5.7528 67.442 6.0438C68.1192 6.31241 68.6981 6.70414 69.1787 7.21898C69.6593 7.71144 70.0307 8.29343 70.2928 8.96496C70.5768 9.6365 70.7188 10.3528 70.7188 11.1139V22.5635H66.5573Z"
          fill="#0061D9"/>
    <path d="M82.1517 14.4715C81.9333 14.6954 81.6165 14.8745 81.2015 15.0088C80.7864 15.1431 80.1856 15.2886 79.3992 15.4453C78.1759 15.6915 77.3348 16.0049 76.8761 16.3854C76.4173 16.7659 76.188 17.3144 76.188 18.0307C76.188 19.2618 76.8761 19.8774 78.2523 19.8774C78.7985 19.8774 79.3009 19.7878 79.7597 19.6088C80.2403 19.4073 80.6444 19.1499 80.9721 18.8365C81.3216 18.5007 81.5947 18.1202 81.7913 17.6949C82.0097 17.2472 82.1189 16.7771 82.1189 16.2847L82.1517 14.4715ZM82.4466 22.5635C82.3156 22.1382 82.2282 21.6457 82.1845 21.0861C81.682 21.6681 81.0158 22.1382 80.1856 22.4964C79.3555 22.8321 78.3943 23 77.3021 23C75.4452 23 74.0799 22.5859 73.2061 21.7577C72.3541 20.9071 71.9281 19.8102 71.9281 18.4672C71.9281 17.2808 72.1138 16.3406 72.4852 15.6467C72.8566 14.9304 73.3699 14.3708 74.0253 13.9679C74.6806 13.565 75.4561 13.274 76.3518 13.0949C77.2693 12.8934 78.2633 12.7144 79.3337 12.5577C80.4041 12.401 81.125 12.1995 81.4964 11.9533C81.8677 11.6847 82.0534 11.2594 82.0534 10.6774C82.0534 10.1401 81.8022 9.72604 81.2998 9.43504C80.8192 9.12166 80.1638 8.96496 79.3337 8.96496C78.3506 8.96496 77.6407 9.18881 77.2038 9.6365C76.7887 10.0842 76.5266 10.6774 76.4173 11.4161H72.4524C72.4743 10.5655 72.6053 9.782 72.8456 9.06569C73.1078 8.34939 73.5119 7.73382 74.058 7.21898C74.626 6.70414 75.3578 6.31241 76.2535 6.0438C77.1492 5.7528 78.2414 5.6073 79.5303 5.6073C80.7973 5.6073 81.8677 5.7528 82.7415 6.0438C83.6372 6.33479 84.3472 6.7601 84.8715 7.31971C85.4176 7.85694 85.8108 8.53966 86.0511 9.36788C86.2914 10.1737 86.4116 11.0915 86.4116 12.1212V22.5635H82.4466Z"
          fill="#0061D9"/>
    <path d="M95.925 19.4409C96.9954 19.4409 97.8692 18.982 98.5464 18.0642C99.2236 17.1241 99.5622 15.9153 99.5622 14.438C99.5622 11.0355 98.3389 9.33431 95.8922 9.33431C93.5111 9.33431 92.3205 11.1251 92.3205 14.7066C92.3205 16.1168 92.6591 17.2584 93.3363 18.1314C94.0354 19.0044 94.8983 19.4409 95.925 19.4409ZM88.2901 22.5635V0H92.4844V8.1927C93.6859 6.4691 95.2806 5.6073 97.2685 5.6073C98.3171 5.6073 99.2455 5.81995 100.054 6.24526C100.884 6.64818 101.583 7.23017 102.151 7.99124C102.719 8.75231 103.145 9.65888 103.429 10.7109C103.735 11.7406 103.888 12.8822 103.888 14.1358C103.888 15.5236 103.713 16.7659 103.363 17.8628C103.014 18.9596 102.533 19.8886 101.922 20.6496C101.31 21.4107 100.567 21.9927 99.6933 22.3956C98.8413 22.7985 97.9129 23 96.908 23C94.8983 23 93.4019 22.183 92.4188 20.5489L92.3861 22.5635H88.2901Z"
          fill="#0061D9"/>
    <path d="M113.404 19.3401C116.003 19.3401 117.303 17.6613 117.303 14.3037C117.303 10.9684 116.003 9.30073 113.404 9.30073C110.804 9.30073 109.504 10.9684 109.504 14.3037C109.504 17.6613 110.804 19.3401 113.404 19.3401ZM113.404 23C112.093 23 110.924 22.7873 109.898 22.362C108.871 21.9367 107.997 21.3436 107.276 20.5825C106.577 19.8214 106.042 18.9037 105.671 17.8292C105.299 16.7547 105.114 15.5796 105.114 14.3037C105.114 13.0054 105.299 11.819 105.671 10.7445C106.064 9.67007 106.621 8.75231 107.342 7.99124C108.063 7.23017 108.926 6.64818 109.93 6.24526C110.957 5.81995 112.115 5.6073 113.404 5.6073C114.671 5.6073 115.807 5.81995 116.812 6.24526C117.817 6.64818 118.669 7.23017 119.368 7.99124C120.089 8.72993 120.635 9.6365 121.006 10.7109C121.399 11.7854 121.596 12.983 121.596 14.3037C121.596 15.6243 121.399 16.8219 121.006 17.8964C120.635 18.9484 120.089 19.855 119.368 20.6161C118.669 21.3771 117.806 21.9703 116.779 22.3956C115.774 22.7985 114.649 23 113.404 23Z"
          fill="#0061D9"/>
    <path d="M132.28 11.6847H136.245V16.3854C136.245 17.2584 136.114 18.0978 135.852 18.9037C135.612 19.6871 135.218 20.3922 134.672 21.019C134.148 21.6234 133.471 22.1046 132.641 22.4628C131.832 22.8209 130.86 23 129.724 23C128.545 23 127.54 22.8209 126.71 22.4628C125.88 22.1046 125.191 21.6234 124.645 21.019C124.121 20.4146 123.739 19.7095 123.498 18.9037C123.258 18.0978 123.138 17.2472 123.138 16.3518V1.5781H127.332V6.0438H136.245V9.13285H127.332V15.9153C127.332 16.9674 127.518 17.7844 127.889 18.3664C128.283 18.926 128.916 19.2058 129.79 19.2058C130.642 19.2058 131.264 18.926 131.658 18.3664C132.073 17.8068 132.28 17.0122 132.28 15.9825V11.6847Z"
          fill="#0061D9"/>
    <path d="M137.376 22.5635V18.0307H141.93V22.5635H137.376Z" fill="#0061D9"/>
    <path d="M153.187 5.27153H153.154L150.369 14.1358H155.907L153.187 5.27153ZM158.594 22.5635L157.217 17.9635H149.189L147.649 22.5635H142.832L150.598 0.268614H155.874L163.542 22.5635H158.594Z"
          fill="#6F00F8"/>
    <path d="M164.74 22.5635V6.0438H169V22.5635H164.74ZM164.74 4.06278V0H169V4.06278H164.74Z" fill="#6F00F8"/>
</svg>
