<svg width="25" height="24" viewBox="0 0 25 24" fill="none" xmlns="http://www.w3.org/2000/svg">
    <path d="M24.6428 17.9686V21.5816C24.6442 21.917 24.5753 22.249 24.4407 22.5563C24.3061 22.8636 24.1086 23.1395 23.861 23.3662C23.6133 23.593 23.3209 23.7656 23.0026 23.8731C22.6842 23.9805 22.3469 24.0204 22.0122 23.9902C18.2989 23.5875 14.7321 22.3212 11.5982 20.293C8.68261 18.4439 6.21067 15.9769 4.35796 13.067C2.31859 9.92519 1.04944 6.34809 0.653349 2.62554C0.623194 2.29251 0.662852 1.95685 0.769798 1.63995C0.876743 1.32305 1.04863 1.03185 1.27452 0.784879C1.50042 0.537911 1.77536 0.34059 2.08185 0.20548C2.38833 0.0703704 2.71965 0.000431667 3.05471 0.000116762H6.67485C7.26047 -0.00563562 7.82822 0.201333 8.27225 0.582446C8.71628 0.963559 9.00631 1.49281 9.08827 2.07155C9.24107 3.22778 9.52444 4.36305 9.93298 5.4557C10.0953 5.88675 10.1305 6.35522 10.0342 6.8056C9.93798 7.25597 9.71439 7.66938 9.38995 7.99682L7.85743 9.52631C9.57525 12.5414 12.0766 15.0378 15.0977 16.7522L16.6302 15.2228C16.9583 14.899 17.3725 14.6758 17.8238 14.5798C18.2751 14.4837 18.7445 14.5188 19.1764 14.6808C20.2712 15.0885 21.4087 15.3713 22.5673 15.5238C23.1534 15.6064 23.6888 15.901 24.0715 16.3518C24.4542 16.8026 24.6575 17.378 24.6428 17.9686Z" fill="#F5F9FB"/>
</svg>
