<svg width="29" height="24" viewBox="0 0 29 24" fill="none" xmlns="http://www.w3.org/2000/svg">
    <path d="M10.7743 22.5475C9.90472 22.5475 9.98377 22.2312 9.7466 21.4407L7.2168 13.1397L26.5856 1.75562" fill="#C8DAEA"/>
    <path d="M10.7744 22.5474C11.3278 22.5474 11.644 22.2312 12.0393 21.915L15.5969 18.5156L11.1697 15.8276" fill="#A9C9DD"/>
    <path d="M11.1698 15.8277L21.8425 23.6543C22.9493 24.3658 23.8979 23.9705 24.2142 22.5475L28.5623 2.15093C28.9575 0.411687 27.8508 -0.378877 26.6649 0.174518L1.28779 9.97752C-0.372392 10.61 -0.372392 11.6377 0.971568 12.033L7.53325 14.0884L22.554 4.52262C23.2655 4.12734 23.8979 4.28545 23.4236 4.83885" fill="#F6FBFE"/>
</svg>
