<svg width="25" height="24" viewBox="0 0 25 24" fill="none" xmlns="http://www.w3.org/2000/svg">
    <path d="M18.4023 13.7907C18.3556 13.7683 16.6059 12.9067 16.295 12.7948C16.1681 12.7492 16.0321 12.7047 15.8875 12.7047C15.6512 12.7047 15.4527 12.8225 15.2981 13.0537C15.1234 13.3135 14.5943 13.932 14.4308 14.1168C14.4094 14.1411 14.3803 14.1703 14.3628 14.1703C14.3472 14.1703 14.0764 14.0588 13.9944 14.0232C12.1175 13.2079 10.6929 11.2473 10.4975 10.9166C10.4696 10.8691 10.4684 10.8475 10.4682 10.8475C10.4751 10.8224 10.5382 10.7591 10.5708 10.7264C10.6661 10.6322 10.7693 10.5079 10.8692 10.3876C10.9165 10.3307 10.9639 10.2736 11.0104 10.2199C11.1553 10.0512 11.2198 9.92034 11.2947 9.7687L11.3338 9.68992C11.5165 9.32704 11.3605 9.02081 11.3101 8.92192C11.2687 8.83917 10.5299 7.05616 10.4514 6.86883C10.2625 6.41681 10.0129 6.20634 9.66608 6.20634C9.6339 6.20634 9.66608 6.20634 9.53112 6.21203C9.36678 6.21896 8.47185 6.33678 8.07616 6.58621C7.65655 6.85075 6.94668 7.69403 6.94668 9.17704C6.94668 10.5118 7.79369 11.772 8.15735 12.2513C8.16639 12.2634 8.18299 12.2879 8.20707 12.3231C9.59977 14.3571 11.336 15.8644 13.096 16.5675C14.7904 17.2443 15.5928 17.3225 16.0489 17.3225H16.049C16.2407 17.3225 16.3941 17.3075 16.5295 17.2942L16.6153 17.286C17.2007 17.2341 18.487 16.5676 18.7796 15.7544C19.0101 15.114 19.0709 14.4143 18.9175 14.1603C18.8125 13.9876 18.6315 13.9008 18.4023 13.7907Z" fill="white"/>
    <path d="M12.8566 0C6.35663 0 1.06852 5.24836 1.06852 11.6995C1.06852 13.786 1.62691 15.8284 2.68471 17.6159L0.660056 23.5883C0.622342 23.6996 0.650394 23.8227 0.732757 23.9066C0.792212 23.9673 0.872861 24 0.955225 24C0.986784 24 1.01858 23.9952 1.04959 23.9854L7.27713 22.0064C8.98128 22.917 10.9074 23.3976 12.8567 23.3976C19.356 23.3977 24.6436 18.1498 24.6436 11.6995C24.6436 5.24836 19.356 0 12.8566 0ZM12.8566 20.9606C11.0224 20.9606 9.24583 20.4309 7.71871 19.4289C7.66736 19.3951 7.60775 19.3778 7.54775 19.3778C7.51604 19.3778 7.48424 19.3826 7.45331 19.3925L4.3337 20.3841L5.34076 17.413C5.37333 17.3169 5.35705 17.2108 5.29705 17.1288C4.13414 15.5398 3.51941 13.6625 3.51941 11.6995C3.51941 6.59221 7.70804 2.43709 12.8565 2.43709C18.0044 2.43709 22.1925 6.59221 22.1925 11.6995C22.1926 16.8061 18.0045 20.9606 12.8566 20.9606Z" fill="white"/>
</svg>
