<svg width="149" height="148" viewBox="0 0 149 148" fill="none" xmlns="http://www.w3.org/2000/svg">
    <circle cx="74.1515" cy="73.9996" r="43.4" fill="url(#paint0_linear_142_1044)" fill-opacity="0.4" stroke="#078EFA"
            stroke-width="2"/>
    <path class="path_anim1" d="M129.206 93.5011C132.472 84.8157 133.61 75.4957 132.524 66.3127C131.438 57.1298 128.16 48.348 122.962 40.6945C117.764 33.041 110.794 26.736 102.631 22.3014C94.4675 17.8667 85.345 15.4301 76.0186 15.1933C66.6922 14.9564 57.4301 16.9261 48.9993 20.9392C40.5685 24.9524 33.2114 30.8936 27.5372 38.271C21.863 45.6483 18.0349 54.2496 16.3698 63.3627C14.7047 72.4758 15.2505 81.8385 17.9621 90.6757"
          stroke="#D9EEFE" stroke-opacity="0.6" stroke-width="1.2"/>
    <circle class="circle_anim1" cx="129.329" cy="93.4633" r="2.4" transform="rotate(72.8613 129.329 93.4633)" fill="#078EFA"/>
    <circle class="circle2_anim1" cx="17.8093" cy="90.1806" r="2.4" transform="rotate(72.8613 17.8093 90.1806)" fill="#078EFA"/>
    <defs>
        <linearGradient id="paint0_linear_142_1044" x1="32.9782" y1="25.7573" x2="137.993" y2="69.7924"
                        gradientUnits="userSpaceOnUse">
            <stop stop-color="white" stop-opacity="0.4"/>
            <stop offset="1" stop-color="white" stop-opacity="0.2"/>
        </linearGradient>
    </defs>
</svg>
