<svg width="212" height="55" viewBox="0 0 212 55" fill="none" xmlns="http://www.w3.org/2000/svg">
    <g filter="url(#filter0_d_144_1208)">
        <rect x="38" width="148.5" height="29.7" rx="8" fill="url(#paint0_linear_144_1208)"
              shape-rendering="crispEdges"/>
        <rect x="38" width="148.5" height="29.7" rx="8" fill="url(#paint1_linear_144_1208)" fill-opacity="0.4"/>
        <path d="M85.4564 7.7478L87.2094 13.1734H92.8824L88.2929 16.5266L90.0459 21.9522L85.4564 18.599L80.8669 21.9522L82.6199 16.5266L78.0304 13.1734H83.7034L85.4564 7.7478Z"
              fill="#96A2AC"/>
        <path d="M106.278 7.7478L108.031 13.1734H113.704L109.115 16.5266L110.868 21.9522L106.278 18.599L101.689 21.9522L103.442 16.5266L98.8522 13.1734H104.525L106.278 7.7478Z"
              fill="#96A2AC"/>
        <path d="M127.1 7.7478L128.853 13.1734H134.526L129.936 16.5266L131.689 21.9522L127.1 18.599L122.51 21.9522L124.263 16.5266L119.674 13.1734H125.347L127.1 7.7478Z"
              fill="#96A2AC"/>
        <path d="M168.744 7.7478L170.497 13.1734H176.17L171.58 16.5266L173.333 21.9522L168.744 18.599L164.154 21.9522L165.907 16.5266L161.318 13.1734H166.99L168.744 7.7478Z"
              fill="#96A2AC"/>
        <path d="M147.922 7.7478L149.675 13.1734H155.348L150.758 16.5266L152.511 21.9522L147.922 18.599L143.332 21.9522L145.085 16.5266L140.496 13.1734H146.169L147.922 7.7478Z"
              fill="#96A2AC"/>
        <circle opacity="0.4" cx="58.0152" cy="14.8499" r="9.68478" fill="#96A2AC"/>
        <path opacity="0.4"
              d="M58.0153 24.5347C60.5839 24.5347 63.0472 23.5144 64.8635 21.6981C64.8635 21.6981 63.8261 17.2173 58.0153 17.2173C52.2045 17.2173 51.1671 21.6981 51.1671 21.6981C52.9834 23.5144 55.4467 24.5347 58.0153 24.5347Z"
              fill="#D9EEFE"/>
        <circle opacity="0.4" cx="58.0152" cy="12.6978" r="3.22826" fill="#D9EEFE"/>
    </g>
    <defs>
        <filter id="filter0_d_144_1208" x="0.229347" y="-37.7707" width="211.451" height="92.6511"
                filterUnits="userSpaceOnUse" color-interpolation-filters="sRGB">
            <feFlood flood-opacity="0" result="BackgroundImageFix"/>
            <feColorMatrix in="SourceAlpha" type="matrix" values="0 0 0 0 0 0 0 0 0 0 0 0 0 0 0 0 0 0 127 0"
                           result="hardAlpha"/>
            <feOffset dx="-6.29511" dy="-6.29511"/>
            <feGaussianBlur stdDeviation="15.7378"/>
            <feComposite in2="hardAlpha" operator="out"/>
            <feColorMatrix type="matrix" values="0 0 0 0 1 0 0 0 0 1 0 0 0 0 1 0 0 0 0.05 0"/>
            <feBlend mode="normal" in2="BackgroundImageFix" result="effect1_dropShadow_144_1208"/>
            <feBlend mode="normal" in="SourceGraphic" in2="effect1_dropShadow_144_1208" result="shape"/>
        </filter>
        <linearGradient id="paint0_linear_144_1208" x1="43.3961" y1="-1.04711" x2="70.4915" y2="68.673"
                        gradientUnits="userSpaceOnUse">
            <stop stop-color="#323232"/>
            <stop offset="1" stop-color="#1A1A1A"/>
        </linearGradient>
        <linearGradient id="paint1_linear_144_1208" x1="43.3961" y1="-1.28509" x2="81.6653" y2="78.9511"
                        gradientUnits="userSpaceOnUse">
            <stop stop-color="white" stop-opacity="0.4"/>
            <stop offset="1" stop-color="white" stop-opacity="0.2"/>
        </linearGradient>
    </defs>
</svg>
