<svg width="40" height="40" viewBox="0 0 40 40" fill="none" xmlns="http://www.w3.org/2000/svg">
    <path d="M33 4L22.024 11.4746C21.6508 11.7311 21.1555 11.8885 20.627 11.9183C20.0986 11.9481 19.5719 11.8485 19.1419 11.6373L14.2139 9.24746C13.8103 9.05988 13.3278 8.9673 12.8398 8.98382C12.3518 9.00035 11.8852 9.12507 11.5109 9.33898L5 13" stroke="white" stroke-width="1.5" stroke-linecap="round" stroke-linejoin="round"/>
    <path d="M27 3H34V10" stroke="white" stroke-width="1.5" stroke-linecap="round" stroke-linejoin="round"/>
    <path d="M2.5 31.084H15C15 31.084 16.25 31.084 16.25 32.334V36.5007C16.25 36.5007 16.25 37.7507 15 37.7507H2.5C2.5 37.7507 1.25 37.7507 1.25 36.5007V32.334C1.25 32.334 1.25 31.084 2.5 31.084Z" stroke="white" stroke-width="1.5" stroke-linecap="round" stroke-linejoin="round"/>
    <path d="M22.5 31.084H35C35 31.084 36.25 31.084 36.25 32.334V36.5007C36.25 36.5007 36.25 37.7507 35 37.7507H22.5C22.5 37.7507 21.25 37.7507 21.25 36.5007V32.334C21.25 32.334 21.25 31.084 22.5 31.084Z" stroke="white" stroke-width="1.5" stroke-linecap="round" stroke-linejoin="round"/>
    <path d="M25 24.416H37.5C37.5 24.416 38.75 24.416 38.75 25.666V29.8327C38.75 29.8327 38.75 31.0827 37.5 31.0827H25C25 31.0827 23.75 31.0827 23.75 29.8327V25.666C23.75 25.666 23.75 24.416 25 24.416Z" stroke="white" stroke-width="1.5" stroke-linecap="round" stroke-linejoin="round"/>
    <path d="M5 24.416H17.5C17.5 24.416 18.75 24.416 18.75 25.666V29.8327C18.75 29.8327 18.75 31.0827 17.5 31.0827H5C5 31.0827 3.75 31.0827 3.75 29.8327V25.666C3.75 25.666 3.75 24.416 5 24.416Z" stroke="white" stroke-width="1.5" stroke-linecap="round" stroke-linejoin="round"/>
    <path d="M2.5 17.75H15C15 17.75 16.25 17.75 16.25 19V23.1667C16.25 23.1667 16.25 24.4167 15 24.4167H2.5C2.5 24.4167 1.25 24.4167 1.25 23.1667V19C1.25 19 1.25 17.75 2.5 17.75Z" stroke="white" stroke-width="1.5" stroke-linecap="round" stroke-linejoin="round"/>
</svg>
