<svg width="40" height="40" viewBox="0 0 40 40" fill="none" xmlns="http://www.w3.org/2000/svg">
    <g clip-path="url(#clip0_258_3891)">
        <path d="M20 16.252C9.645 16.252 1.25 12.8936 1.25 8.75196C1.25 4.61029 9.645 1.25195 20 1.25195C30.355 1.25195 38.75 4.60862 38.75 8.75196C38.75 10.7203 36.8533 12.512 33.75 13.8503" stroke="white" stroke-width="1.5" stroke-linecap="round" stroke-linejoin="round"/>
        <path d="M38.75 17.502V8.75195" stroke="white" stroke-width="2" stroke-linecap="round" stroke-linejoin="round"/>
        <path d="M1.25 8.75195V18.752C1.25 22.0203 6.48 24.802 13.775 25.8287" stroke="white" stroke-width="1.5" stroke-linecap="round" stroke-linejoin="round"/>
        <path d="M1.25 18.752V28.752C1.25 32.0053 6.42833 34.7736 13.6667 35.8136" stroke="white" stroke-width="1.5" stroke-linecap="round" stroke-linejoin="round"/>
        <path d="M18.75 28.752C18.75 30.0651 19.0087 31.3655 19.5112 32.5788C20.0138 33.792 20.7503 34.8945 21.679 35.823C22.6075 36.7516 23.71 37.4881 24.9232 37.9908C26.1365 38.4933 27.4368 38.752 28.75 38.752C30.0632 38.752 31.3637 38.4933 32.5768 37.9908C33.7902 37.4881 34.8925 36.7516 35.821 35.823C36.7497 34.8945 37.4863 33.792 37.9888 32.5788C38.4913 31.3655 38.75 30.0651 38.75 28.752C38.75 27.4386 38.4913 26.1383 37.9888 24.9251C37.4863 23.7118 36.7497 22.6095 35.821 21.6808C34.8925 20.7523 33.7902 20.0156 32.5768 19.5131C31.3637 19.0106 30.0632 18.752 28.75 18.752C27.4368 18.752 26.1365 19.0106 24.9232 19.5131C23.71 20.0156 22.6075 20.7523 21.679 21.6808C20.7503 22.6095 20.0138 23.7118 19.5112 24.9251C19.0087 26.1383 18.75 27.4386 18.75 28.752Z" stroke="white" stroke-width="1.5" stroke-linecap="round" stroke-linejoin="round"/>
        <path d="M34.7462 25.1749C34.7837 24.7624 34.4797 24.3976 34.0671 24.3601L27.3449 23.7491C26.9323 23.7116 26.5675 24.0156 26.53 24.4281C26.4926 24.8406 26.7966 25.2054 27.2091 25.2429L33.1844 25.786L32.6413 31.7614C32.6038 32.1739 32.9078 32.5387 33.3203 32.5762C33.7328 32.6137 34.0976 32.3097 34.1351 31.8972L34.7462 25.1749ZM21.5191 34.5311C21.2009 34.7962 21.1579 35.2692 21.4231 35.5874C21.6883 35.9056 22.1612 35.9486 22.4794 35.6834L21.5191 34.5311ZM33.9993 25.107L33.5191 24.5309L21.5191 34.5311L21.9993 35.1072L22.4794 35.6834L34.4794 25.6832L33.9993 25.107Z" fill="white"/>
    </g>
    <defs>
        <clipPath id="clip0_258_3891">
            <rect width="40" height="40" fill="white"/>
        </clipPath>
    </defs>
</svg>
