<svg width="40" height="40" viewBox="0 0 40 40" fill="none" xmlns="http://www.w3.org/2000/svg">
    <g clip-path="url(#clip0_258_3752)">
        <path d="M36.25 26.25V31.25" stroke="white" stroke-width="1.5" stroke-linecap="round" stroke-linejoin="round"/>
        <path d="M3.75 31.25V13.75C3.75 13.087 4.0134 12.4511 4.48223 11.9822C4.95107 11.5134 5.58697 11.25 6.25 11.25H12.5" stroke="white" stroke-width="1.5" stroke-linecap="round" stroke-linejoin="round"/>
        <path d="M24.3067 31.25C23.8728 32.0093 23.246 32.6403 22.4897 33.0793C21.7333 33.5183 20.8745 33.7495 20 33.7495C19.1255 33.7495 18.2667 33.5183 17.5103 33.0793C16.754 32.6403 16.1271 32.0093 15.6933 31.25H1.25V33.75C1.25 35.076 1.77678 36.3478 2.71447 37.2855C3.65215 38.2232 4.92392 38.75 6.25 38.75H33.75C35.076 38.75 36.3478 38.2232 37.2855 37.2855C38.2232 36.3478 38.75 35.076 38.75 33.75V31.25H24.3067Z" stroke="white" stroke-width="1.5" stroke-linecap="round" stroke-linejoin="round"/>
        <path d="M31.2603 1.69398C29.2992 1.10797 27.2105 1.10194 25.2462 1.67663C23.2817 2.25133 21.5257 3.3822 20.1897 4.93278C18.8537 6.48337 17.995 8.3874 17.717 10.4152C17.4392 12.443 17.754 14.5078 18.6237 16.3607L15.1836 23.3423L23.0553 21.1923C23.7497 21.5902 24.4872 21.9072 25.2537 22.1373C27.9488 22.8827 30.8292 22.5382 33.2727 21.1785C35.7163 19.8188 37.5273 17.5528 38.315 14.8697C39.1025 12.1864 38.8035 9.30113 37.4823 6.83645C36.1613 4.37175 33.9242 2.52533 31.2537 1.69565L31.2603 1.69398Z" stroke="white" stroke-width="1.5" stroke-linecap="round" stroke-linejoin="round"/>
        <path d="M25.1719 9.4375C25.1719 8.81943 25.3552 8.21525 25.6985 7.70135C26.0419 7.18745 26.53 6.7869 27.101 6.55038C27.672 6.31386 28.3004 6.25196 28.9065 6.37255C29.5127 6.49313 30.0695 6.79076 30.5065 7.2278C30.9437 7.66483 31.2412 8.22166 31.3619 8.82785C31.4824 9.43403 31.4205 10.0624 31.184 10.6334C30.9475 11.2044 30.5469 11.6925 30.033 12.0358C29.5192 12.3792 28.9149 12.5625 28.2969 12.5625" stroke="white" stroke-width="1.5" stroke-linecap="round" stroke-linejoin="round"/>
        <path d="M28.2969 17.5626C27.9517 17.5626 27.6719 17.2828 27.6719 16.9376C27.6719 16.5923 27.9517 16.3125 28.2969 16.3125" stroke="white" stroke-width="1.5"/>
        <path d="M28.2969 17.5626C28.642 17.5626 28.9219 17.2828 28.9219 16.9376C28.9219 16.5923 28.642 16.3125 28.2969 16.3125" stroke="white" stroke-width="1.5"/>
    </g>
    <defs>
        <clipPath id="clip0_258_3752">
            <rect width="40" height="40" fill="white"/>
        </clipPath>
    </defs>
</svg>
