<svg width="40" height="40" viewBox="0 0 40 40" fill="none" xmlns="http://www.w3.org/2000/svg">
    <path d="M36 17L25.15 7.9C24.7811 7.58769 24.2914 7.39612 23.769 7.35981C23.2467 7.32348 22.7261 7.4448 22.301 7.70191L17.4295 10.6114C17.0306 10.8398 16.5536 10.9525 16.0712 10.9324C15.5889 10.9123 15.1276 10.7604 14.7576 10.5L5 4" stroke="white" stroke-width="1.5" stroke-linecap="round" stroke-linejoin="round"/>
    <path d="M26.25 17.75H36.25V7.75" stroke="white" stroke-width="1.5" stroke-linecap="round" stroke-linejoin="round"/>
    <path d="M3.5 30.084H16C16 30.084 17.25 30.084 17.25 31.334V35.5007C17.25 35.5007 17.25 36.7507 16 36.7507H3.5C3.5 36.7507 2.25 36.7507 2.25 35.5007V31.334C2.25 31.334 2.25 30.084 3.5 30.084Z" stroke="white" stroke-width="1.5" stroke-linecap="round" stroke-linejoin="round"/>
    <path d="M23.5 30.084H36C36 30.084 37.25 30.084 37.25 31.334V35.5007C37.25 35.5007 37.25 36.7507 36 36.7507H23.5C23.5 36.7507 22.25 36.7507 22.25 35.5007V31.334C22.25 31.334 22.25 30.084 23.5 30.084Z" stroke="white" stroke-width="1.5" stroke-linecap="round" stroke-linejoin="round"/>
    <path d="M6 23.416H18.5C18.5 23.416 19.75 23.416 19.75 24.666V28.8327C19.75 28.8327 19.75 30.0827 18.5 30.0827H6C6 30.0827 4.75 30.0827 4.75 28.8327V24.666C4.75 24.666 4.75 23.416 6 23.416Z" stroke="white" stroke-width="1.5" stroke-linecap="round" stroke-linejoin="round"/>
</svg>
