<svg width="40" height="40" viewBox="0 0 40 40" fill="none" xmlns="http://www.w3.org/2000/svg">
    <path d="M14.3448 3.03906H4.92188V8.69297" stroke="white" stroke-width="1.5" stroke-linecap="round" stroke-linejoin="round"/>
    <path d="M4.92188 18.1152V21.8846" stroke="white" stroke-width="1.5" stroke-linecap="round" stroke-linejoin="round"/>
    <path d="M35.0781 18.1152V21.8846" stroke="white" stroke-width="1.5" stroke-linecap="round" stroke-linejoin="round"/>
    <path d="M25.6562 3.03906H35.0792V8.69297" stroke="white" stroke-width="1.5" stroke-linecap="round" stroke-linejoin="round"/>
    <path d="M14.3448 36.9625H4.92188V31.3086" stroke="white" stroke-width="1.5" stroke-linecap="round" stroke-linejoin="round"/>
    <path d="M25.6562 36.9625H35.0792V31.3086" stroke="white" stroke-width="1.5" stroke-linecap="round" stroke-linejoin="round"/>
    <path d="M17.5038 17.1282L19.2801 13.3626C19.5079 12.8791 20.1666 12.8791 20.3945 13.3626L22.1707 17.1282L26.1423 17.7359C26.6518 17.8138 26.8548 18.4693 26.486 18.8455L23.6126 21.7746L24.2907 25.9126C24.3779 26.444 23.8449 26.8491 23.3888 26.5982L19.8373 24.6435L16.2857 26.5982C15.8298 26.8491 15.2966 26.4441 15.3838 25.9126L16.062 21.7746L13.1885 18.8455C12.8196 18.4693 13.0227 17.8138 13.5323 17.7359L17.5038 17.1282Z" stroke="white" stroke-width="1.5" stroke-linecap="round" stroke-linejoin="round"/>
</svg>
