<svg width="40" height="40" viewBox="0 0 40 40" fill="none" xmlns="http://www.w3.org/2000/svg">
    <g clip-path="url(#clip0_258_3817)">
        <path d="M1.25 35C1.25 35.4925 1.347 35.9802 1.53545 36.435C1.7239 36.89 2.00013 37.3035 2.34835 37.6517C2.69657 37.9998 3.10997 38.2762 3.56493 38.4645C4.0199 38.653 4.50755 38.75 5 38.75C5.49245 38.75 5.9801 38.653 6.43507 38.4645C6.89003 38.2762 7.30343 37.9998 7.65165 37.6517C7.99987 37.3035 8.2761 36.89 8.46455 36.435C8.653 35.9802 8.75 35.4925 8.75 35C8.75 34.5075 8.653 34.0198 8.46455 33.565C8.2761 33.11 7.99987 32.6965 7.65165 32.3483C7.30343 32.0002 6.89003 31.7238 6.43507 31.5355C5.9801 31.347 5.49245 31.25 5 31.25C4.50755 31.25 4.0199 31.347 3.56493 31.5355C3.10997 31.7238 2.69657 32.0002 2.34835 32.3483C2.00013 32.6965 1.7239 33.11 1.53545 33.565C1.347 34.0198 1.25 34.5075 1.25 35Z" stroke="white" stroke-width="1.5" stroke-linecap="round" stroke-linejoin="round"/>
        <path d="M16.25 35C16.25 35.9945 16.6451 36.9483 17.3483 37.6517C18.0517 38.3548 19.0055 38.75 20 38.75C20.9945 38.75 21.9483 38.3548 22.6517 37.6517C23.3548 36.9483 23.75 35.9945 23.75 35C23.75 34.0055 23.3548 33.0517 22.6517 32.3483C21.9483 31.6452 20.9945 31.25 20 31.25C19.0055 31.25 18.0517 31.6452 17.3483 32.3483C16.6451 33.0517 16.25 34.0055 16.25 35Z" stroke="white" stroke-width="1.5" stroke-linecap="round" stroke-linejoin="round"/>
        <path d="M31.25 35C31.25 35.9945 31.6452 36.9483 32.3483 37.6517C33.0517 38.3548 34.0055 38.75 35 38.75C35.9945 38.75 36.9483 38.3548 37.6517 37.6517C38.3548 36.9483 38.75 35.9945 38.75 35C38.75 34.0055 38.3548 33.0517 37.6517 32.3483C36.9483 31.6452 35.9945 31.25 35 31.25C34.0055 31.25 33.0517 31.6452 32.3483 32.3483C31.6452 33.0517 31.25 34.0055 31.25 35Z" stroke="white" stroke-width="1.5" stroke-linecap="round" stroke-linejoin="round"/>
        <path d="M15 10H25C25 10 27.5 10 27.5 12.5V18.75C27.5 18.75 27.5 21.25 25 21.25H15C15 21.25 12.5 21.25 12.5 18.75V12.5C12.5 12.5 12.5 10 15 10Z" stroke="white" stroke-width="1.5" stroke-linecap="round" stroke-linejoin="round"/>
        <path d="M20 31.25V21.25" stroke="white" stroke-width="1.5" stroke-linecap="round" stroke-linejoin="round"/>
        <path d="M5 31.25V26.25H35V31.25" stroke="white" stroke-width="1.5" stroke-linecap="round" stroke-linejoin="round"/>
        <path d="M15 10V6.25C15 4.92392 15.5268 3.65215 16.4645 2.71447C17.4022 1.77678 18.674 1.25 20 1.25C21.326 1.25 22.5978 1.77678 23.5355 2.71447C24.4732 3.65215 25 4.92392 25 6.25V10" stroke="white" stroke-width="1.5" stroke-linecap="round" stroke-linejoin="round"/>
    </g>
    <defs>
        <clipPath id="clip0_258_3817">
            <rect width="40" height="40" fill="white"/>
        </clipPath>
    </defs>
</svg>
