<svg width="40" height="40" viewBox="0 0 40 40" fill="none" xmlns="http://www.w3.org/2000/svg">
    <g clip-path="url(#clip0_258_3863)">
        <path d="M17.5789 4.06107C17.8848 4.40057 18.2584 4.67202 18.6759 4.85782C19.0934 5.04362 19.5453 5.13964 20.0023 5.13964C20.4591 5.13964 20.911 5.04362 21.3285 4.85782C21.746 4.67202 22.1196 4.40057 22.4256 4.06107L23.9923 2.32607C24.444 1.82532 25.0396 1.47673 25.6975 1.32821C26.3553 1.17969 27.043 1.23852 27.6661 1.49662C28.2891 1.75472 28.8169 2.19942 29.1771 2.76964C29.5373 3.33984 29.7119 4.00757 29.6773 4.68107L29.5573 7.0144C29.534 7.47075 29.6068 7.92687 29.7709 8.35334C29.9349 8.77979 30.1866 9.16707 30.5098 9.49017C30.833 9.81327 31.2201 10.065 31.6466 10.2291C32.0731 10.3932 32.5293 10.4659 32.9856 10.4427L35.319 10.3244C35.9916 10.2912 36.6581 10.4669 37.227 10.8274C37.796 11.1878 38.2395 11.7154 38.497 12.3379C38.7543 12.9603 38.8128 13.647 38.6646 14.304C38.5163 14.9611 38.1686 15.5561 37.669 16.0077L35.9323 17.5761C35.5931 17.8823 35.3221 18.2561 35.1366 18.6734C34.9511 19.0909 34.8553 19.5426 34.8553 19.9994C34.8553 20.4563 34.9511 20.9079 35.1366 21.3253C35.3221 21.7428 35.5931 22.1166 35.9323 22.4228L37.669 23.9894C38.1696 24.4411 38.5183 25.0369 38.6668 25.6948C38.8153 26.3526 38.7565 27.0403 38.4983 27.6633C38.2403 28.2864 37.7955 28.8143 37.2253 29.1743C36.6551 29.5344 35.9874 29.7091 35.3139 29.6744L32.9806 29.5544C32.5243 29.5313 32.0683 29.6039 31.642 29.7679C31.2156 29.9319 30.8285 30.1834 30.5055 30.5064C30.1823 30.8293 29.9306 31.2164 29.7665 31.6426C29.6023 32.0689 29.5293 32.5249 29.5523 32.9811L29.6723 35.3144C29.7049 35.9866 29.5291 36.6523 29.1689 37.2208C28.8088 37.7891 28.2818 38.2323 27.6601 38.4898C27.0383 38.7471 26.3523 38.8061 25.6956 38.6588C25.0391 38.5113 24.4441 38.1646 23.9923 37.6661L22.4256 35.9311C22.1194 35.5921 21.7456 35.3211 21.3281 35.1354C20.9108 34.9499 20.459 34.8541 20.0023 34.8541C19.5455 34.8541 19.0938 34.9499 18.6763 35.1354C18.2588 35.3211 17.8849 35.5921 17.5789 35.9311L16.0122 37.6661C15.5601 38.1631 14.9658 38.5084 14.3102 38.6551C13.6546 38.8019 12.9697 38.7428 12.3489 38.4861C11.7282 38.2293 11.2017 37.7871 10.8414 37.2201C10.4811 36.6531 10.3044 35.9888 10.3355 35.3178L10.4555 32.9844C10.4796 32.5271 10.4071 32.0698 10.2429 31.6423C10.0786 31.2148 9.82615 30.8266 9.502 30.5031C9.17785 30.1796 8.78923 29.9279 8.36142 29.7644C7.9336 29.6011 7.47617 29.5294 7.01887 29.5544L4.68553 29.6744C4.01247 29.7079 3.34548 29.5324 2.77612 29.1719C2.20675 28.8114 1.7629 28.2836 1.50545 27.6608C1.248 27.0379 1.18958 26.3508 1.3382 25.6934C1.48682 25.0361 1.8352 24.4409 2.33553 23.9894L4.0722 22.4228C4.41125 22.1166 4.68227 21.7428 4.86778 21.3253C5.05328 20.9079 5.14913 20.4563 5.14913 19.9994C5.14913 19.5426 5.05328 19.0909 4.86778 18.6734C4.68227 18.2561 4.41125 17.8823 4.0722 17.5761L2.33553 16.0077C1.83925 15.5555 1.49443 14.9613 1.34807 14.3061C1.20171 13.6508 1.26092 12.9663 1.51765 12.3459C1.77437 11.7255 2.21612 11.1994 2.7827 10.8391C3.34928 10.4789 4.01317 10.302 4.68387 10.3327L7.0172 10.4511C7.4744 10.4751 7.93155 10.4027 8.35892 10.2385C8.7863 10.0743 9.17433 9.82205 9.49783 9.49809C9.82133 9.17412 10.073 8.7857 10.2366 8.35809C10.4002 7.93047 10.4719 7.47324 10.4472 7.01607L10.3355 4.68107C10.3044 4.00999 10.4811 3.34564 10.8414 2.77864C11.2017 2.21164 11.7282 1.76959 12.3489 1.51279C12.9697 1.25598 13.6546 1.19692 14.3102 1.34366C14.9658 1.4904 15.5601 1.83579 16.0122 2.33274L17.5789 4.06107Z" stroke="white" stroke-width="1.5" stroke-linecap="round" stroke-linejoin="round"/>
        <path d="M10 24.75L12.5267 20.25L17.755 24.0533L22.0233 17.5367L25.9967 21.25L30 15" stroke="white" stroke-width="1.5" stroke-linecap="round" stroke-linejoin="round"/>
    </g>
    <defs>
        <clipPath id="clip0_258_3863">
            <rect width="40" height="40" fill="white"/>
        </clipPath>
    </defs>
</svg>
