<svg width="610" height="54" viewBox="0 0 610 54" fill="none" xmlns="http://www.w3.org/2000/svg">
<path d="M4.74506 28.9355H30.3486L25.6035 54H0L4.74506 28.9355Z" fill="#39AB37"/>
<path d="M39.8387 0H65.4423L60.6972 25.0645H35.0937L39.8387 0Z" fill="#39AB37"/>
<path d="M34.3028 28.9355H59.9064L55.1613 54H29.5578L34.3028 28.9355Z" fill="#39AB37"/>
<path d="M69.3965 0H95L90.255 25.0645H64.6514L69.3965 0Z" fill="#39AB37"/>
<path d="M63.8606 28.9355H89.4641L84.719 54H59.1155L63.8606 28.9355Z" fill="#39AB37"/>
<path d="M10.281 0H35.8845L31.1394 25.0645H5.5359L10.281 0Z" fill="#39AB37"/>
<path d="M159.719 37.3125C159.719 40.0208 159.062 42.375 157.75 44.375C156.438 46.375 154.521 47.9167 152 49C149.5 50.0833 146.458 50.625 142.875 50.625C141.292 50.625 139.74 50.5208 138.219 50.3125C136.719 50.1042 135.271 49.8021 133.875 49.4062C132.5 48.9896 131.188 48.4792 129.938 47.875V38.875C132.104 39.8333 134.354 40.6979 136.688 41.4688C139.021 42.2396 141.333 42.625 143.625 42.625C145.208 42.625 146.479 42.4167 147.438 42C148.417 41.5833 149.125 41.0104 149.562 40.2812C150 39.5521 150.219 38.7188 150.219 37.7812C150.219 36.6354 149.833 35.6562 149.062 34.8438C148.292 34.0312 147.229 33.2708 145.875 32.5625C144.542 31.8542 143.031 31.0938 141.344 30.2812C140.281 29.7812 139.125 29.1771 137.875 28.4688C136.625 27.7396 135.438 26.8542 134.312 25.8125C133.188 24.7708 132.26 23.5104 131.531 22.0312C130.823 20.5312 130.469 18.7396 130.469 16.6562C130.469 13.9271 131.094 11.5938 132.344 9.65625C133.594 7.71875 135.375 6.23958 137.688 5.21875C140.021 4.17708 142.771 3.65625 145.938 3.65625C148.312 3.65625 150.573 3.9375 152.719 4.5C154.885 5.04167 157.146 5.83333 159.5 6.875L156.375 14.4062C154.271 13.5521 152.385 12.8958 150.719 12.4375C149.052 11.9583 147.354 11.7188 145.625 11.7188C144.417 11.7188 143.385 11.9167 142.531 12.3125C141.677 12.6875 141.031 13.2292 140.594 13.9375C140.156 14.625 139.938 15.4271 139.938 16.3438C139.938 17.4271 140.25 18.3438 140.875 19.0938C141.521 19.8229 142.479 20.5312 143.75 21.2188C145.042 21.9062 146.646 22.7083 148.562 23.625C150.896 24.7292 152.885 25.8854 154.531 27.0938C156.198 28.2812 157.479 29.6875 158.375 31.3125C159.271 32.9167 159.719 34.9167 159.719 37.3125ZM209.469 27.0938C209.469 30.6146 209.031 33.8229 208.156 36.7188C207.281 39.5938 205.948 42.0729 204.156 44.1562C202.385 46.2396 200.135 47.8438 197.406 48.9688C194.677 50.0729 191.448 50.625 187.719 50.625C183.99 50.625 180.76 50.0729 178.031 48.9688C175.302 47.8438 173.042 46.2396 171.25 44.1562C169.479 42.0729 168.156 39.5833 167.281 36.6875C166.406 33.7917 165.969 30.5729 165.969 27.0312C165.969 22.3021 166.74 18.1875 168.281 14.6875C169.844 11.1667 172.24 8.4375 175.469 6.5C178.698 4.5625 182.802 3.59375 187.781 3.59375C192.74 3.59375 196.812 4.5625 200 6.5C203.208 8.4375 205.583 11.1667 207.125 14.6875C208.688 18.2083 209.469 22.3438 209.469 27.0938ZM176.125 27.0938C176.125 30.2812 176.521 33.0312 177.312 35.3438C178.125 37.6354 179.385 39.4062 181.094 40.6562C182.802 41.8854 185.01 42.5 187.719 42.5C190.469 42.5 192.698 41.8854 194.406 40.6562C196.115 39.4062 197.354 37.6354 198.125 35.3438C198.917 33.0312 199.312 30.2812 199.312 27.0938C199.312 22.3021 198.417 18.5312 196.625 15.7812C194.833 13.0312 191.885 11.6562 187.781 11.6562C185.052 11.6562 182.823 12.2812 181.094 13.5312C179.385 14.7604 178.125 16.5312 177.312 18.8438C176.521 21.1354 176.125 23.8854 176.125 27.0938ZM218.938 50V4.3125H228.625V42H247.156V50H218.938ZM283.094 50L279.781 39.125H263.125L259.812 50H249.375L265.5 4.125H277.344L293.531 50H283.094ZM277.469 31L274.156 20.375C273.948 19.6667 273.667 18.7604 273.312 17.6562C272.979 16.5312 272.635 15.3958 272.281 14.25C271.948 13.0833 271.677 12.0729 271.469 11.2188C271.26 12.0729 270.969 13.1354 270.594 14.4062C270.24 15.6562 269.896 16.8438 269.562 17.9688C269.229 19.0938 268.99 19.8958 268.844 20.375L265.562 31H277.469ZM312.625 4.3125C316.771 4.3125 320.188 4.8125 322.875 5.8125C325.583 6.8125 327.594 8.32292 328.906 10.3438C330.219 12.3646 330.875 14.9167 330.875 18C330.875 20.0833 330.479 21.9062 329.688 23.4688C328.896 25.0312 327.854 26.3542 326.562 27.4375C325.271 28.5208 323.875 29.4062 322.375 30.0938L335.812 50H325.062L314.156 32.4688H309V50H299.312V4.3125H312.625ZM311.938 12.25H309V24.5938H312.125C315.333 24.5938 317.625 24.0625 319 23C320.396 21.9167 321.094 20.3333 321.094 18.25C321.094 16.0833 320.344 14.5417 318.844 13.625C317.365 12.7083 315.062 12.25 311.938 12.25ZM337.719 36.75V28.9375H354.5V36.75H337.719ZM362.188 4.3125H376.406C382.49 4.3125 387.094 5.16667 390.219 6.875C393.344 8.58333 394.906 11.5833 394.906 15.875C394.906 17.6042 394.625 19.1667 394.062 20.5625C393.521 21.9583 392.729 23.1042 391.688 24C390.646 24.8958 389.375 25.4792 387.875 25.75V26.0625C389.396 26.375 390.771 26.9167 392 27.6875C393.229 28.4375 394.208 29.5417 394.938 31C395.688 32.4375 396.062 34.3542 396.062 36.75C396.062 39.5208 395.385 41.8958 394.031 43.875C392.677 45.8542 390.74 47.375 388.219 48.4375C385.719 49.4792 382.74 50 379.281 50H362.188V4.3125ZM371.875 22.4062H377.5C380.312 22.4062 382.26 21.9688 383.344 21.0938C384.427 20.1979 384.969 18.8854 384.969 17.1562C384.969 15.4062 384.323 14.1562 383.031 13.4062C381.76 12.6354 379.74 12.25 376.969 12.25H371.875V22.4062ZM371.875 30.0938V42H378.188C381.104 42 383.135 41.4375 384.281 40.3125C385.427 39.1875 386 37.6771 386 35.7812C386 34.6562 385.75 33.6667 385.25 32.8125C384.75 31.9583 383.906 31.2917 382.719 30.8125C381.552 30.3333 379.938 30.0938 377.875 30.0938H371.875ZM431.5 50H405.188V4.3125H431.5V12.25H414.875V22.2812H430.344V30.2188H414.875V42H431.5V50ZM468.031 37.3125C468.031 40.0208 467.375 42.375 466.062 44.375C464.75 46.375 462.833 47.9167 460.312 49C457.812 50.0833 454.771 50.625 451.188 50.625C449.604 50.625 448.052 50.5208 446.531 50.3125C445.031 50.1042 443.583 49.8021 442.188 49.4062C440.812 48.9896 439.5 48.4792 438.25 47.875V38.875C440.417 39.8333 442.667 40.6979 445 41.4688C447.333 42.2396 449.646 42.625 451.938 42.625C453.521 42.625 454.792 42.4167 455.75 42C456.729 41.5833 457.438 41.0104 457.875 40.2812C458.312 39.5521 458.531 38.7188 458.531 37.7812C458.531 36.6354 458.146 35.6562 457.375 34.8438C456.604 34.0312 455.542 33.2708 454.188 32.5625C452.854 31.8542 451.344 31.0938 449.656 30.2812C448.594 29.7812 447.438 29.1771 446.188 28.4688C444.938 27.7396 443.75 26.8542 442.625 25.8125C441.5 24.7708 440.573 23.5104 439.844 22.0312C439.135 20.5312 438.781 18.7396 438.781 16.6562C438.781 13.9271 439.406 11.5938 440.656 9.65625C441.906 7.71875 443.688 6.23958 446 5.21875C448.333 4.17708 451.083 3.65625 454.25 3.65625C456.625 3.65625 458.885 3.9375 461.031 4.5C463.198 5.04167 465.458 5.83333 467.812 6.875L464.688 14.4062C462.583 13.5521 460.698 12.8958 459.031 12.4375C457.365 11.9583 455.667 11.7188 453.938 11.7188C452.729 11.7188 451.698 11.9167 450.844 12.3125C449.99 12.6875 449.344 13.2292 448.906 13.9375C448.469 14.625 448.25 15.4271 448.25 16.3438C448.25 17.4271 448.562 18.3438 449.188 19.0938C449.833 19.8229 450.792 20.5312 452.062 21.2188C453.354 21.9062 454.958 22.7083 456.875 23.625C459.208 24.7292 461.198 25.8854 462.844 27.0938C464.51 28.2812 465.792 29.6875 466.688 31.3125C467.583 32.9167 468.031 34.9167 468.031 37.3125ZM493.938 50H484.25V12.375H471.844V4.3125H506.344V12.375H493.938V50ZM511.281 45.5312C511.281 43.5729 511.812 42.1979 512.875 41.4062C513.958 40.6146 515.26 40.2188 516.781 40.2188C518.26 40.2188 519.531 40.6146 520.594 41.4062C521.677 42.1979 522.219 43.5729 522.219 45.5312C522.219 47.4062 521.677 48.7604 520.594 49.5938C519.531 50.4271 518.26 50.8438 516.781 50.8438C515.26 50.8438 513.958 50.4271 512.875 49.5938C511.812 48.7604 511.281 47.4062 511.281 45.5312ZM569.531 26.7188C569.531 31.8646 568.542 36.1667 566.562 39.625C564.604 43.0625 561.76 45.6562 558.031 47.4062C554.302 49.1354 549.812 50 544.562 50H531.625V4.3125H545.969C550.76 4.3125 554.917 5.16667 558.438 6.875C561.958 8.5625 564.688 11.0729 566.625 14.4062C568.562 17.7188 569.531 21.8229 569.531 26.7188ZM559.469 26.9688C559.469 23.5938 558.969 20.8229 557.969 18.6562C556.99 16.4688 555.531 14.8542 553.594 13.8125C551.677 12.7708 549.302 12.25 546.469 12.25H541.312V42H545.469C550.198 42 553.708 40.7396 556 38.2188C558.312 35.6979 559.469 31.9479 559.469 26.9688ZM605.312 50H579V4.3125H605.312V12.25H588.688V22.2812H604.156V30.2188H588.688V42H605.312V50Z" fill="url(#paint0_linear_246_518)"/>
<defs>
<linearGradient id="paint0_linear_246_518" x1="127" y1="25" x2="610" y2="25" gradientUnits="userSpaceOnUse">
<stop stop-color="#39AB37"/>
<stop offset="1" stop-color="#2E8B2D"/>
</linearGradient>
</defs>
</svg>
