<svg width="16.000000" height="16.000000" viewBox="0 0 16 16" fill="none" xmlns="http://www.w3.org/2000/svg"
     xmlns:xlink="http://www.w3.org/1999/xlink">
    <defs>
        <clipPath id="clip545_494">
            <rect id="Календарь" width="16.000000" height="16.000000" fill="white" fill-opacity="0"/>
        </clipPath>
    </defs>
    <g clip-path="url(#clip545_494)">
        <path id="path"
              d="M1.66 6.33L14.33 6.33L14.33 13.33C14.33 13.7 14.03 14 13.66 14L2.33 14C1.96 14 1.66 13.7 1.66 13.33L1.66 6.33Z"
              fill="#000000" fill-opacity="0" fill-rule="nonzero"/>
        <path id="path"
              d="M14.33 6.33L14.33 13.33C14.33 13.7 14.03 14 13.66 14L2.33 14C1.96 14 1.66 13.7 1.66 13.33L1.66 6.33L14.33 6.33Z"
              stroke="#D68166" stroke-opacity="1.000000" stroke-width="1.500000" stroke-linejoin="round"/>
        <path id="path"
              d="M1.66 3C1.66 2.63 1.96 2.33 2.33 2.33L13.66 2.33C14.03 2.33 14.33 2.63 14.33 3L14.33 6.33L1.66 6.33L1.66 3Z"
              fill="#000000" fill-opacity="0" fill-rule="nonzero"/>
        <path id="path"
              d="M2.33 2.33L13.66 2.33C14.03 2.33 14.33 2.63 14.33 3L14.33 6.33L1.66 6.33L1.66 3C1.66 2.63 1.96 2.33 2.33 2.33Z"
              stroke="#D68166" stroke-opacity="1.000000" stroke-width="1.500000" stroke-linejoin="round"/>
        <path id="path"
              d="M4.58 1.35L4.58 0.58L6.08 0.58L6.08 1.35L4.58 1.35ZM6.08 3.97L6.08 4.75L4.58 4.75L4.58 3.97L6.08 3.97Z"
              fill="#000000" fill-opacity="0" fill-rule="nonzero"/>
        <path id="path" d="M5.33 1.33L5.33 4" stroke="#D68166" stroke-opacity="1.000000" stroke-width="1.500000"
              stroke-linejoin="round" stroke-linecap="square"/>
        <path id="path"
              d="M9.91 1.35L9.91 0.58L11.41 0.58L11.41 1.35L9.91 1.35ZM11.41 3.97L11.41 4.75L9.91 4.75L9.91 3.97L11.41 3.97Z"
              fill="#000000" fill-opacity="0" fill-rule="nonzero"/>
        <path id="path" d="M10.66 1.33L10.66 4" stroke="#D68166" stroke-opacity="1.000000" stroke-width="1.500000"
              stroke-linejoin="round" stroke-linecap="square"/>
        <path id="path"
              d="M9.35 11.83L8.83 11.83L8.83 10.83L9.35 10.83L9.35 11.83ZM11.31 10.83L11.83 10.83L11.83 11.83L11.31 11.83L11.31 10.83Z"
              fill="#000000" fill-opacity="0" fill-rule="nonzero"/>
        <path id="path" d="M9.33 11.33L11.33 11.33" stroke="#D68166" stroke-opacity="1.000000" stroke-width="1.000000"
              stroke-linejoin="round" stroke-linecap="square"/>
        <path id="path"
              d="M4.68 11.83L4.16 11.83L4.16 10.83L4.68 10.83L4.68 11.83ZM6.64 10.83L7.16 10.83L7.16 11.83L6.64 11.83L6.64 10.83Z"
              fill="#000000" fill-opacity="0" fill-rule="nonzero"/>
        <path id="path" d="M4.66 11.33L6.66 11.33" stroke="#D68166" stroke-opacity="1.000000" stroke-width="1.000000"
              stroke-linejoin="round" stroke-linecap="square"/>
        <path id="path"
              d="M9.35 9.16L8.83 9.16L8.83 8.16L9.35 8.16L9.35 9.16ZM11.31 8.16L11.83 8.16L11.83 9.16L11.31 9.16L11.31 8.16Z"
              fill="#000000" fill-opacity="0" fill-rule="nonzero"/>
        <path id="path" d="M9.33 8.66L11.33 8.66" stroke="#D68166" stroke-opacity="1.000000" stroke-width="1.000000"
              stroke-linejoin="round" stroke-linecap="square"/>
        <path id="path"
              d="M4.68 9.16L4.16 9.16L4.16 8.16L4.68 8.16L4.68 9.16ZM6.64 8.16L7.16 8.16L7.16 9.16L6.64 9.16L6.64 8.16Z"
              fill="#000000" fill-opacity="0" fill-rule="nonzero"/>
        <path id="path" d="M4.66 8.66L6.66 8.66" stroke="#D68166" stroke-opacity="1.000000" stroke-width="1.000000"
              stroke-linejoin="round" stroke-linecap="square"/>
    </g>
</svg>
