<svg width="24.000000" height="24.000000" viewBox="0 0 24 24" fill="none" xmlns="http://www.w3.org/2000/svg"
     xmlns:xlink="http://www.w3.org/1999/xlink">
    <desc>
        Created with Pixso.
    </desc>
    <defs>
        <clipPath id="clip420_1833">
            <rect id="download_outline_56" width="24.000000" height="24.000000" fill="white" fill-opacity="0"/>
        </clipPath>
    </defs>
    <g clip-path="url(#clip420_1833)">
        <path id="↳ Icon Color"
              d="M18.32 19.72C18.69 19.72 19 20.01 19 20.36C19 20.71 18.69 20.99 18.32 20.99L5.67 20.99C5.3 20.99 5 20.71 5 20.36C5 20.01 5.3 19.72 5.67 19.72L18.32 19.72ZM12 2.99C12.37 2.99 12.67 3.28 12.67 3.63L12.67 15.65L17.39 11.23C17.64 11 18.03 10.98 18.29 11.18L18.35 11.23C18.61 11.48 18.61 11.88 18.35 12.13L12.47 17.63C12.21 17.88 11.78 17.88 11.52 17.63L5.65 12.13C5.38 11.88 5.38 11.48 5.65 11.23C5.91 10.98 6.34 10.98 6.6 11.23L11.32 15.65L11.32 3.63C11.32 3.3 11.59 3.03 11.93 3L12 2.99Z"
              fill="#D68166" fill-opacity="1.000000" fill-rule="evenodd"/>
    </g>
</svg>
