<svg width="24" height="22" viewBox="0 0 24 22" fill="none" xmlns="http://www.w3.org/2000/svg">
    <path fill-rule="evenodd" clip-rule="evenodd"
          d="M5.73841 0H13.5028C14.3399 0 15.0315 -3.33518e-08 15.5774 0.0358111C16.1476 0.0835594 16.645 0.179056 17.106 0.417797C17.8461 0.775909 18.4405 1.37276 18.8166 2.08899C19.1685 2.7694 19.217 3.56918 19.2291 4.58383V4.64352C19.2412 5.07325 18.8894 5.41942 18.4648 5.41942C18.0281 5.43136 17.6762 5.08519 17.6762 4.66739V4.6077C17.6641 3.55724 17.5913 3.11557 17.4215 2.79327C17.2031 2.3516 16.8391 2.00543 16.4024 1.77862C16.1961 1.68313 15.9171 1.6115 15.4561 1.57569C14.9708 1.52794 14.3521 1.52794 13.4664 1.52794H5.76267C4.87704 1.52794 4.25831 1.52794 3.78516 1.57569C3.31202 1.6115 3.03298 1.68313 2.83887 1.77862C2.38999 2.00543 2.03817 2.3516 1.80766 2.79327C1.7106 2.98426 1.63781 3.25882 1.60142 3.72436C1.55289 4.18991 1.55289 4.7987 1.55289 5.6701V16.318C1.55289 17.1894 1.55289 17.7982 1.60142 18.2637C1.63781 18.7292 1.7106 19.0038 1.80766 19.2067C2.03817 19.6365 2.38999 19.9826 2.83887 20.2094C3.03298 20.3169 3.31202 20.3766 3.78516 20.4243C4.25831 20.4601 4.87704 20.4601 5.76267 20.4601H13.4664C14.3521 20.4601 14.9708 20.4601 15.4561 20.4243C15.9171 20.3766 16.1961 20.3169 16.4024 20.2094C16.8391 19.9826 17.2031 19.6365 17.4215 19.2067C17.5792 18.8964 17.652 18.4786 17.6641 17.5475C17.6762 17.1297 18.0402 16.7835 18.4648 16.7954C18.9016 16.8074 19.2412 17.1536 19.2291 17.5833C19.2049 18.5144 19.1442 19.2545 18.8166 19.8991C18.4405 20.6153 17.8461 21.2122 17.106 21.5703C16.645 21.809 16.1476 21.9045 15.5774 21.9523C15.0315 22 14.3399 22 13.5028 22H5.73841C4.88917 22 4.20978 22 3.65171 21.9523C3.08151 21.9045 2.5841 21.809 2.12309 21.5703C1.39517 21.2122 0.788576 20.6153 0.424618 19.8991C0.181979 19.4455 0.0849235 18.956 0.0363958 18.395C-3.38962e-08 17.8459 0 17.1774 0 16.3538V5.64623C0 4.81064 -3.38962e-08 4.14216 0.0363958 3.59305C0.0849235 3.03201 0.181979 2.54259 0.424618 2.08899C0.788576 1.37276 1.39517 0.775909 2.12309 0.417797C2.5841 0.179056 3.08151 0.0835594 3.65171 0.0358111C4.20978 -3.33518e-08 4.88917 0 5.73841 0ZM22.8566 6.06403C22.1529 5.35974 21.0004 5.35974 20.2846 6.06403L13.1632 13.0711C12.7264 13.5008 12.4716 14.0857 12.4716 14.6945V16.115C12.4716 16.5328 12.8235 16.879 13.2602 16.879H14.6918C15.3105 16.879 15.905 16.6403 16.3417 16.1986L23.4632 9.19154C24.1789 8.48725 24.1789 7.35323 23.4632 6.66088L22.8566 6.06403ZM4.16125 6.38633C4.16125 5.96853 4.50095 5.62235 4.9377 5.62235H14.2914C14.7282 5.62235 15.08 5.96853 15.08 6.38633C15.08 6.81606 14.7282 7.16224 14.2914 7.16224H4.9377C4.50095 7.16224 4.16125 6.81606 4.16125 6.38633ZM21.3886 7.1503C21.4857 7.04287 21.6555 7.04287 21.7526 7.1503L22.3713 7.74715C22.4683 7.84265 22.4683 8.00977 22.3713 8.10526L21.5706 8.88117L20.6 7.92621L21.3886 7.1503ZM19.496 9.01248L14.2672 14.1574C14.1216 14.3006 14.0366 14.4916 14.0366 14.6945V15.3391H14.6918C14.898 15.3391 15.0921 15.2675 15.2377 15.1243L20.4666 9.96744L19.496 9.01248ZM4.9377 10.2301C4.50095 10.2301 4.16125 10.5762 4.16125 10.994C4.16125 11.4238 4.50095 11.758 4.9377 11.758H10.1302C10.5669 11.758 10.9187 11.4238 10.9187 10.994C10.9187 10.5762 10.5669 10.2301 10.1302 10.2301H4.9377ZM4.9377 14.8378C4.50095 14.8378 4.16125 15.172 4.16125 15.6017C4.16125 16.0195 4.50095 16.3657 4.9377 16.3657H8.05561C8.48022 16.3657 8.83205 16.0195 8.83205 15.6017C8.83205 15.172 8.48022 14.8378 8.05561 14.8378H4.9377Z"
          fill="#DE9C87"/>
</svg>
