<svg width="32.000000" height="25.901367" viewBox="0 0 32 25.9014" fill="none" xmlns="http://www.w3.org/2000/svg"
>
    <defs/>
    <path id="Vector (Stroke)"
          d="M15.75 0.04C15.91 -0.02 16.08 -0.02 16.24 0.04L31.5 5.69C31.8 5.8 32 6.09 32 6.43C32 6.76 31.8 7.05 31.5 7.16L24.94 9.59L31.52 12.22C31.8 12.33 32 12.62 32 12.95C32 13.27 31.8 13.56 31.52 13.68L24.94 16.3L31.5 18.73C31.8 18.84 32 19.13 32 19.46C32 19.8 31.8 20.09 31.5 20.2L16.24 25.85C16.08 25.91 15.91 25.91 15.75 25.85L0.49 20.2C0.19 20.09 0 19.8 0 19.46C0 19.13 0.19 18.84 0.49 18.73L7.05 16.3L0.47 13.68C0.19 13.56 0 13.27 0 12.95C0 12.62 0.19 12.33 0.47 12.22L7.05 9.59L0.49 7.16C0.19 7.05 0 6.76 0 6.43C0 6.09 0.19 5.8 0.49 5.69L15.75 0.04ZM9.22 10.4L2.83 12.95L16 18.2L29.16 12.95L22.77 10.4L16.24 12.81C16.08 12.87 15.91 12.87 15.75 12.81L9.22 10.4ZM9.2 17.16L2.97 19.46L16 24.29L29.02 19.46L22.79 17.16L16.26 19.76C16.09 19.83 15.9 19.83 15.73 19.76L9.2 17.16ZM2.97 6.43L16 11.25L29.02 6.43L16 1.6L2.97 6.43Z"
          fill="#D68166" fill-opacity="1.000000" fill-rule="evenodd"/>
</svg>