<svg width="32" height="29" viewBox="0 0 32 29" fill="none" xmlns="http://www.w3.org/2000/svg">
    <path d="M0.9375 9.29396V20.2143C0.9375 22.8393 0.9375 24.1518 1.44844 25.1549C1.8981 26.0363 2.61514 26.7528 3.49687 27.2018C4.5 27.7143 5.8125 27.7143 8.4375 27.7143H23.5625C26.1875 27.7143 27.5 27.7143 28.5031 27.2033C29.3851 26.7539 30.1022 26.0369 30.5516 25.1549C31.0625 24.1518 31.0625 22.8393 31.0625 20.2143V9.29396M0.9375 9.29396L12.3563 2.94709C13.6859 2.20803 14.3516 1.83771 15.0547 1.69396C15.6784 1.56555 16.3216 1.56555 16.9453 1.69396C17.6484 1.83928 18.3141 2.20959 19.6438 2.94709L31.0625 9.29396M0.9375 9.29396L11.8406 16.5674C13.3437 17.569 14.0938 18.0705 14.9078 18.2658C15.6266 18.4377 16.375 18.4377 17.0922 18.2658C17.9047 18.0705 18.6578 17.569 20.1625 16.5658L31.0625 9.29396" stroke="white" stroke-width="1.5" stroke-linecap="round" stroke-linejoin="round"/>
</svg>
