<svg width="40" height="40" viewBox="0 0 40 40" fill="none" xmlns="http://www.w3.org/2000/svg">
    <path d="M35.0991 9.26833C35.5674 9.737 35.8306 10.3724 35.8307 11.035V35C35.8302 35.4925 35.7329 35.98 35.5441 36.4348C35.3551 36.8897 35.0786 37.3028 34.7301 37.6507C34.3816 37.9987 33.9679 38.2745 33.5127 38.4625C33.0576 38.6505 32.5699 38.7472 32.0774 38.7467H7.90906C6.91595 38.7453 5.96391 38.3502 5.26181 37.6477C4.55973 36.9453 4.16495 35.9932 4.16406 35V5C4.1645 4.00643 4.55905 3.05362 5.26113 2.3506C5.96321 1.64758 6.9155 1.25177 7.90906 1.25H26.0457C26.7082 1.25014 27.3437 1.5133 27.8124 1.98167L35.0991 9.26833Z" stroke="white" stroke-width="1.5" stroke-linecap="round" stroke-linejoin="round"/>
    <path d="M25.8359 1.25V8.75C25.8359 9.41303 26.0993 10.0489 26.5681 10.5178C27.0369 10.9866 27.6729 11.25 28.3359 11.25H35.8359" stroke="white" stroke-width="1.5" stroke-linecap="round" stroke-linejoin="round"/>
    <path d="M20 23.6764V18.8848" stroke="white" stroke-width="1.5" stroke-linecap="round" stroke-linejoin="round"/>
    <path d="M29.2813 27.9623C29.4971 28.3941 29.5991 28.8741 29.5773 29.3565C29.5556 29.8388 29.411 30.3076 29.1571 30.7183C28.9035 31.129 28.5488 31.4681 28.1271 31.7033C27.7056 31.9386 27.2308 32.0621 26.748 32.0623H13.248C12.765 32.0625 12.29 31.9391 11.8682 31.704C11.4463 31.4688 11.0915 31.1298 10.8375 30.719C10.5835 30.3083 10.4388 29.8393 10.417 29.3568C10.3952 28.8743 10.4971 28.3943 10.713 27.9623L17.463 14.4623C17.6981 13.9913 18.0598 13.5951 18.5076 13.3181C18.9555 13.0412 19.4715 12.8945 19.998 12.8945C20.5245 12.8945 21.0405 13.0412 21.4883 13.3181C21.9361 13.5951 22.2978 13.9913 22.533 14.4623L29.2813 27.9623Z" stroke="white" stroke-width="1.5" stroke-linecap="round" stroke-linejoin="round"/>
    <path d="M19.9987 28.2865C19.7685 28.2865 19.582 28.1 19.582 27.8698C19.582 27.6396 19.7685 27.4531 19.9987 27.4531" stroke="white" stroke-width="1.5"/>
    <path d="M20 28.2865C20.2302 28.2865 20.4167 28.1 20.4167 27.8698C20.4167 27.6396 20.2302 27.4531 20 27.4531" stroke="white" stroke-width="1.5"/>
</svg>
