<svg width="40" height="40" viewBox="0 0 40 40" fill="none" xmlns="http://www.w3.org/2000/svg">
    <path d="M35 12.4993V9.99935C35 9.11529 34.6488 8.26745 34.0237 7.64233C33.3986 7.0172 32.5507 6.66602 31.6667 6.66602H8.33333C7.44928 6.66602 6.60143 7.0172 5.97631 7.64233C5.35119 8.26745 5 9.11529 5 9.99935V33.3327C5 34.2167 5.35119 35.0646 5.97631 35.6897C6.60143 36.3148 7.44928 36.666 8.33333 36.666H14.1667" stroke="white" stroke-width="1.5" stroke-linecap="round" stroke-linejoin="round"/>
    <path d="M26.6641 3.33398V10.0007" stroke="white" stroke-width="1.5" stroke-linecap="round" stroke-linejoin="round"/>
    <path d="M13.3359 3.33398V10.0007" stroke="white" stroke-width="1.5" stroke-linecap="round" stroke-linejoin="round"/>
    <path d="M5 16.666H13.3333" stroke="white" stroke-width="2" stroke-linecap="round" stroke-linejoin="round"/>
    <path d="M29.1641 29.1673L26.6641 27.1673V23.334" stroke="white" stroke-width="1.5" stroke-linecap="round" stroke-linejoin="round"/>
    <path d="M16.6641 26.666C16.6641 29.3182 17.7176 31.8617 19.593 33.7371C21.4684 35.6124 24.0119 36.666 26.6641 36.666C29.3162 36.666 31.8598 35.6124 33.7351 33.7371C35.6105 31.8617 36.6641 29.3182 36.6641 26.666C36.6641 24.0139 35.6105 21.4703 33.7351 19.5949C31.8598 17.7196 29.3162 16.666 26.6641 16.666C24.0119 16.666 21.4684 17.7196 19.593 19.5949C17.7176 21.4703 16.6641 24.0139 16.6641 26.666Z" stroke="white" stroke-width="1.5" stroke-linecap="round" stroke-linejoin="round"/>
</svg>
