<svg width="40" height="40" viewBox="0 0 40 40" fill="none" xmlns="http://www.w3.org/2000/svg">
    <path d="M25 30C25 31.3261 25.5268 32.5979 26.4645 33.5355C27.4021 34.4732 28.6739 35 30 35C31.3261 35 32.5979 34.4732 33.5355 33.5355C34.4732 32.5979 35 31.3261 35 30C35 28.6739 34.4732 27.4021 33.5355 26.4645C32.5979 25.5268 31.3261 25 30 25C28.6739 25 27.4021 25.5268 26.4645 26.4645C25.5268 27.4021 25 28.6739 25 30Z" stroke="white" stroke-width="1.5" stroke-linecap="round" stroke-linejoin="round"/>
    <path d="M17.1693 33.3335H6.66927C5.78522 33.3335 4.93737 32.9823 4.31225 32.3572C3.68713 31.7321 3.33594 30.8842 3.33594 30.0002V8.33349C3.33594 7.44944 3.68713 6.60159 4.31225 5.97647C4.93737 5.35135 5.78522 5.00016 6.66927 5.00016H13.1693C13.7267 4.99469 14.2767 5.12914 14.7688 5.39119C15.2608 5.65325 15.6793 6.03453 15.9859 6.50016L17.3359 8.50016C17.6395 8.96104 18.0526 9.33936 18.5384 9.60117C19.0242 9.86297 19.5674 10.0001 20.1193 10.0002H33.3359C34.22 10.0002 35.0678 10.3513 35.693 10.9765C36.3181 11.6016 36.6693 12.4494 36.6693 13.3335V18.8335" stroke="white" stroke-width="1.5" stroke-linecap="round" stroke-linejoin="round"/>
    <path d="M36.1641 32.334L34.6641 31.834" stroke="white" stroke-width="1.5" stroke-linecap="round" stroke-linejoin="round"/>
    <path d="M25.3359 28.166L23.8359 27.666" stroke="white" stroke-width="1.5" stroke-linecap="round" stroke-linejoin="round"/>
    <path d="M27.6641 36.166L28.1641 34.666" stroke="white" stroke-width="1.5" stroke-linecap="round" stroke-linejoin="round"/>
    <path d="M31.8359 25.334L32.3359 23.834" stroke="white" stroke-width="1.5" stroke-linecap="round" stroke-linejoin="round"/>
    <path d="M32.6667 36.1667L32 34.5" stroke="white" stroke-width="1.5" stroke-linecap="round" stroke-linejoin="round"/>
    <path d="M28.0026 25.5007L27.3359 23.834" stroke="white" stroke-width="1.5" stroke-linecap="round" stroke-linejoin="round"/>
    <path d="M23.8359 32.6667L25.5026 32" stroke="white" stroke-width="1.5" stroke-linecap="round" stroke-linejoin="round"/>
    <path d="M34.5 28.0007L36.1667 27.334" stroke="white" stroke-width="1.5" stroke-linecap="round" stroke-linejoin="round"/>
</svg>
