<svg width="40" height="40" viewBox="0 0 40 40" fill="none" xmlns="http://www.w3.org/2000/svg">
    <path d="M23.3359 15.0007C23.3359 15.8847 22.9847 16.7326 22.3596 17.3577C21.7345 17.9828 20.8867 18.334 20.0026 18.334H10.0026L3.33594 25.0007V6.66732C3.33594 4.83398 4.83594 3.33398 6.66927 3.33398H20.0026C20.8867 3.33398 21.7345 3.68517 22.3596 4.31029C22.9847 4.93542 23.3359 5.78326 23.3359 6.66732V15.0007Z" stroke="white" stroke-width="1.5" stroke-linecap="round" stroke-linejoin="round"/>
    <path d="M29.0013 14H32.3346C33.2187 14 34.0665 14.3512 34.6917 14.9763C35.3168 15.6014 35.668 16.4493 35.668 17.3333V35.6667L29.0013 29H19.0013C18.1172 29 17.2694 28.6488 16.6443 28.0237C16.0192 27.3986 15.668 26.5507 15.668 25.6667V24" stroke="white" stroke-width="1.5" stroke-linecap="round" stroke-linejoin="round"/>
</svg>
