<svg width="40" height="40" viewBox="0 0 40 40" fill="none" xmlns="http://www.w3.org/2000/svg">
    <path d="M15 6.25C15 7.57608 15.5268 8.84785 16.4645 9.78553C17.4021 10.7232 18.6739 11.25 20 11.25C21.3261 11.25 22.5978 10.7232 23.5355 9.78553C24.4732 8.84785 25 7.57608 25 6.25C25 4.92392 24.4732 3.65215 23.5355 2.71447C22.5978 1.77678 21.3261 1.25 20 1.25C18.6739 1.25 17.4021 1.77678 16.4645 2.71447C15.5268 3.65215 15 4.92392 15 6.25Z" stroke="white" stroke-width="1.5" stroke-linecap="round" stroke-linejoin="round"/>
    <path d="M28.75 22.5C28.75 20.1793 27.8282 17.9538 26.1872 16.3128C24.5462 14.6719 22.3206 13.75 20 13.75C17.6793 13.75 15.4538 14.6719 13.8128 16.3128C12.1719 17.9538 11.25 20.1793 11.25 22.5V26.25H15L16.25 38.75H23.75L25 26.25H28.75V22.5Z" stroke="white" stroke-width="1.5" stroke-linecap="round" stroke-linejoin="round"/>
</svg>
