<svg width="40" height="40" viewBox="0 0 40 40" fill="none" xmlns="http://www.w3.org/2000/svg">
    <g clip-path="url(#clip0_258_3603)">
        <path d="M5 6.25C5 7.57608 5.52678 8.84785 6.46447 9.78553C7.40215 10.7232 8.67392 11.25 10 11.25C11.3261 11.25 12.5978 10.7232 13.5355 9.78553C14.4732 8.84785 15 7.57608 15 6.25C15 4.92392 14.4732 3.65215 13.5355 2.71447C12.5978 1.77678 11.3261 1.25 10 1.25C8.67392 1.25 7.40215 1.77678 6.46447 2.71447C5.52678 3.65215 5 4.92392 5 6.25Z" stroke="white" stroke-width="1.5" stroke-linecap="round" stroke-linejoin="round"/>
        <path d="M17.5917 18.1467C16.6318 16.4745 15.1465 15.1661 13.3667 14.4247C11.5868 13.6834 9.61195 13.5506 7.74883 14.0469C5.88573 14.5432 4.23867 15.6409 3.06348 17.1695C1.88832 18.698 1.25081 20.5718 1.25 22.5V26.25H5L6.25 38.75H13.75L14.2883 33.3617" stroke="white" stroke-width="1.5" stroke-linecap="round" stroke-linejoin="round"/>
        <path d="M38.75 28.75C38.75 30.7278 38.1635 32.6612 37.0646 34.3057C35.9658 35.9502 34.4041 37.232 32.5768 37.9888C30.7495 38.7457 28.7388 38.9437 26.7991 38.5578C24.8593 38.172 23.0775 37.2197 21.679 35.821C20.2803 34.4225 19.328 32.6407 18.9421 30.7008C18.5563 28.7612 18.7543 26.7505 19.5111 24.9232C20.2681 23.0958 21.5498 21.5342 23.1943 20.4353C24.8388 19.3365 26.7721 18.75 28.75 18.75" stroke="white" stroke-width="1.5" stroke-linecap="round" stroke-linejoin="round"/>
        <path d="M38.75 21.248L29.6333 30.3647C29.5173 30.4809 29.3797 30.573 29.2282 30.6359C29.0765 30.6987 28.914 30.731 28.75 30.731C28.586 30.731 28.4235 30.6987 28.2718 30.6359C28.1203 30.573 27.9827 30.4809 27.8667 30.3647L25 27.4997" stroke="white" stroke-width="1.5" stroke-linecap="round" stroke-linejoin="round"/>
    </g>
    <defs>
        <clipPath id="clip0_258_3603">
            <rect width="40" height="40" fill="white"/>
        </clipPath>
    </defs>
</svg>
