<svg width="18" height="18" viewBox="0 0 18 18" fill="none" xmlns="http://www.w3.org/2000/svg">
    <path d="M7.875 3.375V0H10.125V3.375H7.875Z" fill="#078EFA"/>
    <path d="M10.125 14.625V18H7.875V14.625H10.125Z" fill="#078EFA"/>
    <path d="M12.375 9C12.375 10.864 10.864 12.375 9 12.375C7.13604 12.375 5.625 10.864 5.625 9C5.625 7.13604 7.13604 5.625 9 5.625C10.864 5.625 12.375 7.13604 12.375 9Z"
          fill="#078EFA"/>
    <path d="M0 10.125H3.375V7.875H0V10.125Z" fill="#078EFA"/>
    <path d="M18 7.875H14.625V10.125H18V7.875Z" fill="#078EFA"/>
    <path d="M4.22703 5.81802L1.84054 3.43153L3.43153 1.84054L5.81802 4.22703L4.22703 5.81802Z" fill="#078EFA"/>
    <path d="M13.7729 12.1819L16.1595 14.5684L14.5684 16.1595L12.1819 13.7729L13.7729 12.1819Z" fill="#078EFA"/>
    <path d="M3.43153 16.1595L5.81802 13.7729L4.22703 12.1819L1.84054 14.5684L3.43153 16.1595Z" fill="#078EFA"/>
    <path d="M14.5684 1.84054L12.1819 4.22703L13.7729 5.81802L16.1595 3.43153L14.5684 1.84054Z" fill="#078EFA"/>
</svg>
