<svg width="56" height="56" viewBox="0 0 56 56" fill="none" xmlns="http://www.w3.org/2000/svg">
    <rect width="56" height="56" rx="28" fill="#6DAA2C"/>
    <path d="M33.3182 19.5714H15V34.3254H33.3182M33.3182 19.5714V34.3254M33.3182 19.5714H37.75L41 28.6508V34.3254H33.3182M22.6818 37.1627C22.6818 38.7297 21.4535 40 19.9383 40C18.4231 40 17.1948 38.7297 17.1948 37.1627C17.1948 35.5957 18.4231 34.3254 19.9383 34.3254C21.4535 34.3254 22.6818 35.5957 22.6818 37.1627ZM38.8052 37.1627C38.8052 38.7297 37.5769 40 36.0617 40C34.5465 40 33.3182 38.7297 33.3182 37.1627C33.3182 35.5957 34.5465 34.3254 36.0617 34.3254C37.5769 34.3254 38.8052 35.5957 38.8052 37.1627Z"
          stroke="white" stroke-width="2" stroke-linecap="round" stroke-linejoin="round"/>
</svg>
