<svg width="56" height="56" viewBox="0 0 56 56" fill="none" xmlns="http://www.w3.org/2000/svg">
    <rect width="56" height="56" rx="28" fill="#6DAA2C"/>
    <path d="M30.4004 16H20.8004C20.1639 16 19.5534 16.2529 19.1033 16.7029C18.6532 17.153 18.4004 17.7635 18.4004 18.4V37.6C18.4004 38.2365 18.6532 38.847 19.1033 39.2971C19.5534 39.7471 20.1639 40 20.8004 40H35.2004C35.8369 40 36.4474 39.7471 36.8974 39.2971C37.3475 38.847 37.6004 38.2365 37.6004 37.6V23.2M30.4004 16L37.6004 23.2M30.4004 16V23.2H37.6004M32.8004 29.2H23.2004M32.8004 34H23.2004M25.6004 24.4H23.2004"
          stroke="white" stroke-width="2" stroke-linecap="round" stroke-linejoin="round"/>
</svg>
