<svg width="24" height="24" viewBox="0 0 24 24" fill="none" xmlns="http://www.w3.org/2000/svg">
    <path d="M20.0505 11.469L13.0505 4.46902C12.8575 4.28145 12.5792 4.21106 12.3203 4.28436C12.0614 4.35765 11.8613 4.5635 11.7953 4.82436C11.7293 5.08521 11.8075 5.36145 12.0005 5.54902L17.7105 11.249H4.48047C4.06626 11.249 3.73047 11.5848 3.73047 11.999C3.73047 12.4132 4.06626 12.749 4.48047 12.749H17.7005L12.0005 18.449C11.8575 18.5883 11.7769 18.7794 11.7769 18.979C11.7769 19.1786 11.8575 19.3697 12.0005 19.509C12.1383 19.6537 12.3307 19.7335 12.5305 19.729C12.7295 19.73 12.9206 19.6507 13.0605 19.509L20.0605 12.509C20.3529 12.2162 20.3529 11.7418 20.0605 11.449L20.0505 11.469Z" fill="white"/>
</svg>
