<svg width="16" height="20" viewBox="0 0 16 20" fill="none" xmlns="http://www.w3.org/2000/svg">
    <path d="M11.5725 9.28627C11.5725 10.2335 11.1963 11.1419 10.5265 11.8117C9.85673 12.4814 8.94832 12.8577 8.00112 12.8577C7.05392 12.8577 6.1455 12.4814 5.47573 11.8117C4.80596 11.1419 4.42969 10.2335 4.42969 9.28627V4.28627C4.42969 3.33907 4.80596 2.43066 5.47573 1.76089C6.1455 1.09112 7.05392 0.714844 8.00112 0.714844C8.94832 0.714844 9.85673 1.09112 10.5265 1.76089C11.1963 2.43066 11.5725 3.33907 11.5725 4.28627V9.28627Z" stroke="#969696" stroke-width="1.2" stroke-linecap="round" stroke-linejoin="round"/>
    <path d="M15.1451 10C15.1469 10.8447 14.9819 11.6815 14.6597 12.4623C14.3372 13.2431 13.8638 13.9526 13.2664 14.5499C12.6691 15.1471 11.9597 15.6207 11.1789 15.943C10.3981 16.2654 9.56128 16.4304 8.71653 16.4286H7.28796C6.44322 16.4304 5.60643 16.2654 4.82563 15.943C4.04483 15.6207 3.33541 15.1471 2.73808 14.5499C2.14075 13.9526 1.66731 13.2431 1.34491 12.4623C1.02251 11.6815 0.857505 10.8447 0.859391 10" stroke="#969696" stroke-width="1.2" stroke-linecap="round" stroke-linejoin="round"/>
    <path d="M8 16.4297V19.2868" stroke="#969696" stroke-width="1.2" stroke-linecap="round" stroke-linejoin="round"/>
</svg>
