<svg width="20" height="20" viewBox="0 0 20 20" fill="none" xmlns="http://www.w3.org/2000/svg">
    <path d="M2.5 5H4.16667H17.5" stroke="#262626" stroke-width="1.2" stroke-linecap="round" stroke-linejoin="round"/>
    <path d="M15.8307 5.0013V16.668C15.8307 17.11 15.6551 17.5339 15.3426 17.8465C15.03 18.159 14.6061 18.3346 14.1641 18.3346H5.83073C5.3887 18.3346 4.96478 18.159 4.65222 17.8465C4.33966 17.5339 4.16406 17.11 4.16406 16.668V5.0013M6.66406 5.0013V3.33464C6.66406 2.89261 6.83966 2.46868 7.15222 2.15612C7.46478 1.84356 7.8887 1.66797 8.33073 1.66797H11.6641C12.1061 1.66797 12.53 1.84356 12.8426 2.15612C13.1551 2.46868 13.3307 2.89261 13.3307 3.33464V5.0013" stroke="#262626" stroke-width="1.2" stroke-linecap="round" stroke-linejoin="round"/>
    <path d="M8.33594 9.16797V14.168" stroke="#262626" stroke-width="1.2" stroke-linecap="round" stroke-linejoin="round"/>
    <path d="M11.6641 9.16797V14.168" stroke="#262626" stroke-width="1.2" stroke-linecap="round" stroke-linejoin="round"/>
</svg>
