<svg width="30" height="30" viewBox="0 0 30 30" fill="none" xmlns="http://www.w3.org/2000/svg">
    <path d="M14.9997 30C23.1913 30 30 23.2059 30 15C30 6.80854 23.1763 0 14.9846 0C6.77919 0 0 6.80854 0 15C0 23.2059 6.79363 30 14.9997 30ZM10.7649 23.2059C9.14727 23.2059 8.32403 22.3827 8.32403 20.7212V8.71978C8.32403 7.0727 9.14727 6.23505 10.7649 6.23505H14.3088V12.1614C14.3088 13.176 14.7945 13.6466 15.8091 13.6466H21.6327V20.7199C21.6327 22.367 20.8239 23.2053 19.1918 23.2053L10.7649 23.2059ZM15.9271 12.4557C15.6472 12.4557 15.5004 12.3088 15.5004 12.029V6.32352C15.8236 6.36744 16.1618 6.60274 16.5295 6.98549L20.8829 11.4266C21.2656 11.8094 21.5003 12.1325 21.5448 12.4557H15.9271Z" fill="white"/>
</svg>
