<svg width="50" height="50" viewBox="0 0 32 32" fill="none" xmlns="http://www.w3.org/2000/svg">
    <path class="icon__" d="M25.5215 4.61621L21.5557 10.0889L17.5898 15.5605L25.501 26.3838L19.959 30.5205L17.6504 28.5322L21.5059 25.6611L15.5713 18.0625L9.63672 25.6611L13.4922 28.5322L11.1836 30.5205L5.6416 26.3838L13.5527 15.5605L5.62109 4.61621L11.1836 0.5L13.6328 2.58887L9.93848 5.52051L15.5713 12.9766L21.2041 5.52051L17.5098 2.58887L19.959 0.5L25.5215 4.61621Z" fill="url(#paint0_radial_163_344)"/>
    <path d="M23.1328 15.5205L27.0088 10.5205L29.3984 12.1465L31.125 9.83691L26.627 6.24316L19.6787 15.5205L26.627 24.7979L31.125 21.2031L29.3975 18.8936L27.0078 20.5205L23.1328 15.5205Z" fill="url(#paint1_linear_163_344)"/>
    <path d="M7.99219 15.5205L4.11621 10.5205L1.72656 12.1465L0 9.83691L4.49805 6.24316L11.4463 15.5205L4.49805 24.7979L0 21.2031L1.72656 18.8936L4.11621 20.5205L7.99219 15.5205Z" fill="url(#paint2_linear_163_344)"/>
    <path d="M3.2051 13.7773V13.6279H3.26937C3.2658 13.6279 3.43541 13.6315 3.77819 13.6386C4.07098 13.6422 4.31914 13.6422 4.52267 13.6386L4.87617 13.6279H4.92437V13.7773V13.9267H4.8119C4.61908 13.9267 4.52089 13.941 4.51732 13.9694C4.51375 13.973 4.51196 14.4159 4.51196 15.298L4.5066 16.6107L4.49589 16.6587C4.42448 16.9361 4.24773 17.1425 3.96565 17.2776C3.69071 17.4057 3.40684 17.427 3.11405 17.3417C3.05335 17.3239 2.99621 17.3025 2.94265 17.2776C2.84982 17.2314 2.77305 17.178 2.71235 17.1176C2.61951 17.0251 2.55881 16.9237 2.53024 16.8134C2.5231 16.785 2.51953 16.7387 2.51953 16.6747C2.51953 16.6142 2.5231 16.5697 2.53024 16.5413C2.5481 16.5057 2.55881 16.4826 2.56238 16.4719C2.60166 16.4043 2.66771 16.3528 2.76055 16.3172C2.78555 16.3101 2.82661 16.3065 2.88374 16.3065C2.9373 16.3065 2.97836 16.3101 3.00693 16.3172C3.0712 16.3421 3.1194 16.3741 3.15154 16.4132C3.20867 16.4701 3.2408 16.5484 3.24795 16.648C3.24795 16.7227 3.23545 16.785 3.21045 16.8348C3.17475 16.9023 3.12297 16.9539 3.05513 16.9895L3.01228 17.0108C3.02299 17.0322 3.06227 17.0535 3.13011 17.0749C3.25866 17.1318 3.37649 17.1514 3.48361 17.1336C3.63715 17.1158 3.75498 17.0215 3.83711 16.8508C3.86924 16.7867 3.89245 16.7191 3.90673 16.648C3.9103 16.6267 3.91387 16.1731 3.91745 15.2874C3.91745 14.4087 3.91387 13.9676 3.90673 13.9641C3.89959 13.957 3.88531 13.9499 3.86389 13.9427C3.77819 13.9321 3.62108 13.9267 3.39256 13.9267H3.2051V13.7773Z" fill="white"/>
    <path d="M15.4344 13.6384C15.4449 13.6314 15.487 13.6279 15.5608 13.6279C15.638 13.6279 15.6819 13.6314 15.6924 13.6384C15.7029 13.642 15.7135 13.649 15.724 13.6595C15.731 13.67 15.9189 14.2361 16.2875 15.3579C16.6596 16.4867 16.8474 17.0528 16.851 17.0564C16.865 17.0774 16.9159 17.0897 17.0037 17.0932C17.0388 17.0967 17.1143 17.0984 17.2301 17.0984H17.367V17.2457V17.3929H17.3196C17.3231 17.3929 17.1985 17.3894 16.9457 17.3824C16.7316 17.3789 16.5034 17.3789 16.2612 17.3824L15.8399 17.3929H15.7819V17.2457V17.0984H15.8662C16.0558 17.0984 16.1716 17.0879 16.2138 17.0669C16.2208 17.0599 16.2243 17.0528 16.2243 17.0458C16.2243 17.0528 16.1909 16.9494 16.1242 16.7356C16.0646 16.5568 16.0277 16.4429 16.0136 16.3938L16.0031 16.3623H15.408H14.8182L14.7287 16.6304L14.6392 16.9144C14.6357 16.9424 14.648 16.9705 14.6761 16.9985C14.7357 17.0546 14.8358 17.0879 14.9762 17.0984H15.0342V17.2457V17.3929H14.9868L14.6445 17.3824C14.4408 17.3789 14.2565 17.3789 14.0915 17.3824C13.8984 17.3894 13.8001 17.3929 13.7966 17.3929H13.7598V17.2457V17.0984H13.8124C13.9248 17.0984 14.0266 17.0861 14.1179 17.0616C14.2267 17.0266 14.2934 16.981 14.318 16.9249C14.3215 16.9179 14.504 16.371 14.8656 15.2843C15.2167 14.2186 15.3958 13.677 15.4028 13.6595C15.4133 13.649 15.4238 13.642 15.4344 13.6384ZM15.6556 15.3158L15.4133 14.5692C15.4133 14.5727 15.2483 15.0687 14.9183 16.0573C14.9183 16.0643 15.0816 16.0678 15.408 16.0678C15.7381 16.0678 15.9031 16.066 15.9031 16.0625L15.6556 15.3158Z" fill="#122369"/>
    <path d="M26.1973 13.7823V13.6279H26.2577L26.697 13.639C26.9532 13.6426 27.2278 13.6426 27.5206 13.639C27.8611 13.6316 28.0295 13.6279 28.0258 13.6279H28.0917V13.7823V13.9366H27.8172C27.5609 13.9403 27.4218 13.9532 27.3998 13.9752C27.3925 13.9789 27.3888 14.4915 27.3888 15.5132V17.0401L27.3998 17.0511C27.4035 17.0548 27.4145 17.0621 27.4328 17.0732C27.473 17.0879 27.6671 17.0915 28.0148 17.0842C28.0514 17.0805 28.0771 17.0787 28.0917 17.0787C28.4468 17.0456 28.6884 16.9004 28.8165 16.6432C28.8934 16.4999 28.9483 16.2831 28.9813 15.9927C28.9886 15.9156 28.9941 15.8715 28.9978 15.8604V15.8329H29.135H29.2723V15.8604C29.2686 15.8678 29.243 16.1177 29.1954 16.6101C29.1478 17.1062 29.1222 17.358 29.1186 17.3653V17.3929H27.6579H26.1973V17.2385V17.0842H26.351C26.6073 17.0842 26.7427 17.0713 26.7574 17.0456V13.9752C26.7427 13.9495 26.6073 13.9366 26.351 13.9366H26.1973V13.7823Z" fill="white"/>
    <defs>
<!--        <radialGradient id="paint0_radial_163_344" cx="0" cy="0" r="1" gradientUnits="userSpaceOnUse" gradientTransform="translate(15.5713 15.5103) rotate(90) scale(20.3517 13.491)">-->
<!--            <stop stop-color="white"/>-->
<!--            <stop offset="1" stop-color="#454542"/>-->
<!--        </radialGradient>-->
        <radialGradient
                id="paint0_radial_163_344"
                gradientUnits="objectBoundingBox"
                cx="50%" cy="50%" r="67.79%"
                fx="50%" fy="50%"
                color-interpolation="linearRGB"
        >
            <stop offset="0%"   stop-color="#ffffff"/>
            <stop offset="100%" stop-color="#454542"/>
        </radialGradient>


        <linearGradient class="c" id="paint1_linear_163_344" x1="19.6787" y1="15.5205" x2="31.125" y2="15.5205" gradientUnits="userSpaceOnUse">
            <stop stop-color="#E3E3E5"/>
            <stop offset="1" stop-color="#4E4C4F"/>
        </linearGradient>
        <linearGradient class="a" id="paint2_linear_163_344" x1="11.4463" y1="15.5205" x2="-3.76845e-07" y2="15.5205" gradientUnits="userSpaceOnUse">
            <stop stop-color="#E3E3E5"/>
            <stop offset="1" stop-color="#4E4C4F"/>
        </linearGradient>
    </defs>
    <style>

    </style>
</svg>

