<svg width="24" height="24" viewBox="0 0 24 24" fill="none" xmlns="http://www.w3.org/2000/svg">
    <path d="M11.9531 22.9492C18.0283 22.9492 22.9531 18.0244 22.9531 11.9492C22.9531 5.87409 18.0283 0.949219 11.9531 0.949219C5.87799 0.949219 0.953125 5.87409 0.953125 11.9492C0.953125 14.3492 2.28646 16.1159 2.95312 17.4492L0.953125 22.4492L1.45312 22.9492L6.45312 21.4776C8.07108 22.4136 9.94955 22.9492 11.9531 22.9492Z"
          fill="#C0C0C0"/>
    <path d="M13.125 11.9485C13.125 12.1803 13.0563 12.4068 12.9275 12.5996C12.7987 12.7923 12.6157 12.9425 12.4016 13.0312C12.1874 13.1199 11.9518 13.1431 11.7245 13.0979C11.4972 13.0526 11.2884 12.941 11.1245 12.7771C10.9606 12.6133 10.849 12.4044 10.8038 12.1771C10.7585 11.9498 10.7818 11.7142 10.8705 11.5C10.9592 11.2859 11.1094 11.1029 11.3021 10.9741C11.4948 10.8454 11.7213 10.7766 11.9531 10.7766C12.2639 10.7766 12.562 10.9001 12.7818 11.1199C13.0015 11.3396 13.125 11.6377 13.125 11.9485ZM6.79688 10.7766C6.5651 10.7766 6.33853 10.8454 6.14582 10.9741C5.9531 11.1029 5.8029 11.2859 5.7142 11.5C5.62551 11.7142 5.6023 11.9498 5.64752 12.1771C5.69273 12.4044 5.80434 12.6133 5.96823 12.7771C6.13212 12.941 6.34093 13.0526 6.56825 13.0979C6.79557 13.1431 7.0312 13.1199 7.24533 13.0312C7.45946 12.9425 7.64249 12.7923 7.77125 12.5996C7.90002 12.4068 7.96875 12.1803 7.96875 11.9485C7.96875 11.6377 7.84528 11.3396 7.62552 11.1199C7.40575 10.9001 7.10768 10.7766 6.79688 10.7766ZM17.1094 10.7766C16.8776 10.7766 16.651 10.8454 16.4583 10.9741C16.2656 11.1029 16.1154 11.2859 16.0267 11.5C15.938 11.7142 15.9148 11.9498 15.96 12.1771C16.0052 12.4044 16.1168 12.6133 16.2807 12.7771C16.4446 12.941 16.6534 13.0526 16.8808 13.0979C17.1081 13.1431 17.3437 13.1199 17.5578 13.0312C17.772 12.9425 17.955 12.7923 18.0838 12.5996C18.2125 12.4068 18.2812 12.1803 18.2812 11.9485C18.2812 11.6377 18.1578 11.3396 17.938 11.1199C17.7182 10.9001 17.4202 10.7766 17.1094 10.7766ZM23.9062 11.9485C23.9067 14.0206 23.3684 16.0573 22.3443 17.8586C21.3202 19.66 19.8454 21.1642 18.0646 22.2236C16.2838 23.2831 14.2582 23.8614 12.1865 23.9019C10.1147 23.9423 8.06806 23.4435 6.24727 22.4544L2.16094 23.8161C1.87187 23.9125 1.56166 23.9265 1.26508 23.8565C0.968505 23.7865 0.697282 23.6353 0.481811 23.4198C0.266339 23.2043 0.115135 22.9331 0.0451444 22.6365C-0.0248457 22.34 -0.0108555 22.0298 0.085547 21.7407L1.44727 17.6544C0.579213 16.0548 0.0878841 14.2781 0.0107433 12.4598C-0.0663975 10.6415 0.272687 8.82955 1.00214 7.16218C1.73159 5.49482 2.83216 4.01604 4.2199 2.8386C5.60765 1.66117 7.24594 0.816167 9.00985 0.368034C10.7738 -0.0801 12.6167 -0.119532 14.3982 0.252744C16.1796 0.62502 17.8526 1.39917 19.2894 2.51617C20.7263 3.63318 21.8891 5.06353 22.6892 6.69816C23.4893 8.3328 23.9055 10.1286 23.9062 11.9485ZM22.5 11.9485C22.4996 10.3306 22.127 8.73453 21.4111 7.28369C20.6951 5.83286 19.655 4.56619 18.3711 3.58167C17.0873 2.59716 15.5942 1.92121 14.0073 1.60611C12.4204 1.291 10.7823 1.34521 9.21966 1.76452C7.65707 2.18383 6.21188 2.957 4.99593 4.02423C3.77997 5.09145 2.82584 6.42411 2.20735 7.9191C1.58886 9.41409 1.32259 11.0313 1.42915 12.6457C1.53571 14.26 2.01224 15.8283 2.82188 17.229C2.87188 17.3152 2.90297 17.4112 2.91307 17.5104C2.92318 17.6096 2.91206 17.7098 2.88047 17.8044L1.42031 22.1848C1.40654 22.2261 1.40454 22.2704 1.41454 22.3128C1.42454 22.3552 1.44614 22.3939 1.47692 22.4247C1.5077 22.4555 1.54645 22.4771 1.58882 22.4871C1.63119 22.4971 1.6755 22.4951 1.7168 22.4813L6.09375 21.0212C6.16562 20.9975 6.24075 20.9853 6.31641 20.9848C6.43982 20.9856 6.56094 21.0183 6.66797 21.0798C8.27141 22.0082 10.0912 22.4979 11.944 22.4995C13.7969 22.5011 15.6175 22.0146 17.2225 21.0889C18.8275 20.1632 20.1604 18.8309 21.0869 17.2263C22.0133 15.6217 22.5007 13.8014 22.5 11.9485Z"
          fill="white"/>
</svg>
