<svg width="243" height="29" viewBox="0 0 243 29" fill="none" xmlns="http://www.w3.org/2000/svg">
    <path d="M0.786663 27.5478C0.536918 27.6656 0.429974 27.9636 0.547797 28.2133C0.66562 28.4631 0.963592 28.57 1.21334 28.4522L0.786663 27.5478ZM243 28L239.683 23.2741L237.249 28.5092L243 28ZM1.21334 28.4522C2.15321 28.0088 3.09591 27.5704 4.0414 27.1371L3.62476 26.228C2.67591 26.6629 1.72987 27.1028 0.786663 27.5478L1.21334 28.4522ZM9.74061 24.6009C11.648 23.7773 13.5663 22.974 15.4951 22.1913L15.1191 21.2647C13.1834 22.0502 11.2584 22.8563 9.34418 23.6828L9.74061 24.6009ZM21.3009 19.9101C23.2425 19.1719 25.1943 18.4545 27.1561 17.758L26.8215 16.8156C24.8528 17.5146 22.8941 18.2346 20.9456 18.9754L21.3009 19.9101ZM33.0582 15.7361C35.0301 15.0849 37.0117 14.4548 39.0025 13.846L38.7101 12.8897C36.7122 13.5007 34.7236 14.1331 32.7446 14.7866L33.0582 15.7361ZM44.9881 12.088C46.9869 11.525 48.9947 10.9833 51.0111 10.4632L50.7614 9.49493C48.7378 10.0168 46.7228 10.5604 44.7169 11.1255L44.9881 12.088ZM57.0682 8.97252C59.0898 8.49866 61.1198 8.04644 63.1579 7.61613L62.9513 6.6377C60.906 7.06954 58.8688 7.52337 56.84 7.99891L57.0682 8.97252ZM69.2748 6.39514C71.3149 6.01133 73.3627 5.64937 75.418 5.30953L75.2549 4.32293C73.1923 4.66397 71.1372 5.02721 69.0899 5.41238L69.2748 6.39514ZM81.5838 4.35976C83.6382 4.06644 85.6998 3.79516 87.7682 3.54615L87.6487 2.55331C85.573 2.8032 83.5042 3.07545 81.4424 3.3698L81.5838 4.35976ZM93.9709 2.86846C96.0356 2.66577 98.1069 2.48523 100.184 2.32709L100.109 1.32998C98.0237 1.48867 95.9452 1.66984 93.8732 1.87324L93.9709 2.86846ZM106.41 1.92148C108.482 1.80918 110.559 1.71913 112.642 1.65156L112.61 0.652087C110.52 0.719894 108.435 0.810257 106.356 0.922941L106.41 1.92148ZM118.88 1.51682C119.918 1.50562 120.959 1.5 122 1.5V0.5C120.955 0.5 119.911 0.505637 118.869 0.516881L118.88 1.51682ZM122 1.5C123.041 1.5 124.082 1.50562 125.12 1.51682L125.131 0.516881C124.089 0.505637 123.045 0.5 122 0.5V1.5ZM131.358 1.65156C133.441 1.71913 135.518 1.80918 137.59 1.92147L137.644 0.92294C135.565 0.810256 133.48 0.719893 131.39 0.652086L131.358 1.65156ZM143.816 2.32709C145.893 2.48523 147.964 2.66576 150.029 2.86846L150.127 1.87324C148.055 1.66984 145.976 1.48867 143.891 1.32998L143.816 2.32709ZM156.232 3.54614C158.3 3.79515 160.362 4.06644 162.416 4.35976L162.558 3.3698C160.496 3.07545 158.427 2.8032 156.351 2.55331L156.232 3.54614ZM168.582 5.30953C170.637 5.64937 172.685 6.01133 174.725 6.39514L174.91 5.41238C172.863 5.02721 170.808 4.66397 168.745 4.32293L168.582 5.30953ZM180.842 7.61613C182.88 8.04644 184.91 8.49866 186.932 8.97252L187.16 7.99891C185.131 7.52337 183.094 7.06954 181.049 6.6377L180.842 7.61613ZM192.989 10.4632C195.005 10.9833 197.013 11.525 199.012 12.088L199.283 11.1255C197.277 10.5604 195.262 10.0168 193.239 9.49492L192.989 10.4632ZM204.997 13.846C206.988 14.4548 208.97 15.0849 210.942 15.7361L211.255 14.7866C209.276 14.1331 207.288 13.5007 205.29 12.8897L204.997 13.846ZM216.844 17.758C218.806 18.4545 220.757 19.1719 222.699 19.9101L223.054 18.9753C221.106 18.2346 219.147 17.5146 217.178 16.8156L216.844 17.758ZM228.505 22.1913C230.434 22.974 232.352 23.7773 234.259 24.6009L234.656 23.6828C232.742 22.8563 230.817 22.0502 228.881 21.2647L228.505 22.1913ZM0.786663 27.5478C0.536918 27.6656 0.429974 27.9636 0.547797 28.2133C0.66562 28.4631 0.963592 28.57 1.21334 28.4522L0.786663 27.5478ZM243 28L239.683 23.2741L237.249 28.5092L243 28ZM1.21334 28.4522C2.15321 28.0088 3.09591 27.5704 4.0414 27.1371L3.62476 26.228C2.67591 26.6629 1.72987 27.1028 0.786663 27.5478L1.21334 28.4522ZM9.74061 24.6009C11.648 23.7773 13.5663 22.974 15.4951 22.1913L15.1191 21.2647C13.1834 22.0502 11.2584 22.8563 9.34418 23.6828L9.74061 24.6009ZM21.3009 19.9101C23.2425 19.1719 25.1943 18.4545 27.1561 17.758L26.8215 16.8156C24.8528 17.5146 22.8941 18.2346 20.9456 18.9754L21.3009 19.9101ZM33.0582 15.7361C35.0301 15.0849 37.0117 14.4548 39.0025 13.846L38.7101 12.8897C36.7122 13.5007 34.7236 14.1331 32.7446 14.7866L33.0582 15.7361ZM44.9881 12.088C46.9869 11.525 48.9947 10.9833 51.0111 10.4632L50.7614 9.49493C48.7378 10.0168 46.7228 10.5604 44.7169 11.1255L44.9881 12.088ZM57.0682 8.97252C59.0898 8.49866 61.1198 8.04644 63.1579 7.61613L62.9513 6.6377C60.906 7.06954 58.8688 7.52337 56.84 7.99891L57.0682 8.97252ZM69.2748 6.39514C71.3149 6.01133 73.3627 5.64937 75.418 5.30953L75.2549 4.32293C73.1923 4.66397 71.1372 5.02721 69.0899 5.41238L69.2748 6.39514ZM81.5838 4.35976C83.6382 4.06644 85.6998 3.79516 87.7682 3.54615L87.6487 2.55331C85.573 2.8032 83.5042 3.07545 81.4424 3.3698L81.5838 4.35976ZM93.9709 2.86846C96.0356 2.66577 98.1069 2.48523 100.184 2.32709L100.109 1.32998C98.0237 1.48867 95.9452 1.66984 93.8732 1.87324L93.9709 2.86846ZM106.41 1.92148C108.482 1.80918 110.559 1.71913 112.642 1.65156L112.61 0.652087C110.52 0.719894 108.435 0.810257 106.356 0.922941L106.41 1.92148ZM118.88 1.51682C119.918 1.50562 120.959 1.5 122 1.5V0.5C120.955 0.5 119.911 0.505637 118.869 0.516881L118.88 1.51682ZM122 1.5C123.041 1.5 124.082 1.50562 125.12 1.51682L125.131 0.516881C124.089 0.505637 123.045 0.5 122 0.5V1.5ZM131.358 1.65156C133.441 1.71913 135.518 1.80918 137.59 1.92147L137.644 0.92294C135.565 0.810256 133.48 0.719893 131.39 0.652086L131.358 1.65156ZM143.816 2.32709C145.893 2.48523 147.964 2.66576 150.029 2.86846L150.127 1.87324C148.055 1.66984 145.976 1.48867 143.891 1.32998L143.816 2.32709ZM156.232 3.54614C158.3 3.79515 160.362 4.06644 162.416 4.35976L162.558 3.3698C160.496 3.07545 158.427 2.8032 156.351 2.55331L156.232 3.54614ZM168.582 5.30953C170.637 5.64937 172.685 6.01133 174.725 6.39514L174.91 5.41238C172.863 5.02721 170.808 4.66397 168.745 4.32293L168.582 5.30953ZM180.842 7.61613C182.88 8.04644 184.91 8.49866 186.932 8.97252L187.16 7.99891C185.131 7.52337 183.094 7.06954 181.049 6.6377L180.842 7.61613ZM192.989 10.4632C195.005 10.9833 197.013 11.525 199.012 12.088L199.283 11.1255C197.277 10.5604 195.262 10.0168 193.239 9.49492L192.989 10.4632ZM204.997 13.846C206.988 14.4548 208.97 15.0849 210.942 15.7361L211.255 14.7866C209.276 14.1331 207.288 13.5007 205.29 12.8897L204.997 13.846ZM216.844 17.758C218.806 18.4545 220.757 19.1719 222.699 19.9101L223.054 18.9753C221.106 18.2346 219.147 17.5146 217.178 16.8156L216.844 17.758ZM228.505 22.1913C230.434 22.974 232.352 23.7773 234.259 24.6009L234.656 23.6828C232.742 22.8563 230.817 22.0502 228.881 21.2647L228.505 22.1913Z"
          fill="url(#paint0_linear_224_980)"/>
    <defs>
        <linearGradient id="paint0_linear_224_980" x1="1" y1="14.5" x2="243" y2="14.5" gradientUnits="userSpaceOnUse">
            <stop stop-color="#4805D8"/>
            <stop offset="1" stop-color="#5552E0"/>
        </linearGradient>
    </defs>
</svg>
