<svg width="24" height="24" viewBox="0 0 24 24" fill="none" xmlns="http://www.w3.org/2000/svg">
    <g clip-path="url(#clip0_224_958)">
        <path d="M10.0496 7C8.99371 7.84845 7.91988 8.84191 6.87293 9.95866C2.19447 14.949 -0.175932 20.5116 1.57849 22.383C3.33291 24.2543 8.54779 21.7259 13.2263 16.7356C14.2732 15.6188 15.2046 14.4734 16 13.3471" stroke="white" stroke-linecap="round" stroke-linejoin="round"/>
        <path d="M16.7465 13.5C19.643 17.3448 20.8223 20.963 19.3927 22.3927C17.5509 24.2345 12.0765 21.746 7.16521 16.8347C2.25391 11.9234 -0.234455 6.44902 1.60728 4.60728C3.03687 3.17769 6.6552 4.35705 10.5 7.25342" stroke="white" stroke-linecap="round" stroke-linejoin="round"/>
        <path d="M9 14C9 14.5523 9.44772 15 10 15C10.5523 15 11 14.5523 11 14C11 13.4477 10.5523 13 10 13C9.44772 13 9 13.4477 9 14Z" stroke="white" stroke-linecap="round" stroke-linejoin="round"/>
        <path d="M13.4147 6.50133C12.8618 6.40352 12.8618 5.59646 13.4147 5.49865C15.4177 5.14431 17.0107 3.59295 17.4454 1.57341L17.4789 1.4186C17.5984 0.862959 18.3765 0.859502 18.5009 1.41406L18.5414 1.59447C18.9922 3.60448 20.5857 5.14273 22.5831 5.49609C23.139 5.5944 23.139 6.40558 22.5831 6.50389C20.5857 6.85725 18.9922 8.39552 18.5414 10.4055L18.5009 10.5859C18.3765 11.1405 17.5984 11.137 17.4789 10.5814L17.4454 10.4266C17.0107 8.40705 15.4177 6.85568 13.4147 6.50133Z" stroke="white" stroke-linecap="round" stroke-linejoin="round"/>
    </g>
    <defs>
        <clipPath id="clip0_224_958">
            <rect width="24" height="24" fill="white"/>
        </clipPath>
    </defs>
</svg>
