<svg width="24" height="24" viewBox="0 0 24 24" fill="none" xmlns="http://www.w3.org/2000/svg">
    <g clip-path="url(#clip0_224_946)">
        <path d="M9 15C10.6569 15 12 13.6569 12 12C12 10.3431 10.6569 9 9 9C7.34315 9 6 10.3431 6 12C6 13.6569 7.34315 15 9 15Z" stroke="white" stroke-linecap="round" stroke-linejoin="round"/>
        <path d="M16 15.1427C14.4394 19.3418 10.4585 23 8.82138 23C6.76312 23 1 17.2174 1 11.8478C1 7.51359 4.50175 4 8.82138 4C9.06539 4 9.30679 4.01122 9.54511 4.03316" stroke="white" stroke-linecap="round" stroke-linejoin="round"/>
        <path d="M13.4147 6.50134C12.8618 6.40354 12.8618 5.59646 13.4147 5.49866C15.4177 5.14431 17.0108 3.59295 17.4456 1.57341L17.4789 1.4186C17.5985 0.86296 18.3766 0.859501 18.5009 1.41406L18.5415 1.59446C18.9923 3.60448 20.5859 5.14274 22.5832 5.49609C23.1389 5.5944 23.1389 6.4056 22.5832 6.5039C20.5859 6.85726 18.9923 8.39552 18.5415 10.4055L18.5009 10.5859C18.3766 11.1405 17.5985 11.137 17.4789 10.5814L17.4456 10.4266C17.0108 8.40705 15.4177 6.85569 13.4147 6.50134Z" stroke="white" stroke-linecap="round" stroke-linejoin="round"/>
    </g>
    <defs>
        <clipPath id="clip0_224_946">
            <rect width="24" height="24" fill="white"/>
        </clipPath>
    </defs>
</svg>
