<svg width="24" height="24" viewBox="0 0 24 24" fill="none" xmlns="http://www.w3.org/2000/svg">
    <g clip-path="url(#clip0_224_935)">
        <path d="M12.0549 22.5621L7 23L7.43809 17.9478L17.9522 7.50668C18.1092 7.34629 18.2966 7.21884 18.5035 7.13183C18.7103 7.04481 18.9325 7 19.1569 7C19.3814 7 19.6036 7.04481 19.8105 7.13183C20.0175 7.21884 20.2048 7.34629 20.3617 7.50668L22.5016 9.66228C22.6595 9.81884 22.7848 10.0051 22.8704 10.2103C22.956 10.4155 23 10.6356 23 10.858C23 11.0803 22.956 11.3004 22.8704 11.5056C22.7848 11.7108 22.6595 11.8971 22.5016 12.0536L12.0549 22.5621Z" stroke="white" stroke-linecap="round" stroke-linejoin="round"/>
        <path d="M1.45613 7.05148C0.847957 6.94388 0.847957 6.05611 1.45613 5.94853C3.65944 5.55874 5.41185 3.85224 5.8901 1.63075L5.92675 1.46046C6.05833 0.849256 6.91418 0.845451 7.05101 1.45546L7.09551 1.65391C7.59145 3.86493 9.34435 5.55701 11.5415 5.94571C12.1528 6.05384 12.1528 6.94615 11.5415 7.05429C9.34435 7.44298 7.59145 9.13506 7.09551 11.3461L7.05101 11.5445C6.91418 12.1546 6.05833 12.1507 5.92675 11.5395L5.8901 11.3693C5.41185 9.14775 3.65944 7.44126 1.45613 7.05148Z" stroke="white" stroke-linecap="round" stroke-linejoin="round"/>
    </g>
    <defs>
        <clipPath id="clip0_224_935">
            <rect width="24" height="24" fill="white"/>
        </clipPath>
    </defs>
</svg>
