<svg width="24" height="24" viewBox="0 0 24 24" fill="none" xmlns="http://www.w3.org/2000/svg">
    <g clip-path="url(#clip0_224_971)">
        <path d="M21 13C21 18.5228 16.5228 23 11 23C5.47714 23 1 18.5228 1 13C1 7.47714 5.47714 3 11 3" stroke="white" stroke-linecap="round" stroke-linejoin="round"/>
        <path d="M1 13H13" stroke="white" stroke-linecap="round" stroke-linejoin="round"/>
        <path d="M11.1488 3C8.65674 5.841 7.20378 9.34307 7 13C7.20378 16.6569 8.65674 20.159 11.1488 23C13.1108 20.7633 14.4287 18.1168 15 15.3077" stroke="white" stroke-linecap="round" stroke-linejoin="round"/>
        <path d="M12.4561 7.05148C11.848 6.94389 11.848 6.05611 12.4561 5.94852C14.6594 5.55875 16.4118 3.85225 16.8901 1.63075L16.9267 1.46046C17.0583 0.849255 17.9142 0.845452 18.0509 1.45547L18.0955 1.65391C18.5915 3.86492 20.3443 5.55702 22.5416 5.94572C23.1528 6.05385 23.1528 6.94615 22.5416 7.0543C20.3443 7.44298 18.5915 9.13507 18.0955 11.3461L18.0509 11.5445C17.9142 12.1546 17.0583 12.1507 16.9267 11.5395L16.8901 11.3693C16.4118 9.14776 14.6594 7.44125 12.4561 7.05148Z" stroke="white" stroke-linecap="round" stroke-linejoin="round"/>
    </g>
    <defs>
        <clipPath id="clip0_224_971">
            <rect width="24" height="24" fill="white"/>
        </clipPath>
    </defs>
</svg>
