<svg width="39" height="40" viewBox="0 0 39 40" fill="none" xmlns="http://www.w3.org/2000/svg">
    <g filter="url(#filter0_d_4137_1809)">
        <path d="M33 15.6069C33 20.7498 29.7498 25.2263 24.9542 27.5398C22.7424 28.6068 20.202 29.2137 17.5 29.2137C17.3019 29.2137 17.1047 29.2105 16.9084 29.204C8.62213 28.931 2 22.9478 2 15.6069C2 8.092 8.93959 2 17.5 2C26.0604 2 33 8.092 33 15.6069Z" fill="white"/>
        <path d="M17.5 29.2137C17.3019 29.2137 17.1047 29.2105 16.9084 29.204L17.5 33.7099C19.5115 32.3179 23.8183 29.135 24.9542 27.5398C22.7424 28.6068 20.202 29.2137 17.5 29.2137Z" fill="white"/>
        <path d="M13.0476 15.5C13.0476 16.3284 12.3654 17 11.5238 17C10.6822 17 10 16.3284 10 15.5C10 14.6716 10.6822 14 11.5238 14C12.3654 14 13.0476 14.6716 13.0476 15.5Z" fill="#3981B4"/>
        <path d="M19.3968 15.5C19.3968 16.3284 18.7146 17 17.873 17C17.0314 17 16.3492 16.3284 16.3492 15.5C16.3492 14.6716 17.0314 14 17.873 14C18.7146 14 19.3968 14.6716 19.3968 15.5Z" fill="#3981B4"/>
        <path d="M26 15.5C26 16.3284 25.3178 17 24.4762 17C23.6346 17 22.9524 16.3284 22.9524 15.5C22.9524 14.6716 23.6346 14 24.4762 14C25.3178 14 26 14.6716 26 15.5Z" fill="#3981B4"/>
    </g>
    <defs>
        <filter id="filter0_d_4137_1809" x="0" y="0" width="39" height="39.7099" filterUnits="userSpaceOnUse" color-interpolation-filters="sRGB">
            <feFlood flood-opacity="0" result="BackgroundImageFix"/>
            <feColorMatrix in="SourceAlpha" type="matrix" values="0 0 0 0 0 0 0 0 0 0 0 0 0 0 0 0 0 0 127 0" result="hardAlpha"/>
            <feOffset dx="2" dy="2"/>
            <feGaussianBlur stdDeviation="2"/>
            <feComposite in2="hardAlpha" operator="out"/>
            <feColorMatrix type="matrix" values="0 0 0 0 0 0 0 0 0 0 0 0 0 0 0 0 0 0 0.3 0"/>
            <feBlend mode="normal" in2="BackgroundImageFix" result="effect1_dropShadow_4137_1809"/>
            <feBlend mode="normal" in="SourceGraphic" in2="effect1_dropShadow_4137_1809" result="shape"/>
        </filter>
    </defs>
</svg>
