<svg width="18" height="26" viewBox="0 0 18 26" fill="none" xmlns="http://www.w3.org/2000/svg">
    <path d="M8.66565 9.72728V13L10.302 14.6364M13.5856 18.8364L13.2038 23.0145C13.1547 23.5585 12.9033 24.0643 12.4993 24.4319C12.0953 24.7995 11.5682 25.0022 11.022 25H6.29838C5.75219 25.0022 5.22504 24.7995 4.82108 24.4319C4.41711 24.0643 4.16572 23.5585 4.11656 23.0145L3.73475 18.8364M3.74566 7.16364L4.12747 2.98547C4.17646 2.44337 4.42631 1.93916 4.82796 1.57182C5.22962 1.20448 5.75407 1.00053 6.29838 1.00002H11.0438C11.59 0.997802 12.1172 1.20052 12.5211 1.56813C12.9251 1.93574 13.1765 2.4415 13.2256 2.98547L13.6075 7.16364M16.302 13C16.302 17.2174 12.8831 20.6364 8.66565 20.6364C4.44821 20.6364 1.0293 17.2174 1.0293 13C1.0293 8.78256 4.44821 5.36365 8.66565 5.36365C12.8831 5.36365 16.302 8.78256 16.302 13Z" stroke="#F5F9FB" stroke-width="2" stroke-linecap="round" stroke-linejoin="round"/>
</svg>
