<svg width="25" height="24" viewBox="0 0 25 24" fill="none" xmlns="http://www.w3.org/2000/svg">
    <path d="M4.88902 4.223L9.55302 8.887M15.779 15.113L20.443 19.777M20.443 4.223L15.779 8.887L19.662 5.004M4.88902 19.777L9.55302 15.113M23.666 12C23.666 18.0751 18.7411 23 12.666 23C6.59088 23 1.66602 18.0751 1.66602 12C1.66602 5.92487 6.59088 1 12.666 1C18.7411 1 23.666 5.92487 23.666 12ZM17.066 12C17.066 14.4301 15.0961 16.4 12.666 16.4C10.236 16.4 8.26602 14.4301 8.26602 12C8.26602 9.56995 10.236 7.6 12.666 7.6C15.0961 7.6 17.066 9.56995 17.066 12Z" stroke="#F5F9FB" stroke-width="2" stroke-linecap="round" stroke-linejoin="round"/>
</svg>
