<svg width="29" height="23" viewBox="0 0 29 23" fill="none" xmlns="http://www.w3.org/2000/svg">
    <path d="M19.6512 1H1.33301V15.754H19.6512M19.6512 1V15.754M19.6512 1H24.083L27.333 10.0794V15.754H19.6512M9.01483 18.5913C9.01483 20.1583 7.78652 21.4286 6.27132 21.4286C4.75612 21.4286 3.52781 20.1583 3.52781 18.5913C3.52781 17.0243 4.75612 15.754 6.27132 15.754C7.78652 15.754 9.01483 17.0243 9.01483 18.5913ZM25.1382 18.5913C25.1382 20.1583 23.9099 21.4286 22.3947 21.4286C20.8795 21.4286 19.6512 20.1583 19.6512 18.5913C19.6512 17.0243 20.8795 15.754 22.3947 15.754C23.9099 15.754 25.1382 17.0243 25.1382 18.5913Z" stroke="white" stroke-width="2" stroke-linecap="round" stroke-linejoin="round"/>
</svg>
