<svg width="25" height="24" viewBox="0 0 25 24" fill="none" xmlns="http://www.w3.org/2000/svg">
    <path d="M9.00527 8.32711L15.9344 1.10629C16.6948 1.3809 17.315 1.94634 17.6585 2.67821C18.002 3.41009 18.0407 4.24844 17.7661 5.00885L16.3855 8.8317L21.7949 10.7852C22.0731 10.8821 22.3269 11.0384 22.5387 11.2431C22.7505 11.4479 22.9153 11.6962 23.0216 11.971C23.1279 12.2457 23.1732 12.5403 23.1543 12.8343C23.1355 13.1283 23.053 13.4147 22.9124 13.6736L18.4873 21.7987C18.2536 22.2296 17.872 22.5614 17.4129 22.7331C16.9539 22.9048 16.4482 22.9048 15.9891 22.7331L5.20869 18.8399M9.00527 8.32711L5.20869 18.8399M9.00527 8.32711L6.13814 7.29168C5.6312 7.10861 5.07229 7.13441 4.58438 7.36342C4.09646 7.59243 3.71951 8.00588 3.53643 8.51282L1.12043 15.2028C0.93735 15.7097 0.963154 16.2686 1.19216 16.7566C1.42117 17.2445 1.83462 17.6214 2.34156 17.8045L5.20869 18.8399" stroke="#F5F9FB" stroke-width="2" stroke-linecap="round" stroke-linejoin="round"/>
</svg>
