<svg width="40" height="41" viewBox="0 0 40 41" fill="none" xmlns="http://www.w3.org/2000/svg">
    <path d="M27.2626 13.9316C26.6405 13.3854 25.7447 13.3978 25.232 13.5571C25.568 13.144 26.3519 12.8056 26.5833 12.7645C26.7575 12.8305 27.2626 13.3493 27.2626 13.9316ZM29.2509 11.6721C28.8403 9.48221 23.7514 10.933 21.1882 10.0035C21.141 10.6418 21.9783 11.6646 22.7809 12.0429C21.4097 13.2324 20.1804 15.6288 19.9315 18.5552C19.6827 15.6288 18.4534 13.2324 17.0822 12.0429C17.8848 11.6646 18.7246 10.6418 18.6749 10.0023C16.1117 10.933 11.0228 9.48221 10.6122 11.6721C10.5251 12.1362 10.749 12.8417 10.9892 13.0457C11.0327 12.8977 11.2579 12.4174 11.9671 12.3104C15.5518 11.7679 18.5455 17.2936 15.8442 19.5282C15.8019 19.5631 15.8255 19.6253 15.8815 19.6253H23.9816C24.0376 19.6253 24.0612 19.5631 24.0201 19.5282C21.3176 17.2948 24.3113 11.7691 27.896 12.3104C28.6052 12.4174 28.8304 12.8989 28.8739 13.0445C29.1153 12.8417 29.338 12.1362 29.2509 11.6721ZM30.1219 6.64533C30.0585 6.43878 32.1612 6.43381 32.1612 7.75022C32.1612 8.63114 30.9033 9.04921 30.9033 9.96497C30.9033 10.3905 31.3612 10.7028 31.5018 10.7028C31.1783 9.2346 32.5171 10.0035 32.8792 10.2773C32.1612 8.30142 33.7788 8.31386 33.6195 7.40805C33.5075 6.77597 32.1015 6.96634 31.5939 6.64657C30.6905 6.07795 29.6217 3.86568 28.9187 6.07795C30.2302 7.29731 29.4662 9.08903 27.7989 9.08903C27.7989 9.08903 27.7914 9.35281 27.8064 9.37396C29.7934 9.27691 30.4865 7.81616 30.1232 6.64657L30.1219 6.64533ZM6.93665 10.2798C7.29748 10.0048 8.63753 9.2346 8.31403 10.7041C8.45463 10.7041 8.91251 10.393 8.91251 9.96622C8.91251 9.05045 7.65582 8.63239 7.65582 7.75146C7.65582 6.43505 9.7586 6.44003 9.69265 6.64782C9.33058 7.81741 10.0224 9.27815 12.0107 9.3752C12.0256 9.35405 12.0157 9.09151 12.0157 9.09151C10.3496 9.09151 9.58689 7.29731 10.8983 6.0792C10.1941 3.86693 9.12528 6.0792 8.2232 6.64657C7.71306 6.96759 6.30706 6.77597 6.19632 7.40929C6.0383 8.31511 7.65582 8.30515 6.93665 10.2798ZM12.5793 13.9329C13.2027 13.3866 14.0973 13.3991 14.6112 13.5584C14.2752 13.1453 13.4913 12.8068 13.2611 12.7658C13.0845 12.8317 12.5793 13.3506 12.5793 13.9329ZM20.8784 1.68203L19.9079 0.5L18.9386 1.68203L19.9092 2.92628L20.8784 1.68203ZM26.4128 5.25675L25.7235 4.41688L25.0342 5.25675L25.7235 6.07795L26.4128 5.25675ZM32.0045 29.5382L31.131 28.6137L30.2563 29.5382L31.131 30.3494L32.0045 29.5382ZM14.7829 5.25675L14.0935 4.41688L13.4042 5.25675L14.0935 6.07795L14.7829 5.25675ZM12.807 9.37396H15.3789C17.5414 9.37396 18.5144 8.04635 18.808 6.89542H21.0078C21.3015 8.04635 22.2745 9.37396 24.437 9.37396H27.0076C27.0076 9.37396 27.458 8.76428 27.5712 8.46068C27.9768 7.37446 27.458 6.8668 26.7002 6.8668L25.7223 7.75395L24.743 6.8668C23.9865 6.8668 23.4664 7.37446 23.8721 8.46193C23.9256 8.60004 24.0488 8.80409 24.167 8.98451C23.2537 8.85884 22.0891 8.23423 21.834 6.89542C21.834 6.89542 22.5084 5.82537 22.6776 5.39113C23.2848 3.83333 22.5084 3.19628 21.3736 3.19628L19.9079 4.91707L18.4422 3.19504C17.3062 3.19504 16.5298 3.83209 17.1382 5.38988C17.3074 5.82413 17.9818 6.89542 17.9818 6.89542C17.7255 8.23299 16.5609 8.8576 15.6489 8.98326C15.7671 8.80285 15.8902 8.59879 15.9425 8.46068C16.3481 7.37321 15.8305 6.86556 15.0715 6.86556L14.0935 7.75271L13.1143 6.86556C12.3566 6.86556 11.839 7.37321 12.2446 8.46068C12.3566 8.76179 12.8082 9.37271 12.8082 9.37271L12.807 9.37396ZM39.3928 17.3446C38.8963 17.5959 35.9848 18.9596 32.2546 18.4557C32.2931 18.2778 32.3267 18.0986 32.3541 17.9182C34.8364 17.6208 36.8533 17.2003 38.1398 16.4848C39.6056 15.6686 40.2463 13.7214 39.5073 12.2718C39.5025 12.2633 39.4958 12.256 39.4877 12.2505C39.4796 12.2451 39.4703 12.2416 39.4606 12.2404C39.451 12.2392 39.4411 12.2402 39.4319 12.2435C39.4227 12.2468 39.4144 12.2523 39.4077 12.2594C39.0021 12.7272 36.4526 15.5006 32.4362 16.3629C32.4259 16.1548 32.4068 15.9472 32.379 15.7408C34.33 14.6334 36.2349 13.3593 37.1419 12.1934C38.5131 10.4316 38.3862 8.18322 37.0822 7.03727C37.0756 7.03155 37.0678 7.02732 37.0594 7.02483C37.0509 7.02234 37.0421 7.02167 37.0334 7.02284C37.0247 7.02402 37.0164 7.02702 37.0089 7.03165C37.0014 7.03628 36.9951 7.04243 36.9902 7.04971C36.5771 7.73031 32.7137 13.9752 28.472 16.6715C28.4202 16.7045 28.368 16.7368 28.3153 16.7685C28.2874 16.7844 28.2638 16.8068 28.2463 16.8338C28.2289 16.8607 28.2182 16.8915 28.2152 16.9234C28.2121 16.9554 28.2168 16.9876 28.2288 17.0174C28.2408 17.0472 28.2598 17.0736 28.2842 17.0945C28.7732 17.5375 29.0768 18.1534 29.0768 18.8389C29.0768 20.0297 28.1597 21.0201 26.9466 21.2341C26.3295 21.3536 25.4411 21.3187 24.585 21.0363C24.5477 21.0238 24.5066 21.0487 24.5066 21.0885V24.8586C24.5066 24.9196 24.5987 24.9345 24.6211 24.8773C25.14 23.4999 26.6965 23.2075 27.3759 23.2075C27.621 24.6782 28.0577 25.8975 28.6263 26.5545C29.5508 27.6196 31.0613 27.6046 31.717 26.8668C31.7223 26.8608 31.7261 26.8536 31.7282 26.8459C31.7304 26.8381 31.7307 26.83 31.7293 26.8222C31.7278 26.8143 31.7247 26.8068 31.72 26.8003C31.7153 26.7938 31.7092 26.7885 31.7021 26.7847C31.3164 26.5645 29.1153 25.212 28.6749 22.9972C28.8478 22.9375 29.017 22.869 29.1813 22.7882C29.8917 23.9652 30.9269 25.0129 31.7593 25.4135C33.1579 26.0829 34.4394 25.7569 35.0068 24.7752C35.028 24.7404 35.0018 24.6968 34.9608 24.6931C34.0948 24.6247 31.4396 23.8632 30.3086 22.008C30.4392 21.8898 30.5649 21.7642 30.6818 21.6348C31.8664 22.5343 33.5399 23.3307 34.7381 23.4937C36.1391 23.684 37.7267 23.2373 37.7653 21.6074C37.7652 21.5994 37.7634 21.5915 37.7601 21.5842C37.7567 21.5769 37.752 21.5704 37.746 21.565C37.7401 21.5596 37.7331 21.5555 37.7255 21.553C37.7179 21.5504 37.7098 21.5495 37.7019 21.5501C37.2042 21.58 33.9044 21.7243 31.5553 20.3743C31.6368 20.219 31.7127 20.0609 31.783 19.9003C31.783 19.9003 35.3341 20.7401 37.0175 20.4614C38.6898 20.1864 39.6678 18.9397 39.4799 17.3881C39.4749 17.3508 39.4301 17.3259 39.3928 17.3446ZM8.03283 19.9003C8.10251 20.0608 8.17965 20.2188 8.26177 20.3731C5.91139 21.7218 2.61414 21.58 2.11395 21.5489C2.07787 21.5477 2.04925 21.575 2.0505 21.6074C2.08907 23.2373 3.67673 23.684 5.07775 23.4937C6.27471 23.3307 7.94822 22.5343 9.1315 21.6335C9.25095 21.7642 9.37537 21.8898 9.50602 22.008C8.37375 23.862 5.71978 24.6234 4.85378 24.6931C4.81272 24.6968 4.78784 24.7404 4.80775 24.774C5.37637 25.7569 6.65669 26.0829 8.05523 25.4123C8.88887 25.0116 9.92284 23.964 10.6333 22.7882C10.7975 22.8678 10.9668 22.9375 11.1397 22.9972C10.6992 25.212 8.49693 26.5632 8.11246 26.7847C8.10542 26.7885 8.09932 26.7938 8.09461 26.8003C8.08991 26.8068 8.08673 26.8143 8.0853 26.8222C8.08386 26.83 8.08422 26.8381 8.08634 26.8459C8.08845 26.8536 8.09228 26.8608 8.09753 26.8668C8.75325 27.6046 10.2638 27.6196 11.1895 26.5533C11.7569 25.8975 12.1936 24.6782 12.4387 23.2062C13.1193 23.2062 14.6746 23.4999 15.1935 24.876C15.2159 24.9345 15.3092 24.9196 15.3092 24.8586V21.0885C15.3092 21.05 15.2681 21.0238 15.2295 21.0363C14.3747 21.3187 13.4851 21.3536 12.8692 21.2341C11.6561 21.0201 10.7378 20.0297 10.7378 18.8389C10.7378 18.1546 11.0427 17.5362 11.5304 17.0933C11.5548 17.0726 11.5739 17.0463 11.586 17.0167C11.5981 16.9871 11.6029 16.955 11.6 16.9231C11.5971 16.8912 11.5865 16.8606 11.5692 16.8336C11.5519 16.8067 11.5283 16.7844 11.5005 16.7685C11.4475 16.7368 11.3948 16.7045 11.3425 16.6715C7.10338 13.9764 3.24248 7.73778 2.82566 7.05095C2.82078 7.04328 2.81428 7.03677 2.80661 7.03188C2.79895 7.02699 2.7903 7.02385 2.78129 7.02266C2.77227 7.02147 2.7631 7.02228 2.75443 7.02502C2.74576 7.02776 2.7378 7.03236 2.7311 7.03851C1.42837 8.18446 1.30271 10.4316 2.67262 12.1934C3.58092 13.3593 5.48461 14.6346 7.43559 15.7395C7.40778 15.946 7.38869 16.1536 7.37836 16.3616C3.36566 15.5019 0.81745 12.7334 0.408093 12.2631C0.401522 12.2557 0.393263 12.2501 0.384026 12.2466C0.374789 12.2432 0.364849 12.242 0.355061 12.2432C0.345272 12.2444 0.335926 12.248 0.327826 12.2536C0.319725 12.2593 0.313112 12.2668 0.308554 12.2755C-0.430528 13.7238 0.210258 15.6698 1.67474 16.4861C2.96128 17.2015 4.97945 17.6233 7.46172 17.9194C7.48909 18.0999 7.52144 18.279 7.56002 18.4569C3.8335 18.9609 0.923211 17.5997 0.423024 17.3471C0.414611 17.3426 0.405247 17.3402 0.395715 17.3401C0.386184 17.34 0.376761 17.3421 0.368235 17.3464C0.359708 17.3506 0.352327 17.3569 0.346706 17.3646C0.341085 17.3723 0.33739 17.3812 0.335927 17.3906C0.148046 18.941 1.12602 20.1865 2.79953 20.4627C4.48175 20.7401 8.03283 19.9015 8.03283 19.9015V19.9003ZM31.1298 31.5414L29.8357 30.5224C29.3194 30.831 28.9399 31.3187 28.7918 31.8911C28.0129 31.9993 25.8915 31.529 26.098 31.2154C28.4248 27.9443 26.6455 25.9971 24.5066 26.1053V28.3014C24.5066 29.0082 23.8907 29.5793 23.1317 29.5793H21.6561C20.5972 29.5793 19.9067 30.6443 19.9067 30.6443C19.9067 30.6443 19.2174 29.5793 18.1585 29.5793H16.6828C15.9238 29.5793 15.3092 29.0069 15.3092 28.3014V26.1066C13.1703 25.9983 11.3898 27.9456 13.7165 31.2167C13.9206 31.5265 11.7394 32.0217 10.7167 31.8973C10.5743 31.7514 10.4039 31.6357 10.2158 31.5573C10.0276 31.4788 9.82558 31.4391 9.62173 31.4407C9.43758 31.4407 9.25468 31.4742 9.08048 31.5389C9.08048 31.5389 5.06033 27.7316 4.98692 27.6942L5.01927 27.6171C5.24821 27.1891 4.89858 26.7212 4.6771 26.7548C4.93341 26.4462 4.94586 25.095 3.51746 24.7814C3.55977 25.0539 3.58092 25.6076 3.58092 25.6076C3.58092 25.6076 2.47852 25.0116 1.92607 25.5255C1.43833 26.1016 2.11271 27.1455 2.11271 27.1455C2.11271 27.1455 1.54907 27.1604 1.2716 27.1368C1.67971 28.5179 3.05087 28.4209 3.34825 28.1484C3.32834 28.3674 3.82479 28.6809 4.2441 28.4296L4.42949 28.3412C4.46184 28.3848 8.37749 32.0839 8.37749 32.0839C8.18849 32.3599 8.11441 32.6986 8.17094 33.0283C8.26426 33.5733 8.71841 34.0262 9.29947 34.1432C9.71007 34.2253 10.0958 34.1456 10.4044 33.9652L11.4408 34.927C11.4883 34.9713 11.5444 35.0053 11.6057 35.0269C11.6669 35.0485 11.7319 35.0573 11.7967 35.0527C12.0505 35.0365 12.2396 34.8312 12.221 34.5948C12.2107 34.4919 12.1618 34.3968 12.0841 34.3285C12.0667 34.3099 11.0265 33.3456 11.0265 33.3456C11.885 32.7446 13.4826 32.3203 14.809 32.3203C15.0404 32.3203 15.1512 32.1237 15.0703 31.9296C14.4693 30.4863 15.7608 29.4399 17.0972 30.291C17.6795 30.663 18.2717 31.3946 18.7172 32.6152C16.526 33.1453 13.7738 34.6073 13.2176 36.2036C13.0023 36.8195 13.7103 37.6594 14.5713 37.8286C14.5863 37.8316 14.6019 37.8285 14.6147 37.8202C14.6275 37.8118 14.6365 37.7987 14.6398 37.7838C15.0902 35.4011 17.6508 33.6255 18.9847 33.3244L19.0967 33.6243C17.6446 34.3111 16.2374 35.7594 15.8342 37.4815C15.6501 38.2703 16.5298 38.9808 17.2552 39.1749C17.2925 39.1848 17.3273 39.1599 17.3298 39.1251C17.4667 36.9477 18.4297 35.0975 19.2908 34.2564C19.3142 34.4208 19.332 34.586 19.3443 34.7516C19.3443 34.7516 18.4608 37.209 18.4608 39.0019C18.4608 39.8356 19.7014 40.4191 19.8843 40.5C20.1132 40.4191 21.3525 39.8368 21.3525 39.0019C21.3525 37.2102 20.4703 34.7516 20.4703 34.7516C20.4823 34.5859 20.5006 34.4207 20.5251 34.2564C21.3848 35.0975 22.3479 36.9464 22.4847 39.1239C22.4855 39.1325 22.4882 39.1408 22.4925 39.1483C22.4969 39.1558 22.5029 39.1622 22.51 39.167C22.5171 39.1719 22.5253 39.1751 22.5338 39.1765C22.5424 39.1779 22.5511 39.1773 22.5594 39.1749C23.286 38.9808 24.1645 38.2703 23.9803 37.4815C23.5772 35.7594 22.1699 34.3111 20.7179 33.6243L20.8299 33.3244C22.1637 33.6255 24.7244 35.4011 25.1748 37.7838C25.181 37.8149 25.2121 37.8348 25.2445 37.8286C26.103 37.6594 26.8122 36.8195 26.597 36.2036C26.042 34.6073 23.2885 33.1453 21.0974 32.6152C21.5441 31.3946 22.1351 30.6618 22.7187 30.291C24.0537 29.4387 25.344 30.4851 24.7443 31.9296C24.6634 32.1225 24.7729 32.3203 25.0056 32.3203C26.5061 32.3203 28.3526 32.8616 29.0842 33.5895C29.5521 34.29 30.4156 34.7379 31.3898 34.6421C32.4972 34.5338 33.3993 33.7014 33.5237 32.6737C33.6319 31.7729 33.1666 30.9641 32.4238 30.5236L31.1298 31.5414ZM21.5914 24.9793C22.0517 24.8088 22.7759 24.9469 22.751 25.6126C22.7448 25.7632 22.9563 25.7632 22.9725 25.6089C23.1094 24.6135 22.4375 24.3261 21.732 24.4418C21.6449 24.0996 21.5727 23.7997 21.4906 23.5036C21.4259 23.2622 21.4022 22.8118 21.6797 22.8118C21.829 22.8118 21.7693 23.2311 21.7544 23.4115C21.7419 23.5708 21.8004 23.6666 21.9286 23.6716C22.0094 23.6741 22.109 23.572 22.1687 23.5036C22.5718 23.0482 22.6664 22.3415 22.1936 22.0006C21.7979 21.7144 20.8075 21.9272 20.5363 22.3353C20.4939 22.1822 20.2986 21.9284 20.204 21.8177C20.112 21.7107 20.0883 21.636 20.2152 21.5427C20.275 21.4966 20.4554 21.3162 20.4554 21.1321C20.4554 21.0213 20.3708 20.8198 20.1008 20.8198C19.888 20.8198 19.6503 20.9666 19.6503 21.2963C19.6503 21.3685 19.669 21.4469 19.715 21.5315C19.4853 21.5096 19.2535 21.5209 19.027 21.5651L21.6237 28.6909C22.3678 28.3238 22.9128 27.7428 22.9128 27.1194C22.9128 26.5881 22.1289 26.7648 21.7494 27.1791C21.6275 26.5047 21.5192 25.8826 21.401 25.263C21.3674 25.0913 21.4545 25.0303 21.5914 24.9793ZM17.9208 20.1392L18.4658 21.6547C17.998 21.7666 17.2465 22.1063 17.2465 22.5567C17.2465 23.1577 18.3103 23.5484 18.9237 23.5024C18.9085 23.5676 18.9096 23.6356 18.927 23.7002C18.9444 23.7649 18.9774 23.8243 19.0232 23.8731C18.8018 23.8731 18.38 23.9764 18.2419 24.1257C17.9171 23.8221 17.407 23.7114 17.1643 23.8955C16.9217 24.0822 16.9143 24.397 17.1681 24.7541C17.3448 25.0004 17.412 25.2443 17.2129 25.5292C17.9532 25.5292 17.6807 24.5674 17.9706 24.5674C17.9355 24.7838 17.9595 25.0057 18.0403 25.2095C18.0963 25.3687 18.0963 25.482 18.0005 25.635C17.7616 26.017 17.3908 26.8942 17.4406 27.688C17.1967 27.6855 17.0735 27.6258 17.1594 27.2948C17.1917 27.1704 17.1146 27.0833 17.0138 27.2351C16.9018 27.4031 16.8483 27.6905 16.8483 27.8124C16.8483 28.5192 17.6907 28.661 18.0117 28.5117C18.9399 29.4113 20.7652 29.1711 21.3761 28.8688L18.1635 20.0533C18.0975 19.8866 17.8636 19.9662 17.9208 20.1392ZM17.8089 27.4006C17.7417 27.0385 18.2468 26.389 18.8901 25.7632C18.7532 26.1713 18.8379 26.8743 19.1054 27.1169C18.64 27.1169 18.0863 27.204 17.8089 27.4006Z"
          fill="white"/>
</svg>
