<svg width="24" height="24" viewBox="0 0 24 24" fill="none" xmlns="http://www.w3.org/2000/svg">
    <rect width="24" height="24" rx="12" fill="white"/>
    <path d="M9.26613 17.2739C8.84109 17.2739 8.87973 17.1157 8.76381 16.7205L7.52734 12.57L16.9941 6.87793"
          fill="#A2DA67"/>
    <path d="M9.2666 17.274C9.53708 17.274 9.69164 17.1158 9.88484 16.9577L11.6236 15.258L9.4598 13.9141"
          fill="#4D7B1B"/>
    <path d="M9.45938 13.9138L14.6757 17.8271C15.2167 18.1829 15.6804 17.9853 15.8349 17.2737L17.9601 7.07546C18.1533 6.20584 17.6124 5.81056 17.0328 6.08726L4.62942 10.9888C3.81799 11.305 3.81799 11.8189 4.47486 12.0165L7.68196 13.0442L15.0235 8.26131C15.3713 8.06367 15.6804 8.14273 15.4485 8.41942"
          fill="#6DAA2C"/>
</svg>
