<svg width="24" height="24" viewBox="0 0 24 24" fill="none" xmlns="http://www.w3.org/2000/svg">
    <rect width="24" height="24" rx="12" fill="white"/>
    <path d="M12.5685 15.819C12.7271 15.7872 13.0127 15.7238 13.0127 15.343C13.0127 15.343 12.981 14.391 13.4252 14.264C13.8695 14.1371 14.4407 15.1843 15.0436 15.5968C15.4879 15.8824 15.837 15.8507 15.837 15.8507L17.4553 15.819C17.4553 15.819 18.2804 15.7555 17.8996 15.0891C17.8679 15.0256 17.614 14.6131 16.662 13.7563C15.6783 12.8043 15.837 12.963 17.0111 11.3446C17.7409 10.3609 18.0583 9.75796 17.9631 9.53583C17.8361 9.3137 17.3284 9.34543 17.3284 9.34543H15.5196C15.3292 9.34543 15.234 9.37717 15.1388 9.53583C15.1388 9.53583 14.8532 10.3292 14.4724 10.9638C13.6791 12.3283 13.3618 12.3918 13.2031 12.2966C12.9175 12.1379 12.981 11.535 12.981 11.1225C12.981 9.6945 13.2031 9.18677 12.5685 9.05984C12.1559 8.99637 10.6962 8.9329 10.252 9.15504C10.0298 9.28197 9.90289 9.5041 9.99809 9.53583C10.0933 9.53583 10.3789 9.56756 10.5375 9.75796C10.7914 10.1705 10.8231 12.1379 10.4741 12.3283C9.99809 12.6774 8.79224 10.3609 8.50664 9.5993C8.44317 9.4089 8.34797 9.37717 8.12584 9.3137H6.38053C6.19013 9.3137 5.90454 9.34543 6.03147 9.72623C6.88826 11.5033 8.6653 15.8507 11.8703 15.819H12.5685Z"
          fill="#6DAA2C"/>
</svg>
