<svg width="159" height="118" viewBox="0 0 159 118" fill="none" xmlns="http://www.w3.org/2000/svg">
    <path fill-rule="evenodd" clip-rule="evenodd"
          d="M10.7656 0H148.234C154.161 0 159 4.83585 159 10.7578V107.242C159 113.151 154.161 118 148.234 118H10.7656C4.83935 118 0 113.151 0 107.242V10.7578C0 4.83585 4.83935 0 10.7656 0ZM70.4683 93.3811L41.4062 75.7833V64.6246L70.4683 47.0267V60.293L52.8059 70.2362L70.4683 80.1924V93.3811ZM88.5317 93.3811L117.594 75.7833V64.6246L88.5317 47.0267V60.293L106.194 70.2362L88.5317 80.1924V93.3811ZM152.647 30.1142H6.84497V108.289C6.84497 109.117 7.16846 109.841 7.71191 110.397C8.25537 110.94 8.99292 111.263 9.82104 111.263H149.619C150.447 111.263 151.172 110.94 151.728 110.397C152.284 109.841 152.595 109.117 152.595 108.289V30.1142H152.647ZM137.986 12.0896C140.924 12.0896 143.304 14.4688 143.304 17.4039C143.304 20.339 140.924 22.7182 137.986 22.7182C135.049 22.7182 132.668 20.339 132.668 17.4039C132.681 14.4688 135.062 12.0896 137.986 12.0896ZM101.963 12.0896C104.9 12.0896 107.281 14.4688 107.281 17.4039C107.281 20.339 104.9 22.7182 101.963 22.7182C99.0256 22.7182 96.6448 20.339 96.6448 17.4039C96.6448 14.4688 99.0256 12.0896 101.963 12.0896ZM119.975 12.0896C122.912 12.0896 125.293 14.4688 125.293 17.4039C125.293 20.339 122.912 22.7182 119.975 22.7182C117.037 22.7182 114.656 20.339 114.656 17.4039C114.656 14.4688 117.037 12.0896 119.975 12.0896Z"
          fill="#131313"/>
</svg>
