<svg width="171" height="113" viewBox="0 0 171 113" fill="none" xmlns="http://www.w3.org/2000/svg">
    <path d="M154.694 56.6479C154.694 61.7563 150.553 65.8975 145.444 65.8975C140.336 65.8975 136.195 61.7563 136.195 56.6479C136.195 51.5394 140.336 47.3982 145.444 47.3982C150.553 47.3982 154.694 51.5394 154.694 56.6479Z"
          fill="#131313"/>
    <path d="M168.26 12.2496C168.26 17.3581 164.119 21.4993 159.01 21.4993C153.902 21.4993 149.761 17.3581 149.761 12.2496C149.761 7.1412 153.902 3 159.01 3C164.119 3 168.26 7.1412 168.26 12.2496Z"
          fill="#131313"/>
    <path d="M168.26 101.046C168.26 106.155 164.119 110.296 159.01 110.296C153.902 110.296 149.761 106.155 149.761 101.046C149.761 95.9376 153.902 91.7964 159.01 91.7964C164.119 91.7964 168.26 95.9376 168.26 101.046Z"
          fill="#131313"/>
    <path d="M35.0654 56.6479C35.0654 61.7563 30.9242 65.8975 25.8158 65.8975C20.7073 65.8975 16.5661 61.7563 16.5661 56.6479C16.5661 51.5394 20.7073 47.3982 25.8158 47.3982C30.9242 47.3982 35.0654 51.5394 35.0654 56.6479Z"
          fill="#131313"/>
    <path d="M21.4993 12.2496C21.4993 17.3581 17.3581 21.4993 12.2496 21.4993C7.1412 21.4993 3 17.3581 3 12.2496C3 7.1412 7.1412 3 12.2496 3C17.3581 3 21.4993 7.1412 21.4993 12.2496Z"
          fill="#131313"/>
    <path d="M21.4993 101.046C21.4993 106.155 17.3581 110.296 12.2496 110.296C7.1412 110.296 3 106.155 3 101.046C3 95.9376 7.1412 91.7964 12.2496 91.7964C17.3581 91.7964 21.4993 95.9376 21.4993 101.046Z"
          fill="#131313"/>
    <path d="M136.195 56.6479C136.195 61.7563 140.336 65.8975 145.444 65.8975C150.553 65.8975 154.694 61.7563 154.694 56.6479C154.694 51.5394 150.553 47.3982 145.444 47.3982C140.336 47.3982 136.195 51.5394 136.195 56.6479ZM136.195 56.6479H122.629M149.761 12.2496C149.761 17.3581 153.902 21.4993 159.01 21.4993C164.119 21.4993 168.26 17.3581 168.26 12.2496C168.26 7.1412 164.119 3 159.01 3C153.902 3 149.761 7.1412 149.761 12.2496ZM149.761 12.2496H138.045L122.629 27.6657V56.6479M149.761 101.046C149.761 106.155 153.902 110.296 159.01 110.296C164.119 110.296 168.26 106.155 168.26 101.046C168.26 95.9376 164.119 91.7964 159.01 91.7964C153.902 91.7964 149.761 95.9376 149.761 101.046ZM149.761 101.046H139.278L122.629 84.3967V56.6479M35.0654 56.6479C35.0654 61.7563 30.9242 65.8975 25.8158 65.8975C20.7073 65.8975 16.5661 61.7563 16.5661 56.6479C16.5661 51.5394 20.7073 47.3982 25.8158 47.3982C30.9242 47.3982 35.0654 51.5394 35.0654 56.6479ZM35.0654 56.6479H48.6315M21.4993 12.2496C21.4993 17.3581 17.3581 21.4993 12.2496 21.4993C7.1412 21.4993 3 17.3581 3 12.2496C3 7.1412 7.1412 3 12.2496 3C17.3581 3 21.4993 7.1412 21.4993 12.2496ZM21.4993 12.2496H33.2155L48.6315 27.6657V56.6479M21.4993 101.046C21.4993 106.155 17.3581 110.296 12.2496 110.296C7.1412 110.296 3 106.155 3 101.046C3 95.9376 7.1412 91.7964 12.2496 91.7964C17.3581 91.7964 21.4993 95.9376 21.4993 101.046ZM21.4993 101.046H31.9822L48.6315 84.3967V56.6479"
          stroke="#131313" stroke-width="4.93315"/>
    <path fill-rule="evenodd" clip-rule="evenodd"
          d="M125.095 17.7993H46.165V96.7295H125.095V17.7993ZM64.5792 73.6655H71.1696L73.9883 65.2611H86.8021L89.626 73.6655H96.2164L84.2006 39.5819H76.5784L64.5792 73.6655ZM85.1358 60.3017L80.5226 46.5717H80.2563L75.6516 60.3017H85.1358ZM100.622 48.1028V73.6655H106.647V48.1028H100.622ZM101.188 43.5262C101.876 44.1586 102.697 44.4748 103.651 44.4748C104.617 44.4748 105.438 44.1586 106.114 43.5262C106.802 42.8827 107.146 42.1116 107.146 41.2129C107.146 40.3031 106.802 39.532 106.114 38.8996C105.438 38.2561 104.617 37.9343 103.651 37.9343C102.697 37.9343 101.876 38.2561 101.188 38.8996C100.5 39.532 100.156 40.3031 100.156 41.2129C100.156 42.1116 100.5 42.8827 101.188 43.5262Z"
          fill="#131313"/>
</svg>
