<svg width="20" height="18" viewBox="0 0 20 18" fill="none" xmlns="http://www.w3.org/2000/svg">
    <path d="M18.0993 8.37038C18.1024 9.59248 17.8169 10.7981 17.2659 11.8889C16.6126 13.1961 15.6083 14.2955 14.3654 15.0642C13.1226 15.8328 11.6902 16.2402 10.2289 16.2407C9.0068 16.2439 7.80123 15.9584 6.71039 15.4074L1.43262 17.1667L3.19187 11.8889C2.64088 10.7981 2.35536 9.59248 2.35854 8.37038C2.35911 6.90905 2.76651 5.47673 3.53513 4.23386C4.30375 2.99099 5.40322 1.98666 6.71039 1.33336C7.80123 0.78237 9.0068 0.49684 10.2289 0.500026H10.6919C12.6218 0.6065 14.4447 1.4211 15.8114 2.78786C17.1782 4.15461 17.9928 5.97747 18.0993 7.90742V8.37038Z"
          stroke="#007AFF" stroke-width="0.833333" stroke-linecap="round" stroke-linejoin="round"/>
    <path d="M5.625 6.4165L6.20438 7.51359L7.5 7.6906L6.5625 8.54409L6.78375 9.74984L5.625 9.18026L4.46625 9.74984L4.6875 8.54409L3.75 7.6906L5.04563 7.51359L5.625 6.4165Z"
          fill="#007AFF"/>
    <path d="M10.2083 6.4165L10.7877 7.51359L12.0833 7.6906L11.1458 8.54409L11.3671 9.74984L10.2083 9.18026L9.04958 9.74984L9.27083 8.54409L8.33333 7.6906L9.62896 7.51359L10.2083 6.4165Z"
          fill="#007AFF"/>
    <path d="M14.7917 6.4165L15.371 7.51359L16.6667 7.6906L15.7292 8.54409L15.9504 9.74984L14.7917 9.18026L13.6329 9.74984L13.8542 8.54409L12.9167 7.6906L14.2123 7.51359L14.7917 6.4165Z"
          fill="#007AFF"/>
</svg>
